<?xml version="1.0" standalone="no"?>
<!DOCTYPE svg PUBLIC "-//W3C//DTD SVG 1.1//EN" "http://www.w3.org/Graphics/SVG/1.1/DTD/svg11.dtd" >
<svg xmlns="http://www.w3.org/2000/svg" xmlns:xlink="http://www.w3.org/1999/xlink" version="1.1">
<metadata></metadata>
<defs>
<font id="barlowmedium" horiz-adv-x="1101" >
<font-face units-per-em="2048" ascent="1638" descent="-410" />
<missing-glyph horiz-adv-x="409" />
<glyph unicode="IJ" horiz-adv-x="1728" d="M168 31v1372q0 13 9 22t22 9h135q14 0 22.5 -9t8.5 -22v-1372q0 -13 -8.5 -22t-22.5 -9h-135q-13 0 -22 9t-9 22zM584 426v84q0 14 8.5 22.5t21.5 8.5h136q13 0 21.5 -8.5t8.5 -22.5v-84q0 -123 80 -197.5t211 -74.5q132 0 212.5 74.5t80.5 197.5v977q0 13 9 22t22 9h133 q14 0 22.5 -9t8.5 -22v-977q0 -199 -134 -320.5t-354 -121.5t-353.5 121.5t-133.5 320.5z" />
<glyph unicode="ffi" horiz-adv-x="1941" d="M63 911v101q0 13 8.5 21.5t22.5 8.5h115q10 0 10 11v67q0 167 81.5 243.5t277.5 70.5h55q13 0 22 -9t9 -22v-76q0 -13 -9 -22t-22 -9h-55q-95 -3 -129.5 -48.5t-34.5 -141.5v-53q0 -11 10 -11h471q10 0 10 11v67q0 167 81.5 243.5t279.5 70.5h55q13 0 22 -9t9 -22v-76 q0 -13 -9 -22t-22 -9h-55q-95 -3 -129.5 -48.5t-34.5 -141.5v-53q0 -11 10 -11h217q14 0 22.5 -8.5t8.5 -21.5v-101q0 -13 -8.5 -21.5t-22.5 -8.5h-217q-10 0 -10 -11v-839q0 -13 -9 -22t-22 -9h-135q-14 0 -22.5 9t-8.5 22v839q0 11 -10 11h-471q-10 0 -10 -11v-839 q0 -13 -9 -22t-22 -9h-133q-14 0 -22.5 9t-8.5 22v839q0 11 -10 11h-115q-14 0 -22.5 8.5t-8.5 21.5zM1550 1323q0 57 38.5 93t97.5 36q60 0 97.5 -36t37.5 -93q0 -58 -37.5 -93.5t-97.5 -35.5q-59 0 -97.5 35.5t-38.5 93.5zM1587 31v981q0 13 8.5 21.5t22.5 8.5h135 q14 0 22.5 -8.5t8.5 -21.5v-981q0 -13 -9 -22t-22 -9h-135q-14 0 -22.5 9t-8.5 22z" />
<glyph unicode="ffl" horiz-adv-x="1914" d="M63 911v101q0 13 8.5 21.5t22.5 8.5h115q10 0 10 11v67q0 167 81.5 243.5t277.5 70.5h55q13 0 22 -9t9 -22v-76q0 -13 -9 -22t-22 -9h-55q-95 -3 -129.5 -48.5t-34.5 -141.5v-53q0 -11 10 -11h471q10 0 10 11v67q0 167 81.5 243.5t279.5 70.5h55q13 0 22 -9t9 -22v-76 q0 -13 -9 -22t-22 -9h-55q-95 -3 -129.5 -48.5t-34.5 -141.5v-53q0 -11 10 -11h217q14 0 22.5 -8.5t8.5 -21.5v-101q0 -13 -8.5 -21.5t-22.5 -8.5h-217q-10 0 -10 -11v-839q0 -13 -9 -22t-22 -9h-135q-14 0 -22.5 9t-8.5 22v839q0 11 -10 11h-471q-10 0 -10 -11v-839 q0 -13 -9 -22t-22 -9h-133q-14 0 -22.5 9t-8.5 22v839q0 11 -10 11h-115q-14 0 -22.5 8.5t-8.5 21.5zM1573 31v1372q0 13 8.5 22t22.5 9h135q13 0 21.5 -8.5t8.5 -22.5v-1372q0 -14 -8.5 -22.5t-21.5 -8.5h-135q-14 0 -22.5 9t-8.5 22z" />
<glyph unicode="fi" horiz-adv-x="1265" d="M63 893v119q0 13 8.5 21.5t22.5 8.5h125q10 0 10 11v34q0 198 75.5 272.5t277.5 74.5h59q13 0 22 -9t9 -22v-111q0 -13 -8.5 -21.5t-22.5 -8.5h-39q-102 0 -139 -39.5t-37 -147.5v-22q0 -11 10 -11h203q14 0 22.5 -8.5t8.5 -21.5v-119q0 -13 -9 -22t-22 -9h-203 q-10 0 -10 -10v-821q0 -13 -9 -22t-22 -9h-135q-14 0 -22.5 9t-8.5 22v821q0 10 -10 10h-125q-14 0 -22.5 9t-8.5 22zM874 1327q0 57 38 93t98 36t96.5 -36t36.5 -93t-36.5 -93t-96.5 -36t-98 36t-38 93zM911 31v981q0 13 8.5 21.5t22.5 8.5h135q14 0 22.5 -8.5t8.5 -21.5 v-981q0 -13 -9 -22t-22 -9h-135q-14 0 -22.5 9t-8.5 22z" />
<glyph unicode="fl" horiz-adv-x="1239" d="M63 893v119q0 13 8.5 21.5t22.5 8.5h125q10 0 10 11v34q0 198 75.5 272.5t277.5 74.5h59q13 0 22 -9t9 -22v-111q0 -13 -8.5 -21.5t-22.5 -8.5h-39q-102 0 -139 -39.5t-37 -147.5v-22q0 -11 10 -11h203q14 0 22.5 -8.5t8.5 -21.5v-119q0 -13 -9 -22t-22 -9h-203 q-10 0 -10 -10v-821q0 -13 -9 -22t-22 -9h-135q-14 0 -22.5 9t-8.5 22v821q0 10 -10 10h-125q-14 0 -22.5 9t-8.5 22zM897 31v1372q0 13 8.5 22t22.5 9h135q13 0 22 -9t9 -22v-1372q0 -13 -9 -22t-22 -9h-135q-14 0 -22.5 9t-8.5 22z" />
<glyph unicode="gj" horiz-adv-x="1591" d="M106 524q0 170 31 262q39 123 138.5 198t234.5 75q167 0 262 -101q4 -6 8 -3.5t4 8.5v49q0 13 8.5 21.5t22.5 8.5h135q14 0 22.5 -8.5t8.5 -21.5v-959q0 -113 -32.5 -198.5t-87.5 -137.5t-134.5 -82t-165.5 -38t-188 0q-29 0 -29 32l4 121q0 14 10 22t25 7 q215 -14 308 48.5t93 231.5v35q0 4 -1.5 6t-4.5 1.5t-6 -3.5q-88 -98 -250 -98q-132 0 -240 69.5t-149 204.5q-27 94 -27 250zM305 526q0 -138 21 -192q21 -75 81 -123.5t146 -48.5q89 0 146 48.5t73 123.5q12 59 12 192q0 134 -14 191q-16 75 -73.5 123.5t-143.5 48.5 q-85 0 -142.5 -47.5t-82.5 -124.5q-23 -64 -23 -191zM1016 -287q0 31 31 31q95 3 150.5 52.5t55.5 144.5v1071q0 13 8.5 21.5t22.5 8.5h135q14 0 22.5 -8.5t8.5 -21.5v-1069q0 -193 -99 -279t-304 -86q-31 0 -31 31v104zM1219 1323q0 55 39 91t94 36q56 0 95.5 -36t39.5 -91 q0 -57 -37.5 -93t-97.5 -36t-96.5 36t-36.5 93z" />
<glyph unicode="ij" horiz-adv-x="989" d="M123 1327q0 57 37.5 93t97.5 36t96.5 -36t36.5 -93t-36.5 -93t-96.5 -36t-97.5 36t-37.5 93zM160 31v981q0 14 8 22t22 8h136q14 0 22 -8t8 -22v-981q0 -14 -8.5 -22.5t-21.5 -8.5h-136q-13 0 -21.5 8.5t-8.5 22.5zM408 -287q0 31 30 31q110 1 160.5 49t50.5 148v1071 q0 13 8.5 21.5t22.5 8.5h135q14 0 22.5 -8.5t8.5 -21.5v-1069q0 -199 -92.5 -283t-315.5 -84q-30 0 -30 31v106zM614 1323q0 55 39.5 92t94.5 37q56 0 95.5 -37t39.5 -92q0 -56 -37 -92.5t-98 -36.5q-59 0 -96.5 36.5t-37.5 92.5z" />
<glyph unicode="&#x2d;&#x2d;" horiz-adv-x="1384" d="M72 561v109q0 14 8 22t22 8h1180q14 0 22.5 -8.5t8.5 -21.5v-109q0 -13 -8.5 -22t-22.5 -9h-1180q-13 0 -21.5 8.5t-8.5 22.5z" />
<glyph horiz-adv-x="0" />
<glyph horiz-adv-x="682" />
<glyph unicode="&#xd;" horiz-adv-x="409" />
<glyph unicode=" "  horiz-adv-x="409" />
<glyph unicode="&#x09;" horiz-adv-x="409" />
<glyph unicode="&#xa0;" horiz-adv-x="409" />
<glyph unicode="!" horiz-adv-x="677" d="M186 147q0 58 45 100t103 42q59 0 104 -42t45 -100q0 -59 -43 -100t-106 -41q-64 0 -106 41t-42 100zM240 1403q0 14 8.5 22.5t21.5 8.5h136q13 0 21.5 -8.5t8.5 -22.5l-16 -897q0 -14 -9 -22.5t-22 -8.5h-100q-13 0 -22 8.5t-9 22.5z" />
<glyph unicode="&#x22;" horiz-adv-x="608" d="M51 1395q0 30 29 30h131q29 0 29 -30l-17 -377q0 -13 -9.5 -22t-23.5 -9h-88q-14 0 -23 8t-9 23zM373 1395q0 30 28 30h131q29 0 29 -30l-18 -377q0 -14 -9.5 -22.5t-23.5 -8.5h-88q-14 0 -23.5 9t-9.5 22z" />
<glyph unicode="#" horiz-adv-x="1370" d="M129 422l2 108q0 14 8.5 22.5t22.5 8.5h139q12 0 12 10l43 279q0 10 -8 10h-112q-14 0 -22.5 9t-8.5 22v110q0 13 8.5 22t22.5 9h139q12 0 12 10l49 312q3 28 33 28l135 -2q33 0 27 -32l-47 -306q0 -10 8 -10h280q13 0 13 10l49 312q3 28 33 28l135 -2q32 0 26 -32 l-47 -306q0 -10 9 -10h120q14 0 22.5 -9t8.5 -22l-2 -110q0 -13 -8.5 -22t-22.5 -9h-145q-12 0 -12 -10l-41 -279q0 -10 8 -10h117q13 0 21.5 -8.5t8.5 -22.5v-108q0 -14 -8.5 -22.5t-21.5 -8.5h-144q-12 0 -12 -10l-49 -311q-3 -29 -33 -29l-135 2q-33 0 -27 33l47 305 q0 10 -8 10h-280q-13 0 -13 -10l-49 -311q-3 -29 -33 -29l-135 2q-32 0 -26 33l47 305q0 10 -9 10h-116q-14 0 -22.5 8.5t-8.5 22.5zM512 571q0 -10 8 -10h279q12 0 12 10l43 279q0 10 -8 10h-281q-12 0 -12 -10z" />
<glyph unicode="$" horiz-adv-x="1122" d="M109 350v82q0 14 8.5 22.5t21.5 8.5h131q14 0 22.5 -8.5t8.5 -22.5v-39q0 -105 72.5 -172t201.5 -67q121 0 185.5 60t64.5 155q0 45 -21.5 81t-68 68t-92 56t-123 62t-131.5 69q-93 49 -148 93.5t-89.5 112.5t-34.5 158q0 160 92 257.5t264 117.5q10 3 10 12l-2 123 q0 13 8.5 22t22.5 9h70q13 0 21.5 -8.5t8.5 -22.5l-2 -121q0 -10 11 -10q187 -15 289 -115t102 -262v-59q0 -14 -9 -22.5t-22 -8.5h-131q-14 0 -22.5 7.5t-8.5 19.5v24q0 109 -69 178.5t-199 69.5q-114 0 -177 -53t-63 -150q0 -32 8.5 -58.5t29 -48.5t41.5 -38.5t59 -35 t67.5 -31t80 -33.5t85.5 -37q176 -79 258 -177.5t82 -238.5q0 -167 -102 -271.5t-291 -121.5q-11 0 -11 -11l3 -106q0 -13 -8.5 -22t-22.5 -9h-72q-14 0 -22.5 9t-8.5 22l2 108q0 11 -10 11q-174 20 -272 116t-98 246z" />
<glyph unicode="%" horiz-adv-x="1718" d="M168 1151q0 126 89.5 213.5t217.5 87.5q126 0 214.5 -88t88.5 -213q0 -127 -88.5 -216t-214.5 -89q-128 0 -217.5 89t-89.5 216zM281 1151q0 -82 56 -138.5t138 -56.5q80 0 135.5 56.5t55.5 138.5q0 79 -56.5 135.5t-134.5 56.5q-81 0 -137.5 -56t-56.5 -136zM404.5 10 q-5.5 10 3.5 27l763 1376q11 21 37 21h80q18 0 24 -10t-3 -27l-764 -1377q-10 -20 -37 -20h-80q-18 0 -23.5 10zM948 285q0 126 89.5 214.5t217.5 88.5q126 0 215 -88.5t89 -214.5t-89 -214.5t-215 -88.5q-128 0 -217.5 88.5t-89.5 214.5zM1061 285q0 -82 56 -138.5 t138 -56.5q79 0 135 57.5t56 137.5q0 79 -56.5 135.5t-134.5 56.5q-81 0 -137.5 -56t-56.5 -136z" />
<glyph unicode="&#x26;" horiz-adv-x="1386" d="M102 326q0 74 23 138.5t67.5 116.5t91.5 90t111 79q8 8 0 14q-113 136 -149.5 205.5t-36.5 138.5q0 154 102 248t269 94q169 0 277 -92.5t108 -241.5q0 -67 -22.5 -125t-66.5 -105.5t-88.5 -83t-109.5 -75.5q-8 -5 -2 -14l262 -303l8 -11q6 -6 15 0q35 41 124 164 q17 27 43 10l99 -55q27 -17 8 -43q-87 -127 -162 -213q-6 -6 6 -20q41 -48 97.5 -115t76.5 -90q14 -15 9 -26t-25 -11h-152q-23 0 -36 16l-101 113q-5 8 -14 2q-189 -147 -414 -147q-185 0 -301.5 87.5t-116.5 254.5zM299 342q-3 -95 65 -146.5t187 -43.5q135 12 266 112 q9 6 0 15q-100 119 -141 163q-36 41 -154 174q-5 8 -14 2q-99 -69 -152 -132t-57 -144zM406 1108q0 -40 27.5 -88.5t117.5 -159.5q5 -8 14 -2q100 67 151.5 125t51.5 129q0 72 -51 115t-133 43q-80 0 -129 -44t-49 -118z" />
<glyph unicode="'" horiz-adv-x="296" d="M51 1399q0 31 29 31h141q29 0 29 -31l-19 -373q0 -15 -9 -23t-23 -8h-97q-14 0 -23 8t-9 23z" />
<glyph unicode="(" horiz-adv-x="595" d="M-6 672q0 260 64.5 486.5t170.5 383.5q16 19 37 19h127q19 0 25.5 -10t-2.5 -27q-89 -160 -145 -381t-56 -469q0 -246 56 -464.5t145 -377.5q9 -17 2.5 -27t-25.5 -10h-129q-23 0 -39 19q-104 156 -167.5 379.5t-63.5 478.5z" />
<glyph unicode=")" horiz-adv-x="595" d="M177.5 -195q-6.5 10 2.5 27q89 159 145 377.5t56 464.5q0 248 -56 469t-145 381q-9 17 -2.5 27t25.5 10h127q21 0 37 -19q106 -157 170.5 -383.5t64.5 -486.5q0 -255 -63.5 -478.5t-167.5 -379.5q-16 -19 -39 -19h-129q-19 0 -25.5 10z" />
<glyph unicode="*" horiz-adv-x="815" d="M66 1010q-15 24 12 41l201 110q10 7 0 13l-201 110q-27 17 -12 41l30 53q17 28 41 13l199 -115q4 -3 8 -0.5t4 8.5v215q0 13 9 22t22 9h57q14 0 22.5 -9t8.5 -22v-215q0 -6 3.5 -8.5t8.5 0.5l199 113q12 7 23.5 4t17.5 -15l29 -53q6 -12 2.5 -23.5t-15.5 -17.5l-200 -110 q-10 -6 0 -13l200 -110q12 -6 15.5 -17.5t-2.5 -23.5l-29 -54q-14 -27 -41 -10l-199 115q-5 3 -8.5 0.5t-3.5 -8.5v-217q0 -14 -8.5 -22.5t-22.5 -8.5h-57q-13 0 -22 8.5t-9 22.5v217q0 6 -4 8.5t-8 -0.5l-199 -115q-25 -16 -41 10z" />
<glyph unicode="+" horiz-adv-x="1013" d="M72 578v108q0 14 8.5 22.5t21.5 8.5h310q10 0 10 10v315q0 14 9 22.5t22 8.5h108q13 0 22 -8.5t9 -22.5v-315q0 -10 10 -10h309q13 0 22 -8.5t9 -22.5v-108q0 -14 -9 -22.5t-22 -8.5h-309q-10 0 -10 -10v-304q0 -13 -8.5 -21.5t-22.5 -8.5h-108q-14 0 -22.5 8.5 t-8.5 21.5v304q0 10 -10 10h-310q-13 0 -21.5 8.5t-8.5 22.5z" />
<glyph unicode="," horiz-adv-x="540" d="M121 -143l80 434q6 28 32 28h115q16 0 23.5 -8.5t3.5 -25.5l-117 -435q-6 -26 -33 -26h-75q-35 0 -29 33z" />
<glyph unicode="-" horiz-adv-x="819" d="M72 571v109q0 14 8.5 22.5t21.5 8.5h613q13 0 21.5 -8.5t8.5 -22.5v-109q0 -13 -8.5 -21.5t-21.5 -8.5h-613q-14 0 -22 8.5t-8 21.5z" />
<glyph unicode="." horiz-adv-x="555" d="M127 143q0 58 44.5 99t102.5 41t104 -41.5t46 -98.5q0 -60 -43.5 -101.5t-106.5 -41.5q-64 0 -105.5 41t-41.5 102z" />
<glyph unicode="/" horiz-adv-x="794" d="M63 35l476 1374q8 25 34 25h134q17 0 23 -9.5t1 -25.5l-475 -1374q-8 -25 -35 -25h-133q-17 0 -23.5 10t-1.5 25z" />
<glyph unicode="0" horiz-adv-x="1159" d="M127 414v606q0 198 122.5 315t328.5 117q207 0 330.5 -117t123.5 -315v-606q0 -199 -123.5 -316.5t-330.5 -117.5q-206 0 -328.5 117.5t-122.5 316.5zM324 401q0 -115 69 -183t185 -68q119 0 188.5 68t69.5 183v627q0 116 -70 184t-188 68q-116 0 -185 -68.5t-69 -183.5 v-627z" />
<glyph unicode="1" horiz-adv-x="702" d="M92 1194v94q0 22 23 35l209 102q18 9 38 9h146q14 0 22.5 -9t8.5 -22v-1372q0 -13 -8.5 -22t-22.5 -9h-135q-13 0 -22 9t-9 22v1200q0 5 -4 7t-8 1l-203 -70q-15 -6 -25 1t-10 24z" />
<glyph unicode="2" horiz-adv-x="1114" d="M106 1014v78q6 161 126 259.5t305 98.5q196 0 315 -107.5t119 -271.5q0 -168 -185 -401q-117 -150 -409 -488q-4 -4 -2 -8t8 -4h596q13 0 22 -9t9 -22v-108q0 -13 -9 -22t-22 -9h-838q-13 0 -21.5 8.5t-8.5 22.5v106q0 22 14 39q135 151 457 539q190 225 190 352 q0 95 -64.5 154t-170.5 59t-169.5 -59t-62.5 -156v-51q0 -14 -8.5 -22.5t-22.5 -8.5h-137q-13 0 -22 8.5t-9 22.5z" />
<glyph unicode="3" horiz-adv-x="1075" d="M90 418q0 31 31 31h137q31 0 31 -31q9 -76 16 -99q21 -75 77.5 -119t139.5 -44q157 0 207 137q29 76 29 160q0 111 -35 186q-53 131 -203 131q-34 0 -71 -18q-25 -13 -43 8l-66 80q-16 22 2 43l344 366q10 13 -4 13h-543q-13 0 -21.5 8t-8.5 22v111q0 14 8.5 22.5 t21.5 8.5h774q13 0 22 -9t9 -22v-119q0 -25 -14 -39l-314 -342q-10 -10 9 -14q208 -17 290 -209q41 -96 41 -231q0 -100 -32 -201q-45 -126 -149 -195t-253 -69t-256 76.5t-149 205.5q-24 73 -27 152z" />
<glyph unicode="4" horiz-adv-x="1169" d="M88 416v92q0 20 8 39l398 864q10 23 34 23h144q17 0 23 -10t-1 -27l-377 -824q-4 -12 7 -12h405q10 0 10 10v293q0 14 8.5 22.5t22.5 8.5h135q13 0 22 -8.5t9 -22.5v-293q0 -10 10 -10h78q14 0 22.5 -8.5t8.5 -22.5v-114q0 -14 -8.5 -22.5t-22.5 -8.5h-78q-10 0 -10 -10 v-344q0 -13 -9 -22t-22 -9h-135q-14 0 -22.5 9t-8.5 22v344q0 10 -10 10h-610q-13 0 -22 8.5t-9 22.5z" />
<glyph unicode="5" horiz-adv-x="1071" d="M119 348q-1 15 7.5 24t23.5 9h139q27 0 33 -29q5 -26 8 -33q21 -75 77.5 -119t139.5 -44q84 0 141 46.5t76 127.5q16 42 16 114q3 55 -12 129q-15 78 -74 120t-147 42q-73 0 -131.5 -30t-83.5 -87q-12 -24 -37 -24h-145q-14 0 -22.5 9t-8.5 22v778q0 13 8.5 22t22.5 9 h745q13 0 22 -9t9 -22v-109q0 -13 -8.5 -21.5t-22.5 -8.5h-569q-11 0 -11 -11l-2 -424q0 -15 13 -6q100 84 247 84q143 0 246.5 -71.5t138.5 -200.5q23 -95 23 -186q0 -94 -25 -179q-38 -131 -147.5 -207.5t-261.5 -76.5q-149 0 -256.5 74t-149.5 200q-17 53 -22 88z" />
<glyph unicode="6" horiz-adv-x="1071" d="M117 451v630q0 167 117 268t305 101q183 0 296 -98t113 -258v-31q0 -14 -8.5 -22.5t-21.5 -8.5h-136q-30 0 -30 21v18q0 92 -59.5 149.5t-153.5 57.5q-100 0 -163 -59.5t-63 -157.5v-254q0 -6 4.5 -7.5t8.5 3.5q88 96 254 96q241 0 344 -192q57 -108 57 -261 q0 -126 -41 -219q-46 -116 -145.5 -178.5t-241.5 -62.5q-153 0 -258 69.5t-148 196.5q-30 86 -30 199zM313 436q0 -84 27 -145q54 -133 209 -133q149 0 205 131q30 65 30 157q0 106 -36 168q-60 119 -201 119q-146 0 -201 -123q-33 -67 -33 -174z" />
<glyph unicode="7" horiz-adv-x="985" d="M63 1169v234q0 13 8.5 22t22.5 9h821q13 0 22 -9t9 -22v-121q0 -16 -6 -37l-459 -1220q-8 -25 -35 -25h-147q-35 0 -23 35l459 1216q3 13 -8 13h-489q-11 0 -11 -11v-84q0 -13 -8.5 -21.5t-21.5 -8.5h-103q-14 0 -22.5 8.5t-8.5 21.5z" />
<glyph unicode="8" horiz-adv-x="1079" d="M102 410q0 114 45 206q44 90 123 142q9 6 0 12q-63 43 -106 109q-58 83 -58 194q0 118 62 209q54 83 150 128.5t219 45.5q137 0 235.5 -50.5t149.5 -148.5q47 -82 47 -186q0 -101 -54 -184q-50 -74 -114 -117q-9 -9 2 -14q87 -52 127 -144q39 -82 39 -204 q0 -133 -54 -230q-52 -92 -149.5 -143t-230.5 -51q-128 0 -226.5 52t-152.5 150q-54 102 -54 224zM301 1053q0 -78 39 -133q30 -45 81 -71t116 -26q136 0 204 105q33 50 33 127q0 71 -26 119q-62 114 -211 114q-146 0 -207 -110q-29 -56 -29 -125zM303 422q0 -103 39 -170 q62 -100 195 -100q129 0 190 92q45 70 45 182q0 67 -22 125q-25 65 -80 100t-133 35q-146 0 -207 -131q-27 -58 -27 -133z" />
<glyph unicode="9" horiz-adv-x="1075" d="M94 987q0 126 41 219q46 116 145.5 179t241.5 63q153 0 258 -69.5t148 -196.5q30 -86 30 -199v-631q0 -167 -116.5 -267.5t-304.5 -100.5q-183 0 -296.5 98t-113.5 258v31q0 13 8.5 21.5t22.5 8.5h135q31 0 31 -18v-21q0 -92 59.5 -149t153.5 -57q99 0 162 59t63 158v254 q0 6 -4 7.5t-8 -3.5q-88 -96 -254 -96q-241 0 -344 192q-58 110 -58 260zM291 987q0 -104 37 -168q60 -119 200 -119q146 0 201 123q33 67 33 174q0 85 -27 146q-54 133 -209 133q-148 0 -204 -131q-31 -67 -31 -158z" />
<glyph unicode=":" horiz-adv-x="712" d="M209 166q0 57 44.5 98t102.5 41q60 0 105 -40.5t45 -98.5q0 -60 -43.5 -101.5t-106.5 -41.5t-105 41.5t-42 101.5zM209 848q0 57 44.5 98t102.5 41q60 0 105 -40.5t45 -98.5q0 -60 -43.5 -101.5t-106.5 -41.5t-105 41.5t-42 101.5z" />
<glyph unicode=";" horiz-adv-x="638" d="M176 827q0 58 45 100t103 42q59 0 105 -42t46 -100q0 -59 -43.5 -100t-107.5 -41q-63 0 -105.5 41t-42.5 100zM188 -137l52 422q3 28 32 28h117q33 0 27 -32l-90 -424q-7 -27 -35 -27h-74q-32 0 -29 33z" />
<glyph unicode="&#x3c;" horiz-adv-x="1013" d="M72 494v124q0 26 22 35l811 371q15 8 26 1t11 -24v-129q0 -23 -22 -34l-631 -277q-12 -6 0 -12l631 -277q22 -11 22 -34v-127q0 -17 -11 -24t-26 1l-811 371q-22 9 -22 35z" />
<glyph unicode="=" horiz-adv-x="1013" d="M72 373v108q0 14 8.5 22.5t21.5 8.5h809q13 0 22 -9t9 -22v-108q0 -13 -9 -22t-22 -9h-809q-13 0 -21.5 8.5t-8.5 22.5zM72 786v109q0 14 8.5 22.5t21.5 8.5h809q13 0 22 -9t9 -22v-109q0 -13 -8.5 -21.5t-22.5 -8.5h-809q-14 0 -22 8t-8 22z" />
<glyph unicode="&#x3e;" horiz-adv-x="1013" d="M72 111v127q0 23 22 34l631 277q12 6 0 12l-631 277q-22 11 -22 34v129q0 17 11 24t26 -1l811 -371q22 -9 22 -35v-124q0 -26 -22 -35l-811 -371q-15 -8 -26 -1t-11 24z" />
<glyph unicode="?" horiz-adv-x="987" d="M74 1034v35q0 172 117.5 277.5t308.5 105.5q186 0 298.5 -102t112.5 -271q0 -69 -19.5 -127t-50.5 -96.5t-69 -71.5t-76 -60t-69 -53t-50.5 -59.5t-19.5 -72.5v-82q0 -13 -8.5 -22t-22.5 -9h-137q-13 0 -22 9t-9 22v92q0 64 26.5 116.5t65.5 86t85.5 70t85.5 67.5 t65.5 79t26.5 105q0 92 -60 146.5t-159 54.5q-101 0 -162.5 -57t-61.5 -148v-43q0 -29 -30 -29l-136 4q-13 0 -21.5 9.5t-8.5 23.5zM328 135q0 55 41 94t98 39q56 0 98.5 -39t42.5 -94t-42 -94t-99 -39q-58 0 -98.5 38.5t-40.5 94.5z" />
<glyph unicode="@" horiz-adv-x="1687" d="M115 543q12 171 85 314t185 237t252.5 146t290.5 52q157 0 286 -53t213.5 -146.5t122 -228t17.5 -291.5q-26 -195 -120.5 -301t-242.5 -106q-144 0 -213 94q-5 8 -14 2q-39 -45 -93.5 -68.5t-111.5 -23.5q-114 0 -187 55.5t-85 143.5q-10 64 6 176q12 103 39 174 q33 96 112 149.5t174 53.5q103 0 164 -64q5 -6 9 -5t4 7l2 23q3 28 32 28h76q32 0 29 -32l-53 -402q-11 -78 23.5 -131t101.5 -53q78 0 131.5 72t72.5 202q19 139 -9.5 252t-96 188.5t-169 116.5t-228.5 41q-100 0 -194 -26t-177 -80t-147 -129.5t-103.5 -181t-46.5 -228.5 q-17 -257 118.5 -418t381.5 -161q98 0 187.5 21.5t141.5 53.5q26 19 43 -4l39 -47q20 -23 -6 -43q-74 -51 -189 -81.5t-235 -30.5q-196 0 -342 92t-218.5 259t-57.5 382zM635 408q5 -54 42 -86.5t97 -32.5q57 0 98.5 33t61.5 86q13 30 20 71l13 94q8 66 4 113 q-3 51 -39.5 84t-93.5 33q-56 0 -100 -33t-66 -82q-19 -45 -31 -147q-14 -96 -6 -133z" />
<glyph unicode="A" horiz-adv-x="1290" d="M72 35l442 1374q8 25 35 25h188q27 0 35 -25l447 -1374q5 -15 -1.5 -25t-23.5 -10h-147q-27 0 -35 25l-72 229q-4 8 -10 8h-572q-6 0 -10 -8l-72 -229q-8 -25 -34 -25h-146q-33 0 -24 35zM401 430q-3 -12 9 -12h469q11 0 8 12l-238 764q-1 5 -3.5 7t-5 0t-3.5 -7z" />
<glyph unicode="B" horiz-adv-x="1277" d="M168 31v1372q0 13 9 22t22 9h483q213 0 330.5 -97t117.5 -284q0 -220 -194 -305q-12 -6 -2 -13q215 -95 215 -342q0 -126 -59.5 -216t-160 -133.5t-231.5 -43.5h-499q-13 0 -22 9t-9 22zM365 182q0 -10 10 -10h323q117 0 185.5 65t68.5 175t-70 174.5t-190 64.5h-317 q-10 0 -10 -10v-459zM365 825q0 -10 10 -10h307q118 0 187 59.5t69 161.5q0 105 -69 166.5t-187 61.5h-307q-10 0 -10 -11v-428z" />
<glyph unicode="C" horiz-adv-x="1243" d="M129 453v530q0 210 137.5 338.5t362.5 128.5q224 0 360.5 -124.5t136.5 -328.5q0 -21 -30 -24l-135 -8q-31 -3 -31 12v12q0 131 -82.5 211t-218.5 80t-219.5 -80t-83.5 -211v-545q0 -131 83.5 -210.5t219.5 -79.5t218.5 79.5t82.5 210.5q0 11 8.5 17.5t22.5 5.5l135 -8 q30 -3 30 -10v-11q0 -204 -136.5 -330t-360.5 -126q-225 0 -362.5 129.5t-137.5 341.5z" />
<glyph unicode="D" horiz-adv-x="1265" d="M168 31v1372q0 13 9 22t22 9h485q214 0 340.5 -111t126.5 -299v-614q0 -188 -126.5 -299t-340.5 -111h-485q-13 0 -22 9t-9 22zM365 180q0 -10 10 -10h317q120 0 190 72.5t72 195.5v557q0 123 -70.5 196t-191.5 73h-317q-10 0 -10 -11v-1073z" />
<glyph unicode="E" horiz-adv-x="1224" d="M168 31v1372q0 13 9 22t22 9h891q13 0 21.5 -8.5t8.5 -22.5v-109q0 -14 -8 -22t-22 -8h-715q-10 0 -10 -11v-436q0 -10 10 -10h487q14 0 22.5 -8.5t8.5 -22.5v-108q0 -14 -8.5 -22.5t-22.5 -8.5h-487q-10 0 -10 -10v-447q0 -10 10 -10h715q13 0 21.5 -8.5t8.5 -22.5v-108 q0 -14 -8.5 -22.5t-21.5 -8.5h-891q-13 0 -22 9t-9 22z" />
<glyph unicode="F" horiz-adv-x="1157" d="M168 31v1372q0 13 9 22t22 9h888q13 0 22 -9t9 -22v-109q0 -13 -8.5 -21.5t-22.5 -8.5h-712q-10 0 -10 -11v-436q0 -10 10 -10h485q14 0 22.5 -8.5t8.5 -22.5v-108q0 -14 -8.5 -22.5t-22.5 -8.5h-485q-10 0 -10 -10v-596q0 -13 -8.5 -22t-22.5 -9h-135q-13 0 -22 9t-9 22 z" />
<glyph unicode="G" horiz-adv-x="1241" d="M129 455v524q0 213 137.5 342t362.5 129q222 0 359.5 -125t137.5 -319v-13q0 -13 -8 -21.5t-22 -8.5h-135q-31 0 -31 20v18q0 122 -83 199.5t-218 77.5q-137 0 -220 -80t-83 -213v-536q0 -133 86 -213t225 -80q135 0 214 70.5t79 193.5v155q0 11 -10 11h-265 q-13 0 -21.5 8t-8.5 22v107q0 14 8.5 22.5t21.5 8.5h441q13 0 21.5 -8.5t8.5 -22.5v-250q0 -235 -134 -362t-363 -127q-225 0 -362.5 129.5t-137.5 341.5z" />
<glyph unicode="H" horiz-adv-x="1320" d="M168 31v1372q0 13 9 22t22 9h135q14 0 22.5 -9t8.5 -22v-586q0 -10 10 -10h579q11 0 11 10v586q0 14 8.5 22.5t21.5 8.5h135q14 0 22.5 -9t8.5 -22v-1372q0 -13 -8.5 -22t-22.5 -9h-135q-13 0 -21.5 8.5t-8.5 22.5v596q0 10 -11 10h-579q-10 0 -10 -10v-596 q0 -13 -8.5 -22t-22.5 -9h-135q-13 0 -22 9t-9 22z" />
<glyph unicode="I" horiz-adv-x="532" d="M168 31v1372q0 13 9 22t22 9h135q14 0 22.5 -9t8.5 -22v-1372q0 -13 -8.5 -22t-22.5 -9h-135q-13 0 -22 9t-9 22z" />
<glyph unicode="J" horiz-adv-x="1196" d="M51 426v84q0 14 8.5 22.5t22.5 8.5h135q13 0 22 -8.5t9 -22.5v-84q0 -123 80 -197.5t211 -74.5q132 0 212 74.5t80 197.5v977q0 13 8.5 22t22.5 9h133q13 0 22 -9t9 -22v-977q0 -199 -133.5 -320.5t-353.5 -121.5t-354 121.5t-134 320.5z" />
<glyph unicode="K" horiz-adv-x="1261" d="M168 31v1372q0 13 9 22t22 9h135q14 0 22.5 -9t8.5 -22v-639q0 -6 3.5 -8t8.5 4l579 657q14 17 37 17h154q20 0 24 -11t-8 -26l-473 -563q-5 -8 -2 -15l514 -782q10 -17 4.5 -27t-24.5 -10h-154q-26 0 -37 20l-438 660q-8 12 -14 2l-170 -188q-4 -8 -4 -15v-448 q0 -13 -8.5 -22t-22.5 -9h-135q-13 0 -22 9t-9 22z" />
<glyph unicode="L" horiz-adv-x="1167" d="M168 31v1372q0 13 9 22t22 9h135q14 0 22.5 -9t8.5 -22v-1223q0 -10 10 -10h694q13 0 22 -9t9 -22v-108q0 -13 -9 -22t-22 -9h-870q-13 0 -22 9t-9 22z" />
<glyph unicode="M" horiz-adv-x="1449" d="M170 31v1372q0 13 9 22t22 9h137q25 0 37 -21l344 -549q6 -12 12 0l346 549q12 21 37 21h137q13 0 22 -9t9 -22v-1372q0 -13 -9 -22t-22 -9h-135q-14 0 -22.5 9t-8.5 22v1040q0 7 -4.5 8.5t-7.5 -4.5l-278 -454q-12 -21 -37 -21h-66q-25 0 -37 21l-276 454q-2 4 -5 5 t-5 -1.5t-2 -7.5v-1040q0 -13 -8.5 -22t-22.5 -9h-135q-13 0 -22 9t-9 22z" />
<glyph unicode="N" horiz-adv-x="1368" d="M168 31v1372q0 13 9 22t22 9h131q25 0 37 -21l626 -1014q2 -4 5 -5t5.5 1.5t2.5 7.5v1000q0 14 8.5 22.5t21.5 8.5h135q13 0 22 -9t9 -22v-1372q0 -13 -9 -22t-22 -9h-133q-26 0 -37 20l-626 1020q-2 4 -5 5t-5.5 -1.5t-2.5 -7.5l3 -1005q0 -13 -8.5 -22t-22.5 -9h-135 q-13 0 -22 9t-9 22z" />
<glyph unicode="O" horiz-adv-x="1273" d="M129 473v488q0 220 139.5 354.5t366.5 134.5q229 0 368.5 -134.5t139.5 -354.5v-488q0 -221 -139.5 -356t-368.5 -135q-227 0 -366.5 135t-139.5 356zM326 465q0 -141 85.5 -227t223.5 -86q140 0 225.5 86t85.5 227v498q0 142 -85.5 229.5t-225.5 87.5 q-138 0 -223.5 -87.5t-85.5 -229.5v-498z" />
<glyph unicode="P" horiz-adv-x="1214" d="M156 31v1374q0 14 8.5 22.5t21.5 8.5h543q189 0 304.5 -114.5t115.5 -301.5q0 -186 -117.5 -298t-310.5 -112h-359q-10 0 -10 -10v-569q0 -14 -8.5 -22.5t-21.5 -8.5h-136q-13 0 -21.5 8.5t-8.5 22.5zM352 780q0 -10 10 -10h340q112 0 181 68t69 178q0 112 -69 181 t-181 69h-340q-10 0 -10 -11v-475z" />
<glyph unicode="Q" horiz-adv-x="1191" d="M106 453v516q0 217 135 349t355 132t354.5 -132t134.5 -349v-516q0 -182 -103 -306t-277 -153q-11 -4 -11 -12v-175q0 -13 -8 -21.5t-22 -8.5h-136q-14 0 -22 8.5t-8 21.5v175q0 8 -11 12q-174 29 -277.5 153t-103.5 306zM303 455q0 -135 80.5 -218t212.5 -83t212.5 83 t80.5 218v524q0 135 -80.5 218t-212.5 83t-212.5 -83t-80.5 -218v-524z" />
<glyph unicode="R" horiz-adv-x="1255" d="M168 31v1374q0 13 9 22t22 9h540q186 0 299 -112.5t113 -295.5q0 -142 -75.5 -241.5t-205.5 -133.5q-9 -3 -6 -12l291 -604q7 -17 1 -27t-23 -10h-140q-25 0 -35 23l-282 606q-4 8 -12 8h-289q-10 0 -10 -10v-596q0 -13 -8.5 -22t-22.5 -9h-135q-13 0 -22 9t-9 22z M365 801q0 -10 10 -10h340q107 0 173 65t66 170q0 107 -66 173.5t-173 66.5h-340q-10 0 -10 -11v-454z" />
<glyph unicode="S" horiz-adv-x="1204" d="M102 383v49q0 14 9 22.5t22 8.5h131q14 0 22.5 -8.5t8.5 -22.5v-39q0 -104 89.5 -171.5t240.5 -67.5q141 0 212.5 59t71.5 156q0 91 -76 147t-274 135q-64 25 -99 39t-88.5 40t-83.5 46.5t-66.5 53t-55.5 66.5t-32 79.5t-13 97.5q0 177 125.5 277t341.5 100 q229 0 367.5 -112t138.5 -296v-30q0 -14 -9 -22.5t-22 -8.5h-133q-14 0 -22.5 7.5t-8.5 19.5v24q0 107 -84.5 177.5t-234.5 70.5q-128 0 -197.5 -52.5t-69.5 -150.5q0 -29 7.5 -53.5t18.5 -44t36 -39t47.5 -34t65.5 -33.5t77.5 -33t96.5 -37q53 -20 85 -33.5t79.5 -35 t76.5 -40t65 -44.5t58 -53.5t42 -61t29 -74t9 -86.5q0 -177 -133.5 -284t-362.5 -107q-232 0 -370 108.5t-138 290.5z" />
<glyph unicode="T" horiz-adv-x="1175" d="M78 1292v111q0 13 9 22t22 9h960q13 0 22 -9t9 -22v-111q0 -13 -8.5 -21.5t-22.5 -8.5h-381q-10 0 -10 -11v-1220q0 -13 -9 -22t-22 -9h-135q-14 0 -22.5 9t-8.5 22v1220q0 11 -10 11h-362q-14 0 -22.5 8.5t-8.5 21.5z" />
<glyph unicode="U" horiz-adv-x="1312" d="M154 455v948q0 14 8.5 22.5t21.5 8.5h135q13 0 22 -9t9 -22v-952q0 -132 84.5 -214.5t222.5 -82.5q136 0 221 82.5t85 214.5v952q0 14 8.5 22.5t21.5 8.5h135q14 0 22.5 -9t8.5 -22v-948q0 -212 -138 -341.5t-364 -129.5t-364.5 129.5t-138.5 341.5z" />
<glyph unicode="V" horiz-adv-x="1230" d="M70 1399q-9 35 26 35h146q27 0 34 -27l336 -1116q1 -5 3.5 -7t5.5 0t4 7l333 1116q7 27 35 27h142q35 0 26 -35l-438 -1374q-8 -25 -35 -25h-149q-27 0 -35 25z" />
<glyph unicode="W" horiz-adv-x="1779" d="M49 1399q-9 35 25 35h147q26 0 33 -27l266 -1008q2 -6 6 -6t6 6l250 1008q7 27 33 27h146q25 0 32 -27l264 -1008q1 -6 6 -6t7 6l266 1008q7 27 33 27h137q16 0 23.5 -9t3.5 -26l-367 -1372q-7 -27 -33 -27h-141q-26 0 -33 27l-264 1044q-1 6 -6 6t-6 -6l-256 -1044 q-7 -27 -33 -27h-133q-28 0 -35 27z" />
<glyph unicode="X" horiz-adv-x="1236" d="M78.5 11q-5.5 11 3.5 26l414 674q3 6 0 12l-414 674q-9 15 -3.5 26t23.5 11h148q25 0 37 -21l325 -534q6 -13 13 0l325 534q12 21 37 21h146q18 0 23.5 -11t-3.5 -26l-412 -676q-3 -6 0 -12l412 -672q9 -15 3.5 -26t-23.5 -11h-146q-26 0 -37 20l-325 533q-7 13 -13 0 l-325 -533q-11 -20 -37 -20h-148q-18 0 -23.5 11z" />
<glyph unicode="Y" horiz-adv-x="1198" d="M76.5 1423q6.5 11 23.5 11h146q26 0 37 -23l309 -588q6 -9 12 0l309 588q11 23 37 23h148q17 0 22.5 -11t-2.5 -26l-418 -787q-4 -8 -4 -12v-565q0 -14 -8.5 -22.5t-21.5 -8.5h-136q-13 0 -21.5 8.5t-8.5 22.5v565q0 4 -4 12l-418 787q-8 15 -1.5 26z" />
<glyph unicode="Z" horiz-adv-x="1128" d="M84 31v127q0 19 12 37l711 1056q3 5 1.5 9t-7.5 4h-686q-14 0 -22.5 8.5t-8.5 21.5v109q0 13 9 22t22 9h889q13 0 21.5 -8.5t8.5 -22.5v-127q0 -19 -12 -37l-715 -1057q-3 -4 -1.5 -8t7.5 -4h691q13 0 21.5 -8.5t8.5 -22.5v-108q0 -14 -8.5 -22.5t-21.5 -8.5h-889 q-13 0 -22 9t-9 22z" />
<glyph unicode="[" horiz-adv-x="804" d="M68 -236v1811q0 14 8.5 22.5t21.5 8.5h410q14 0 22.5 -9t8.5 -22v-111q0 -13 -8.5 -21.5t-22.5 -8.5h-234q-10 0 -10 -11v-1509q0 -10 10 -10h236q14 0 22.5 -9t8.5 -22v-109q0 -13 -8.5 -21.5t-22.5 -8.5h-412q-14 0 -22 8t-8 22z" />
<glyph unicode="\" horiz-adv-x="794" d="M63 1399q-5 15 1.5 25t23.5 10h133q27 0 35 -25l475 -1374q5 -16 -1 -25.5t-23 -9.5h-134q-26 0 -34 25z" />
<glyph unicode="]" horiz-adv-x="804" d="M264 -127q0 13 9 22t22 9h235q11 0 11 10v1509q0 11 -11 11h-233q-14 0 -22.5 8.5t-8.5 21.5v111q0 13 9 22t22 9h410q13 0 21.5 -8.5t8.5 -22.5v-1811q0 -14 -8.5 -22t-21.5 -8h-412q-14 0 -22.5 8.5t-8.5 21.5v109z" />
<glyph unicode="^" horiz-adv-x="937" d="M86 657l287 752q9 25 37 25h116q28 0 37 -25l289 -752q12 -34 -25 -34h-104q-27 0 -35 24l-213 574q-1 6 -6 6t-6 -6l-213 -574q-8 -24 -35 -24h-104q-37 0 -25 34z" />
<glyph unicode="_" horiz-adv-x="1019" d="M51 31v92q0 13 8.5 22t22.5 9h856q14 0 22.5 -9t8.5 -22v-92q0 -13 -8.5 -22t-22.5 -9h-856q-14 0 -22.5 9t-8.5 22z" />
<glyph unicode="`" horiz-adv-x="442" d="M72.5 1429q5.5 11 23.5 11h127q25 0 37 -23l109 -200q8 -15 2 -26t-23 -11h-104q-26 0 -37 20l-131 203q-9 15 -3.5 26z" />
<glyph unicode="a" horiz-adv-x="1058" d="M80 293q0 159 111.5 250.5t312.5 91.5h227q10 0 10 10v53q0 90 -52.5 140.5t-158.5 50.5q-85 0 -137 -31t-67 -86q-9 -27 -35 -24l-148 18q-14 2 -21.5 9.5t-6.5 17.5q19 117 131.5 191.5t279.5 74.5q189 0 300.5 -96.5t111.5 -249.5v-682q0 -13 -9 -22t-22 -9h-135 q-14 0 -22.5 9t-8.5 22v57q0 6 -3.5 8t-8.5 -2q-116 -110 -307 -110q-149 0 -245.5 77t-96.5 232zM276 303q0 -75 54.5 -114t140.5 -39q109 0 189.5 57t80.5 145v119q0 10 -10 10h-190q-122 0 -193.5 -46.5t-71.5 -131.5z" />
<glyph unicode="b" horiz-adv-x="1120" d="M145 31v1372q0 13 8.5 22t22.5 9h135q13 0 22 -9t9 -22v-445q0 -4 1.5 -6t4.5 -1.5t6 3.5q91 105 238 105q151 0 251 -75.5t142 -211.5q31 -97 31 -248q0 -161 -37 -262q-44 -132 -142 -205t-245 -73q-149 0 -238 106q-4 4 -8 2t-4 -8v-53q0 -13 -9 -22t-22 -9h-135 q-14 0 -22.5 9t-8.5 22zM344 522q0 -170 49 -258q61 -110 178 -110q138 0 197 112q51 94 51 254q0 171 -65 271q-64 98 -183 98q-114 0 -174 -105q-53 -92 -53 -262z" />
<glyph unicode="c" horiz-adv-x="1077" d="M113 524q0 143 30 248q40 132 152 209.5t266 77.5t268.5 -78t149.5 -197q10 -25 14 -57q3 -30 -26 -33l-133 -18q-29 -3 -35 22l-6 27q-16 69 -80 116.5t-154 47.5q-89 0 -149.5 -47t-79.5 -125t-19 -195q0 -114 19 -192q21 -81 80.5 -128.5t148.5 -47.5q88 0 151.5 45.5 t82.5 117.5l2 9v2q2 9 12 18t22 8l134 -22q29 -6 26 -33q-2 -10 -10 -39q-35 -126 -149.5 -201t-268.5 -75q-155 0 -265.5 78.5t-152.5 213.5q-30 91 -30 248z" />
<glyph unicode="d" horiz-adv-x="1120" d="M104 524q0 151 31 248q42 136 142 211.5t251 75.5q147 0 238 -105q3 -3 6 -3.5t4.5 1.5t1.5 6v445q0 13 9 22t22 9h135q14 0 22.5 -9t8.5 -22v-1372q0 -13 -8.5 -22t-22.5 -9h-135q-13 0 -22 9t-9 22v53q0 6 -4 8t-8 -2q-89 -106 -238 -106q-147 0 -245 73t-142 205 q-37 101 -37 262zM301 520q0 -160 51 -254q59 -112 197 -112q117 0 178 110q49 88 49 258t-53 262q-60 105 -174 105q-118 0 -182 -98q-66 -101 -66 -271z" />
<glyph unicode="e" d="M115 526q0 151 22 228q37 141 147.5 223t268.5 82q194 0 296.5 -101t133.5 -294q11 -75 14 -185q0 -30 -30 -30h-648q-10 0 -10 -11q3 -72 15 -110q22 -81 90 -128.5t168 -47.5q166 3 237 129q16 29 41 12l84 -51q24 -15 12 -43q-56 -100 -156.5 -157.5t-236.5 -57.5 q-290 0 -397 249q-51 124 -51 293zM311 612q0 -10 11 -10h464q11 0 11 10q-3 63 -13 101q-21 80 -81 128t-150 48q-89 0 -145.5 -43.5t-77.5 -118.5q-16 -50 -19 -115z" />
<glyph unicode="f" horiz-adv-x="751" d="M63 893v119q0 13 8.5 21.5t22.5 8.5h125q10 0 10 11v34q0 198 75.5 272.5t277.5 74.5h59q13 0 22 -9t9 -22v-111q0 -13 -8.5 -21.5t-22.5 -8.5h-39q-102 0 -139 -39.5t-37 -147.5v-22q0 -11 10 -11h203q14 0 22.5 -8.5t8.5 -21.5v-119q0 -13 -9 -22t-22 -9h-203 q-10 0 -10 -10v-821q0 -13 -9 -22t-22 -9h-135q-14 0 -22.5 9t-8.5 22v821q0 10 -10 10h-125q-14 0 -22.5 9t-8.5 22z" />
<glyph unicode="g" horiz-adv-x="1112" d="M106 524q0 170 31 262q39 123 138.5 198t234.5 75q167 0 262 -101q4 -6 8 -3.5t4 8.5v49q0 13 8.5 21.5t22.5 8.5h135q14 0 22.5 -8.5t8.5 -21.5v-959q0 -113 -32.5 -198.5t-87.5 -137.5t-134.5 -82t-165.5 -38q-43 -4 -90 -4t-98 4q-29 0 -29 32l4 121q0 14 10 22t25 7 q39 -3 75 -3q157 0 233 52q93 62 93 231v35q0 4 -1.5 6t-4.5 1.5t-6 -3.5q-88 -98 -250 -98q-132 0 -240 69.5t-149 204.5q-27 94 -27 250zM305 526q0 -138 21 -192q21 -75 81 -123.5t146 -48.5q89 0 146 48.5t73 123.5q12 59 12 192q0 134 -14 191q-16 75 -73.5 123.5 t-143.5 48.5q-85 0 -142.5 -47.5t-82.5 -124.5q-23 -64 -23 -191z" />
<glyph unicode="h" horiz-adv-x="1110" d="M143 31v1372q0 13 8.5 22t22.5 9h135q13 0 22 -9t9 -22v-449q0 -6 3.5 -8t6.5 2q85 109 258 109q167 0 266 -97.5t99 -263.5v-665q0 -13 -8.5 -22t-22.5 -9h-135q-13 0 -22 9t-9 22v626q0 102 -59.5 166t-157.5 64q-89 0 -148.5 -52.5t-70.5 -140.5v-663q0 -13 -9 -22 t-22 -9h-135q-14 0 -22.5 9t-8.5 22z" />
<glyph unicode="i" horiz-adv-x="514" d="M123 1327q0 57 37.5 93t97.5 36t96.5 -36t36.5 -93t-36.5 -93t-96.5 -36t-97.5 36t-37.5 93zM160 31v981q0 14 8 22t22 8h136q14 0 22 -8t8 -22v-981q0 -14 -8.5 -22.5t-21.5 -8.5h-136q-13 0 -21.5 8.5t-8.5 22.5z" />
<glyph unicode="j" horiz-adv-x="491" d="M-90 -287q0 31 31 31q110 1 160.5 49t50.5 148v1071q0 14 8 22t22 8h135q14 0 22.5 -8.5t8.5 -21.5v-1069q0 -199 -92 -283t-315 -84q-31 0 -31 31v106zM117 1323q0 55 39 92t94 37q56 0 95.5 -37t39.5 -92q0 -56 -37 -92.5t-98 -36.5q-59 0 -96 36.5t-37 92.5z" />
<glyph unicode="k" horiz-adv-x="1048" d="M143 31v1372q0 13 8.5 22t22.5 9h135q13 0 22 -9t9 -22v-774q0 -6 4 -8t8 4l373 401q13 16 37 16h158q20 0 24 -10.5t-8 -25.5l-252 -293q-6 -6 -2 -15l305 -661q7 -17 1 -27t-23 -10h-144q-26 0 -35 23l-237 548q-2 5 -6.5 5.5t-7.5 -3.5l-191 -208q-4 -8 -4 -15v-319 q0 -13 -9 -22t-22 -9h-135q-14 0 -22.5 9t-8.5 22z" />
<glyph unicode="l" horiz-adv-x="487" d="M145 31v1372q0 13 8.5 22t22.5 9h135q13 0 22 -9t9 -22v-1372q0 -13 -9 -22t-22 -9h-135q-14 0 -22.5 9t-8.5 22z" />
<glyph unicode="m" horiz-adv-x="1691" d="M143 31v981q0 13 8.5 21.5t22.5 8.5h135q14 0 22.5 -8.5t8.5 -21.5v-56q0 -6 4 -8t8 2q91 107 260 107q207 0 293 -156q6 -9 15 0q93 156 307 156q156 0 246 -93t90 -259v-674q0 -13 -8.5 -22t-22.5 -9h-133q-13 0 -22 9t-9 22v633q0 102 -56.5 162.5t-150.5 60.5 q-95 0 -154 -59.5t-59 -159.5v-637q0 -14 -8.5 -22.5t-21.5 -8.5h-134q-13 0 -21.5 8.5t-8.5 22.5v633q0 102 -56.5 162.5t-150.5 60.5t-150.5 -59t-56.5 -160v-637q0 -13 -9 -22t-22 -9h-135q-14 0 -22.5 9t-8.5 22z" />
<glyph unicode="n" horiz-adv-x="1110" d="M143 31v981q0 13 8.5 21.5t22.5 8.5h135q14 0 22.5 -8.5t8.5 -21.5v-58q0 -6 3.5 -8t6.5 2q85 109 258 109q167 0 266 -97.5t99 -263.5v-665q0 -13 -8.5 -22t-22.5 -9h-135q-13 0 -22 9t-9 22v626q0 102 -59.5 166t-157.5 64q-89 0 -148.5 -52.5t-70.5 -140.5v-663 q0 -13 -9 -22t-22 -9h-135q-14 0 -22.5 9t-8.5 22z" />
<glyph unicode="o" horiz-adv-x="1136" d="M113 524q0 148 34 246q44 135 157 212t269 77q149 0 258.5 -76.5t155.5 -210.5q37 -104 37 -246q0 -145 -37 -252q-46 -136 -156.5 -213t-259.5 -77q-154 0 -265.5 77t-155.5 213q-37 109 -37 250zM311 522q0 -115 23 -192q25 -83 87 -129.5t150 -46.5q83 0 144.5 46.5 t87.5 129.5q22 77 22 192q0 116 -20 191q-26 84 -88.5 130t-149.5 46q-85 0 -146 -46.5t-87 -129.5q-23 -74 -23 -191z" />
<glyph unicode="p" horiz-adv-x="1130" d="M156 -360v1372q0 14 8 22t22 8h136q14 0 22 -8t8 -22v-54q0 -6 4 -8t9 2q90 107 237 107t245 -73.5t142 -205.5q37 -101 37 -262q0 -151 -31 -248q-42 -136 -141.5 -211t-251.5 -75q-147 0 -237 104q-5 5 -9 3.5t-4 -7.5v-444q0 -14 -8.5 -22.5t-21.5 -8.5h-136 q-13 0 -21.5 8.5t-8.5 22.5zM354 520q0 -168 54 -262q60 -104 174 -104q118 0 182 98q65 100 65 270q0 160 -51 254q-60 113 -196 113q-117 0 -179 -111q-49 -88 -49 -258z" />
<glyph unicode="q" horiz-adv-x="1130" d="M104 518q0 161 37 262q44 132 142 205.5t245 73.5q148 0 238 -107q4 -4 8 -2t4 8v54q0 13 8.5 21.5t22.5 8.5h135q14 0 22.5 -8.5t8.5 -21.5v-1372q0 -14 -8.5 -22.5t-22.5 -8.5h-135q-13 0 -22 8.5t-9 22.5v444q0 4 -1.5 6t-4.5 1.5t-6 -3.5q-90 -104 -238 -104 q-152 0 -251.5 75t-141.5 211q-31 97 -31 248zM301 522q0 -169 66 -270q64 -98 182 -98q114 0 174 104q53 92 53 262t-49 258q-62 111 -178 111q-137 0 -197 -113q-51 -94 -51 -254z" />
<glyph unicode="r" horiz-adv-x="759" d="M143 31v981q0 13 8.5 21.5t22.5 8.5h135q14 0 22.5 -8.5t8.5 -21.5v-94q0 -8 3.5 -9.5t6.5 4.5q92 140 250 140q59 0 111 -23q23 -11 16 -39l-29 -133q-3 -16 -12 -20t-24 2q-30 10 -68 10q-16 0 -33 -2q-96 -3 -158.5 -66t-62.5 -164v-587q0 -13 -9 -22t-22 -9h-135 q-14 0 -22.5 9t-8.5 22z" />
<glyph unicode="s" horiz-adv-x="999" d="M100 268v13q0 13 8.5 21.5t22.5 8.5h127q31 0 31 -14v-16q0 -57 62.5 -100.5t156.5 -43.5t151.5 40.5t57.5 101.5q0 26 -13 46.5t-29 34t-52 28t-58.5 21.5t-72.5 21q-67 18 -110.5 32.5t-100.5 42t-90.5 58.5t-57.5 80.5t-24 110.5q0 138 108 218.5t285 80.5 q179 0 289 -83t110 -212q0 -12 -8.5 -19.5t-22.5 -7.5h-122q-31 0 -31 14v13q0 59 -58.5 99t-158.5 40q-91 0 -147 -34.5t-56 -94.5q0 -26 12.5 -47t29.5 -35t50.5 -28.5t61 -23.5t75.5 -22q49 -13 77.5 -21.5t75 -25t74.5 -32t62 -40.5t53 -52.5t32 -66t13 -83.5 q0 -139 -109.5 -221t-293.5 -82q-183 0 -296.5 80.5t-113.5 199.5z" />
<glyph unicode="t" horiz-adv-x="755" d="M66 911v101q0 14 8 22t22 8h113q10 0 10 11v229q0 14 8.5 22.5t22.5 8.5h127q13 0 22 -8.5t9 -22.5v-229q0 -11 10 -11h209q13 0 21.5 -8t8.5 -22v-101q0 -13 -8.5 -21.5t-21.5 -8.5h-209q-10 0 -10 -11v-534q0 -88 38 -125t121 -37h49q14 0 22.5 -9t8.5 -22v-106 q0 -30 -31 -33q-14 0 -42 -1t-42 -1q-76 0 -129.5 11t-97 39t-65 80.5t-21.5 131.5v606q0 11 -10 11h-113q-14 0 -22 8.5t-8 21.5z" />
<glyph unicode="u" d="M129 324v688q0 13 8.5 21.5t22.5 8.5h133q14 0 22.5 -8.5t8.5 -21.5v-627q0 -106 56.5 -167.5t158.5 -61.5q103 0 164 62.5t61 166.5v627q0 13 8.5 21.5t22.5 8.5h133q14 0 22 -8t8 -22v-981q0 -14 -8.5 -22.5t-21.5 -8.5h-133q-13 0 -22 9t-9 22v61q0 4 -1.5 6t-4.5 1.5 t-6 -3.5q-81 -110 -250 -110q-100 0 -183 36.5t-136.5 115t-53.5 186.5z" />
<glyph unicode="v" horiz-adv-x="1005" d="M63 1008q-10 34 25 34h152q28 0 34 -26l224 -733q1 -5 3.5 -6.5t5 1t3.5 7.5l221 731q7 26 35 26l152 -2q34 0 24 -34l-326 -981q-8 -25 -34 -25h-156q-27 0 -35 25z" />
<glyph unicode="w" horiz-adv-x="1521" d="M61 1008q-4 17 3.5 25.5t23.5 8.5h139q27 0 33 -26l191 -731q1 -6 6 -6t6 6l194 729q7 26 33 26h127q27 0 33 -26l201 -731q1 -6 6 -6t6 6l199 733q6 26 32 26l140 -2q35 0 26 -34l-291 -979q-7 -27 -34 -27h-144q-29 0 -35 27l-196 678q-2 6 -6 6t-6 -6l-187 -678 q-7 -27 -33 -27h-145q-29 0 -35 27z" />
<glyph unicode="x" horiz-adv-x="1021" d="M60.5 10q-4.5 10 5.5 27l329 477q3 6 0 12l-329 480q-22 36 18 36h143q26 0 39 -20l232 -340q7 -10 14 0l231 340q13 20 39 20h156q40 0 18 -36l-329 -480q-3 -6 0 -12l329 -477q10 -17 5.5 -27t-23.5 -10h-145q-26 0 -39 20l-232 340q-7 10 -14 0l-232 -340 q-13 -20 -38 -20h-154q-19 0 -23.5 10z" />
<glyph unicode="y" horiz-adv-x="974" d="M51 1008q-10 34 25 34h143q27 0 35 -24l231 -737q1 -5 4 -7t5.5 0t3.5 7l223 735q7 26 35 26h143q35 0 25 -34l-367 -1080q-29 -85 -54 -138t-58 -95t-76.5 -63t-101 -31.5t-140.5 -10.5h-14q-15 0 -15 31v105q0 30 13 30h12q120 0 172 46t94 192q2 5 0 12z" />
<glyph unicode="z" horiz-adv-x="923" d="M61 31v127q0 19 15 37l534 655q3 4 1.5 8t-7.5 4h-502q-13 0 -21.5 8.5t-8.5 22.5v119q0 14 8 22t22 8h719q14 0 22.5 -8.5t8.5 -21.5v-127q0 -25 -14 -39l-543 -656q-3 -4 -1.5 -8t7.5 -4h522q13 0 22 -9t9 -22v-116q0 -13 -9 -22t-22 -9h-731q-14 0 -22.5 9t-8.5 22z " />
<glyph unicode="{" horiz-adv-x="673" d="M68 625v100q0 27 28 33q107 18 107 180v426q0 123 56.5 182.5t174.5 59.5h139q13 0 22 -9t9 -22v-111q0 -13 -8.5 -21.5t-22.5 -8.5h-59q-115 0 -115 -144v-372q0 -95 -25.5 -151.5t-80.5 -84.5q-9 -6 0 -12q55 -29 80.5 -86.5t25.5 -151.5v-383q0 -145 115 -145h59 q13 0 22 -9t9 -22v-109q0 -13 -8.5 -21.5t-22.5 -8.5h-139q-119 0 -175 58t-56 181v437q0 164 -107 182q-28 6 -28 33z" />
<glyph unicode="|" horiz-adv-x="366" d="M86 -133v1659q0 13 8.5 21.5t22.5 8.5h135q14 0 22.5 -8.5t8.5 -21.5v-1659q0 -13 -8.5 -22t-22.5 -9h-135q-13 0 -22 9t-9 22z" />
<glyph unicode="}" horiz-adv-x="673" d="M70 -127q0 14 8.5 22.5t21.5 8.5h60q114 0 114 145v383q0 182 107 238q9 6 0 12q-56 28 -81.5 84.5t-25.5 151.5v372q0 144 -114 144h-60q-14 0 -22 8t-8 22v111q0 14 8.5 22.5t21.5 8.5h140q118 0 174.5 -59.5t56.5 -182.5v-426q0 -162 107 -180q28 -6 28 -33v-100 q0 -27 -28 -33q-107 -18 -107 -182v-437q0 -123 -56 -181t-175 -58h-140q-14 0 -22 8t-8 22v109z" />
<glyph unicode="~" horiz-adv-x="1050" d="M82 580q34 74 105.5 118.5t156.5 44.5q86 0 176 -53q1 -1 26 -15t30 -16.5t26.5 -13t33 -13t30 -6t36.5 -3.5q40 0 68 18.5t57 54.5q18 21 43 6l82 -53q25 -18 13 -41q-38 -71 -104 -114t-146 -43q-40 0 -78.5 10.5t-62.5 22t-58 32.5q-99 55 -166 55q-87 0 -141 -71 q-21 -28 -43 -11l-72 48q-24 17 -12 43z" />
<glyph unicode="&#xa1;" horiz-adv-x="677" d="M186 1309q0 59 42 100t106 41q63 0 106 -41t43 -100q0 -58 -45 -100t-104 -42q-58 0 -103 42t-45 100zM240 53l18 897q0 14 9 22.5t22 8.5h100q13 0 22 -8.5t9 -22.5l16 -897q0 -13 -8 -21.5t-22 -8.5h-136q-14 0 -22 8.5t-8 21.5z" />
<glyph unicode="&#xa2;" horiz-adv-x="1077" d="M113 709q0 142 30 247q34 107 115 179.5t193 95.5q10 3 10 12l-4 135q0 31 28 31h109q13 0 21 -8.5t8 -22.5l-5 -127q0 -8 11 -12q130 -17 224.5 -91t125.5 -179q10 -25 14 -58q3 -29 -26 -32l-133 -19q-28 -3 -35 23l-6 26q-16 69 -80 116.5t-154 47.5q-89 0 -149.5 -47 t-79.5 -125t-19 -194q0 -115 19 -193q21 -81 80.5 -128.5t148.5 -47.5q88 0 151.5 46t82.5 118l2 8v2q2 9 12 18.5t22 8.5l134 -23q29 -6 26 -33q-2 -10 -10 -39q-32 -112 -126 -184.5t-224 -87.5q-11 -4 -11 -12l5 -127q0 -14 -8 -22.5t-21 -8.5h-109q-28 0 -28 31l4 135 q0 9 -10 12q-114 25 -194 98.5t-114 182.5q-30 91 -30 248z" />
<glyph unicode="&#xa3;" horiz-adv-x="1247" d="M168 647v98q0 13 9 22t22 9h139q10 0 10 10v246q0 192 110.5 302t301.5 116q151 6 253.5 -68t151.5 -213q10 -30 -22 -36l-125 -23q-26 -6 -39 23q-55 153 -211 147q-106 -3 -164.5 -64t-58.5 -180v-250q0 -10 10 -10h375q14 0 22.5 -9t8.5 -22v-98q0 -13 -8.5 -22 t-22.5 -9h-375q-10 0 -10 -10v-194q0 -143 -84 -230q-4 -4 -2 -8t8 -4h682q13 0 22 -9t9 -22v-108q0 -13 -9 -22t-22 -9h-887q-14 0 -22.5 9t-8.5 22v114q0 22 21 37q96 66 96 226v198q0 10 -10 10h-139q-13 0 -22 9t-9 22z" />
<glyph unicode="&#xa4;" horiz-adv-x="1105" d="M61 983q-22 22 2 43l80 70q21 22 43 0l121 -119q5 -5 15 -2q105 65 225 65q125 0 231 -69q9 -6 15 0l127 125q22 22 43 2l79 -72q22 -22 2 -43l-135 -133q-5 -5 -2 -14q62 -100 62 -218q0 -117 -66 -223q-3 -9 2 -14l127 -125q22 -22 -2 -43l-82 -72q-22 -21 -43 0 l-121 121q-5 5 -14 2q-100 -65 -223 -65t-215 59q-10 3 -15 -2l-116 -115q-23 -20 -43 0l-80 72q-22 23 -2 43l117 115q6 6 0 14q-72 109 -72 233q0 123 67 226q3 9 -2 14zM293 618q0 -103 75 -177t179 -74q103 0 177.5 73.5t74.5 177.5t-74.5 179t-177.5 75 q-104 0 -179 -75t-75 -179z" />
<glyph unicode="&#xa5;" horiz-adv-x="1406" d="M185 1423q7 11 24 11h145q26 0 37 -23l309 -588q6 -10 13 0l309 588q12 23 37 23h147q17 0 23 -11t-2 -26l-369 -692q-6 -13 8 -13h207q14 0 22.5 -8.5t8.5 -21.5v-54q0 -13 -8.5 -21.5t-22.5 -8.5h-258q-10 0 -10 -11v-141q0 -10 10 -10h258q13 0 22 -9t9 -22v-53 q0 -14 -9 -22.5t-22 -8.5h-258q-10 0 -10 -10v-258q0 -13 -8.5 -22t-22.5 -9h-135q-13 0 -22 9t-9 22v258q0 10 -10 10h-262q-14 0 -22.5 8.5t-8.5 22.5v53q0 13 8.5 22t22.5 9h262q10 0 10 10v141q0 11 -10 11h-262q-14 0 -22.5 8.5t-8.5 21.5v54q0 13 8.5 21.5t22.5 8.5 h211q15 0 8 13l-369 692q-8 15 -1 26z" />
<glyph unicode="&#xa6;" horiz-adv-x="366" d="M86 -133v678q0 13 8.5 21.5t22.5 8.5h135q14 0 22.5 -8.5t8.5 -21.5v-678q0 -13 -8.5 -22t-22.5 -9h-135q-13 0 -22 9t-9 22zM86 848v678q0 13 8.5 21.5t22.5 8.5h135q14 0 22.5 -8.5t8.5 -21.5v-678q0 -14 -8.5 -22.5t-22.5 -8.5h-135q-13 0 -22 8.5t-9 22.5z" />
<glyph unicode="&#xa7;" horiz-adv-x="964" d="M102 496q0 115 58 200q57 83 149 113q13 3 0 10q-85 39 -139.5 116.5t-54.5 178.5q0 138 105 236t267 98q159 0 261.5 -93.5t103.5 -242.5v-31q0 -13 -8.5 -21.5t-22.5 -8.5h-135q-13 0 -22 6.5t-9 15.5v21q0 81 -48 133.5t-122 52.5q-75 0 -124.5 -54t-49.5 -130 q0 -83 63.5 -132.5t180.5 -86.5q51 -18 81 -30t77 -40.5t78 -63.5q75 -82 75 -217q0 -114 -53 -200q-55 -93 -145 -117q-4 0 -6 -1.5t-1 -3.5t5 -3q192 -98 192 -293q0 -148 -107 -240t-272 -92q-163 0 -258 91t-98 247l-2 47q-3 31 29 31h135q13 0 21.5 -7t8.5 -18v-24 q2 -91 49 -145t125 -54q74 0 123.5 52.5t49.5 129.5q0 27 -7.5 50.5t-18 40.5t-31.5 34t-37 27t-47 23.5t-48.5 20t-54.5 19.5q-11 4 -17 6q-96 35 -154.5 71t-94.5 97q-50 76 -50 181zM299 504q0 -69 31 -111q56 -78 153 -78q109 0 156 78q31 48 31 117q0 81 -37 127 q-58 68 -148 68q-100 0 -157 -91q-29 -50 -29 -110z" />
<glyph unicode="&#xa8;" horiz-adv-x="694" d="M51 1321q0 49 33 81t84 32q49 0 80 -31.5t31 -81.5q0 -51 -31 -83t-80 -32q-51 0 -84 32t-33 83zM414 1321q0 50 31.5 81.5t82.5 31.5t82 -31.5t31 -81.5q0 -51 -31 -83t-82 -32t-82.5 32t-31.5 83z" />
<glyph unicode="&#xa9;" horiz-adv-x="1740" d="M129 719q0 155 56 290.5t153.5 232t235 152.5t294.5 56q159 0 297.5 -56t236.5 -152.5t154 -232t56 -290.5q0 -156 -56 -292.5t-154 -233.5t-236.5 -153t-297.5 -56q-210 0 -379 95t-264.5 263.5t-95.5 376.5zM248 719q0 -176 79.5 -318t221.5 -222.5t319 -80.5 q134 0 250 47.5t198.5 129.5t129.5 197t47 247q0 130 -47 244.5t-129.5 196t-198.5 128.5t-250 47q-177 0 -319 -80t-221.5 -221t-79.5 -315zM637 571v295q0 98 64.5 157.5t170.5 59.5t171 -57.5t65 -153.5q0 -8 -9 -13t-22 -5h-51q-31 0 -31 10v10q0 50 -34 80.5t-89 30.5 t-87.5 -30t-32.5 -81v-313q0 -50 32.5 -80t87.5 -30q54 0 88.5 30.5t34.5 79.5q0 9 9 15t22 6h51q31 0 31 -9v-10q0 -95 -65.5 -153t-170.5 -58q-106 0 -170.5 60t-64.5 159z" />
<glyph unicode="&#xaa;" horiz-adv-x="667" d="M39 528v72q0 14 8.5 22.5t22.5 8.5h505q13 0 22 -8.5t9 -22.5v-72q0 -13 -8.5 -21.5t-22.5 -8.5h-505q-14 0 -22.5 8.5t-8.5 21.5zM41 934q0 103 76 163t205 60h143q10 0 10 10v39q0 64 -39.5 105t-113.5 41q-52 0 -90 -21t-52 -57q-10 -28 -35 -25l-53 6q-32 4 -26 33 q15 71 86 116.5t170 45.5q123 0 195.5 -64t72.5 -165v-439q0 -13 -8.5 -21.5t-22.5 -8.5h-53q-14 0 -22.5 8.5t-8.5 21.5v23q0 6 -3.5 7.5t-8.5 -3.5q-67 -70 -193 -70q-103 0 -166 50t-63 145zM156 944q0 -110 135 -110q77 0 130.5 40t53.5 103v78q0 10 -10 10h-129 q-83 0 -131.5 -30t-48.5 -91z" />
<glyph unicode="&#xab;" horiz-adv-x="1083" d="M150 555q-15 21 0 41l225 317q13 19 37 19h131q19 0 25 -11t-5 -26l-225 -313q-3 -6 0 -13l225 -313q11 -15 5 -26t-25 -11h-131q-24 0 -37 19zM483 555q-15 21 0 41l226 317q13 19 36 19h132q19 0 25 -11t-5 -26l-225 -313q-3 -6 0 -13l225 -313q11 -15 5 -26t-25 -11 h-132q-23 0 -36 19z" />
<glyph unicode="&#xac;" horiz-adv-x="1013" d="M72 578v108q0 14 8.5 22.5t21.5 8.5h809q13 0 22 -8.5t9 -22.5v-348q0 -14 -9 -22.5t-22 -8.5h-110q-13 0 -22 8.5t-9 22.5v199q0 10 -10 10h-658q-13 0 -21.5 8.5t-8.5 22.5z" />
<glyph unicode="&#xad;" horiz-adv-x="819" d="M72 571v109q0 14 8.5 22.5t21.5 8.5h613q13 0 21.5 -8.5t8.5 -22.5v-109q0 -13 -8.5 -21.5t-21.5 -8.5h-613q-14 0 -22 8.5t-8 21.5z" />
<glyph unicode="&#xae;" horiz-adv-x="919" d="M51 1061q0 167 118 282t290 115q173 0 291 -115t118 -282q0 -175 -118 -292.5t-291 -117.5q-172 0 -290 118t-118 292zM141 1061q0 -138 92 -231t226 -93q135 0 228 93t93 231q0 131 -93 221t-228 90q-133 0 -225.5 -90t-92.5 -221zM348 901v309q0 14 9 22.5t22 8.5h104 q50 0 80.5 -31.5t30.5 -81.5q0 -66 -51 -94q-7 -3 -4 -12l45 -117q12 -35 -25 -35h-16q-27 0 -35 25l-45 119q-4 8 -10 8h-21q-10 0 -10 -10v-111q0 -13 -9 -22t-22 -9h-12q-13 0 -22 9t-9 22zM422 1087q0 -10 10 -10h41q22 0 34.5 13.5t12.5 35.5q0 25 -12.5 38.5 t-34.5 13.5h-41q-10 0 -10 -11v-80z" />
<glyph unicode="&#xaf;" horiz-adv-x="569" d="M0 1235v76q0 13 8.5 21.5t22.5 8.5h508q13 0 21.5 -8.5t8.5 -21.5v-76q0 -14 -8.5 -22.5t-21.5 -8.5h-508q-13 0 -22 9t-9 22z" />
<glyph unicode="&#xb0;" horiz-adv-x="776" d="M51 1321q0 139 98 236.5t238 97.5q142 0 240 -97t98 -237q0 -141 -98 -238.5t-240 -97.5q-140 0 -238 97.5t-98 238.5zM186 1321q0 -84 58.5 -142.5t142.5 -58.5q86 0 144.5 58t58.5 143q0 86 -58.5 144.5t-144.5 58.5q-84 0 -142.5 -58.5t-58.5 -144.5z" />
<glyph unicode="&#xb1;" horiz-adv-x="1013" d="M72 31v108q0 14 8.5 22.5t21.5 8.5h809q13 0 22 -9t9 -22v-108q0 -13 -9 -22t-22 -9h-809q-13 0 -21.5 8.5t-8.5 22.5zM72 698v109q0 14 8.5 22.5t21.5 8.5h310q10 0 10 10v315q0 13 9 22t22 9h108q13 0 22 -9t9 -22v-315q0 -10 10 -10h309q13 0 22 -9t9 -22v-109 q0 -13 -8.5 -21.5t-22.5 -8.5h-309q-10 0 -10 -11v-303q0 -13 -8.5 -21.5t-22.5 -8.5h-108q-14 0 -22.5 8.5t-8.5 21.5v303q0 11 -10 11h-310q-14 0 -22 8t-8 22z" />
<glyph unicode="&#xb2;" horiz-adv-x="679" d="M66 1503v37q4 98 78.5 157.5t187.5 59.5q121 0 193.5 -65.5t72.5 -165.5q0 -105 -106 -238q-57 -72 -234 -274q-5 -4 -3.5 -8.5t7.5 -4.5h328q14 0 22.5 -8.5t8.5 -21.5v-53q0 -14 -8.5 -22.5t-22.5 -8.5h-490q-13 0 -21.5 8.5t-8.5 22.5v61q0 22 14 39q140 152 268 301 q113 132 113 205q0 52 -36.5 84t-96.5 32q-59 0 -95 -32.5t-36 -87.5v-17q0 -13 -8.5 -21.5t-22.5 -8.5h-74q-14 0 -22 8.5t-8 21.5z" />
<glyph unicode="&#xb3;" horiz-adv-x="661" d="M66 1124q-3 31 28 31h74q30 0 33 -31q0 -21 8 -45q9 -40 42.5 -65t78.5 -25q77 0 108 64q25 45 25 106q0 71 -27 117q-30 61 -108 61q-21 0 -37 -8q-28 -11 -43 10l-31 39q-18 23 2 43l191 195q4 4 1.5 8t-8.5 4h-297q-13 0 -21.5 8.5t-8.5 22.5v53q0 14 8.5 22.5 t21.5 8.5h451q13 0 22 -8.5t9 -22.5v-61q0 -24 -15 -39l-167 -178q-4 -5 -2 -9t8 -6q104 -14 155 -114q29 -66 29 -150q0 -78 -29 -141q-30 -67 -91.5 -104.5t-145.5 -37.5q-90 0 -156 46.5t-94 125.5q-11 33 -14 80z" />
<glyph unicode="&#xb4;" horiz-adv-x="442" d="M69.5 1191q-5.5 11 2.5 26l108 200q12 23 37 23h127q18 0 24 -11t-3 -26l-132 -203q-11 -20 -36 -20h-105q-17 0 -22.5 11z" />
<glyph unicode="&#xb5;" horiz-adv-x="1122" d="M141 324v688q0 13 8.5 21.5t22.5 8.5h137q14 0 22.5 -8.5t8.5 -21.5v-674q0 -8 2 -12q14 -79 68.5 -124.5t140.5 -45.5q103 0 164 62.5t61 166.5v627q0 13 8.5 21.5t22.5 8.5h133q14 0 22.5 -8.5t8.5 -21.5v-981q0 -13 -8.5 -22t-22.5 -9h-133q-13 0 -22 9t-9 22v61 q0 4 -1.5 6t-4.5 1.5t-6 -3.5q-81 -110 -250 -110q-93 0 -162 28q-12 3 -12 -8v-385q0 -13 -9 -22t-22 -9h-135q-14 0 -22.5 9t-8.5 22v655v13q-2 10 -2 35z" />
<glyph unicode="&#xb6;" horiz-adv-x="1216" d="M66 973q0 199 131 330t338 131h491q14 0 22.5 -9t8.5 -22v-1782q0 -13 -8.5 -22t-22.5 -9h-86q-14 0 -22.5 9t-8.5 22v1659q0 10 -10 10h-237q-11 0 -11 -10v-1659q0 -14 -8.5 -22.5t-21.5 -8.5h-89q-13 0 -21.5 8.5t-8.5 22.5v881q0 10 -10 10q-186 14 -306 143 t-120 318z" />
<glyph unicode="&#xb7;" horiz-adv-x="296" d="M-27 143q0 57 45 98.5t103 41.5t103.5 -41.5t45.5 -98.5q0 -60 -43 -101.5t-106 -41.5q-64 0 -106 41t-42 102z" />
<glyph unicode="&#xb8;" horiz-adv-x="309" d="M4 -336l8 47q6 29 37 23q44 -10 78 5t43 54q17 81 -86 170q-17 15 -13.5 26t25.5 11h60q20 0 37 -14q140 -113 110 -246q-12 -49 -44 -79t-73.5 -38.5t-81 -7t-77.5 11.5q-26 6 -23 37z" />
<glyph unicode="&#xb9;" horiz-adv-x="385" d="M70 1642v37q0 28 24 37l56 23q16 8 38 8h82q14 0 22.5 -8.5t8.5 -22.5v-798q0 -14 -8.5 -22.5t-22.5 -8.5h-71q-13 0 -22 8.5t-9 22.5v696q0 5 -3 8t-7 2l-56 -10q-15 -3 -23.5 5t-8.5 23z" />
<glyph unicode="&#xba;" horiz-adv-x="733" d="M57 526v78q0 14 8.5 22.5t22.5 8.5h559q13 0 22 -8.5t9 -22.5v-78q0 -13 -8.5 -21.5t-22.5 -8.5h-559q-14 0 -22.5 8.5t-8.5 21.5zM76 1102q0 96 22 160q31 90 101 139t168 49q92 0 160 -49t100 -137q22 -62 22 -160q0 -97 -22 -162q-31 -90 -100 -140t-162 -50 q-94 0 -162.5 50t-102.5 140q-24 64 -24 160zM205 1102q0 -65 16 -127q13 -52 52 -82.5t92 -30.5q50 0 88 30.5t53 82.5q16 56 16 127q0 82 -14 125q-17 53 -55.5 82.5t-90.5 29.5q-50 0 -87 -29.5t-54 -82.5q-16 -50 -16 -125z" />
<glyph unicode="&#xbb;" horiz-adv-x="1083" d="M190 230q-6 11 5 26l225 313q3 7 0 13l-225 313q-11 15 -5 26t25 11h131q24 0 37 -19l225 -317q15 -20 0 -41l-225 -317q-13 -19 -37 -19h-131q-19 0 -25 11zM524 230q-6 11 4 26l226 313q3 7 0 13l-226 313q-10 15 -4 26t25 11h131q24 0 37 -19l225 -317q15 -20 0 -41 l-225 -317q-13 -19 -37 -19h-131q-19 0 -25 11z" />
<glyph unicode="&#xbc;" horiz-adv-x="1646" d="M70 1329v37q0 28 24 37l56 22q18 9 38 9h82q14 0 22.5 -9t8.5 -22v-799q0 -14 -8.5 -22.5t-22.5 -8.5h-71q-13 0 -22 8.5t-9 22.5v696q0 5 -3 8.5t-7 2.5l-56 -11q-15 -3 -23.5 5.5t-8.5 23.5zM220 11q-6 11 3 26l842 1376q12 21 37 21h80q18 0 23.5 -11t-3.5 -26 l-840 -1377q-11 -20 -36 -20h-82q-18 0 -24 11zM983 256v49q0 20 8 39l226 494q9 22 34 22h76q17 0 23.5 -10t-0.5 -27l-209 -465q-4 -12 6 -12h219q10 0 10 10v154q0 14 9 22.5t22 8.5h74q13 0 21.5 -8.5t8.5 -22.5v-154q0 -10 11 -10h28q14 0 22.5 -9t8.5 -22v-59 q0 -14 -8.5 -22.5t-22.5 -8.5h-28q-11 0 -11 -10v-184q0 -14 -8.5 -22.5t-21.5 -8.5h-74q-13 0 -22 9t-9 22v184q0 10 -10 10h-352q-14 0 -22.5 8.5t-8.5 22.5z" />
<glyph unicode="&#xbd;" horiz-adv-x="1613" d="M70 1329v37q0 28 24 37l56 22q18 9 38 9h82q14 0 22.5 -9t8.5 -22v-799q0 -14 -8.5 -22.5t-22.5 -8.5h-71q-13 0 -22 8.5t-9 22.5v696q0 5 -3 8.5t-7 2.5l-56 -11q-15 -3 -23.5 5.5t-8.5 23.5zM220 11q-6 11 3 26l842 1376q12 21 37 21h80q18 0 23.5 -11t-3.5 -26 l-840 -1377q-11 -20 -36 -20h-82q-18 0 -24 11zM999 616v37q4 97 79 157t188 60q121 0 193.5 -65.5t72.5 -165.5q0 -103 -107 -238q-68 -85 -233 -274q-3 -3 -3.5 -6t1.5 -4.5t6 -1.5h328q13 0 21.5 -8.5t8.5 -22.5v-53q0 -14 -8.5 -22.5t-21.5 -8.5h-490q-13 0 -21.5 8.5 t-8.5 22.5v61q0 22 14 39q140 152 268 301q113 132 113 205q0 53 -36.5 85t-96.5 32q-59 0 -95 -33t-36 -88v-17q0 -13 -8.5 -21.5t-22.5 -8.5h-74q-14 0 -22.5 8.5t-8.5 21.5z" />
<glyph unicode="&#xbe;" horiz-adv-x="1845" d="M66 825q-3 31 28 31h74q30 0 33 -31q0 -21 8 -45q9 -40 42.5 -65t78.5 -25q77 0 108 64q25 45 25 106q0 70 -27 117q-30 61 -108 61q-21 0 -37 -8q-28 -11 -43 10l-31 39q-18 23 2 43l191 195q4 5 1.5 8.5t-8.5 3.5h-297q-13 0 -21.5 8.5t-8.5 22.5v53q0 14 8.5 22.5 t21.5 8.5h451q13 0 22 -9t9 -22v-61q0 -24 -15 -39l-167 -178q-5 -4 -3 -9t9 -6q104 -14 155 -114q29 -66 29 -150q0 -78 -29 -141q-30 -67 -91.5 -104.5t-145.5 -37.5q-90 0 -156 46.5t-94 125.5q-11 33 -14 80zM418.5 11q-5.5 11 3.5 26l842 1376q12 21 36 21h80 q18 0 24 -11t-3 -26l-840 -1377q-11 -20 -37 -20h-82q-18 0 -23.5 11zM1182 256v49q0 20 8 39l225 494q9 22 35 22h76q17 0 23 -10t-1 -27l-209 -465q-4 -12 7 -12h219q10 0 10 10v154q0 14 8.5 22.5t22.5 8.5h73q13 0 22 -8.5t9 -22.5v-154q0 -10 10 -10h29q13 0 22 -9 t9 -22v-59q0 -14 -9 -22.5t-22 -8.5h-29q-10 0 -10 -10v-184q0 -13 -9 -22t-22 -9h-73q-14 0 -22.5 9t-8.5 22v184q0 10 -10 10h-353q-13 0 -21.5 8.5t-8.5 22.5z" />
<glyph unicode="&#xbf;" horiz-adv-x="987" d="M76 -55q0 69 19.5 127t50.5 96.5t69 71.5t76 60t69 53t50.5 59.5t19.5 72.5v82q0 13 9 22t22 9h137q14 0 22.5 -9t8.5 -22v-92q0 -64 -26.5 -116.5t-65.5 -86t-85.5 -70t-85.5 -67.5t-65.5 -79t-26.5 -105q0 -92 60.5 -146.5t159.5 -54.5q101 0 162 57t61 148v43 q0 13 8.5 21t22.5 8l135 -4q13 0 21.5 -9.5t8.5 -23.5v-35q0 -172 -117.5 -277.5t-308.5 -105.5q-186 0 -298.5 102t-112.5 271zM379 889q0 55 42 94t99 39q58 0 98.5 -38.5t40.5 -94.5q0 -55 -41 -94t-98 -39q-56 0 -98.5 39t-42.5 94z" />
<glyph unicode="&#xc0;" horiz-adv-x="1290" d="M72 35l442 1374q8 25 35 25h188q27 0 35 -25l447 -1374q5 -15 -1.5 -25t-23.5 -10h-147q-27 0 -35 25l-72 229q-4 8 -10 8h-572q-6 0 -10 -8l-72 -229q-8 -25 -34 -25h-146q-33 0 -24 35zM401 430q-3 -12 9 -12h469q11 0 8 12l-238 764q-1 5 -3.5 7t-5 0t-3.5 -7z M410.5 1820q5.5 11 23.5 11h127q25 0 37 -23l109 -200q8 -15 2 -26t-23 -11h-104q-26 0 -37 20l-131 203q-9 15 -3.5 26z" />
<glyph unicode="&#xc1;" horiz-adv-x="1290" d="M72 35l442 1374q8 25 35 25h188q27 0 35 -25l447 -1374q5 -15 -1.5 -25t-23.5 -10h-147q-27 0 -35 25l-72 229q-4 8 -10 8h-572q-6 0 -10 -8l-72 -229q-8 -25 -34 -25h-146q-33 0 -24 35zM401 430q-3 -12 9 -12h469q11 0 8 12l-238 764q-1 5 -3.5 7t-5 0t-3.5 -7z M544.5 1582q-5.5 11 2.5 26l108 200q11 23 37 23h127q18 0 24 -11t-3 -26l-131 -203q-11 -20 -37 -20h-105q-17 0 -22.5 11z" />
<glyph unicode="&#xc2;" horiz-adv-x="1290" d="M72 35l442 1374q8 25 35 25h188q27 0 35 -25l447 -1374q5 -15 -1.5 -25t-23.5 -10h-147q-27 0 -35 25l-72 229q-4 8 -10 8h-572q-6 0 -10 -8l-72 -229q-8 -25 -34 -25h-146q-33 0 -24 35zM373 1569.5q-5 10.5 6 25.5l151 205q14 19 37 19h142q22 0 36 -19l154 -205 q11 -15 6 -25.5t-24 -10.5h-93q-26 0 -38 18l-103 147q-7 10 -14 0l-105 -147q-12 -18 -36 -18h-95q-19 0 -24 10.5zM401 430q-3 -12 9 -12h469q11 0 8 12l-238 764q-1 5 -3.5 7t-5 0t-3.5 -7z" />
<glyph unicode="&#xc3;" horiz-adv-x="1290" d="M72 35l442 1374q8 25 35 25h188q27 0 35 -25l447 -1374q5 -15 -1.5 -25t-23.5 -10h-147q-27 0 -35 25l-72 229q-4 8 -10 8h-572q-6 0 -10 -8l-72 -229q-8 -25 -34 -25h-146q-33 0 -24 35zM375 1698q59 112 172 112q24 0 48 -7.5t39.5 -15.5t41.5 -24q63 -39 98 -39 q51 0 86 45q21 28 43 11l41 -29q24 -17 12 -43q-35 -59 -84 -89t-96 -30q-56 0 -129 51q-52 37 -88 37q-53 0 -88 -43q-18 -24 -43 -8l-43 29q-22 16 -10 43zM401 430q-3 -12 9 -12h469q11 0 8 12l-238 764q-1 5 -3.5 7t-5 0t-3.5 -7z" />
<glyph unicode="&#xc4;" horiz-adv-x="1290" d="M72 35l442 1374q8 25 35 25h188q27 0 35 -25l447 -1374q5 -15 -1.5 -25t-23.5 -10h-147q-27 0 -35 25l-72 229q-4 8 -10 8h-572q-6 0 -10 -8l-72 -229q-8 -25 -34 -25h-146q-33 0 -24 35zM346 1712q0 49 33 81t84 32q49 0 79.5 -31.5t30.5 -81.5q0 -51 -30.5 -83 t-79.5 -32q-51 0 -84 32t-33 83zM401 430q-3 -12 9 -12h469q11 0 8 12l-238 764q-1 5 -3.5 7t-5 0t-3.5 -7zM709 1712q0 50 31.5 81.5t82.5 31.5t82 -31.5t31 -81.5q0 -51 -31 -83t-82 -32t-82.5 32t-31.5 83z" />
<glyph unicode="&#xc5;" horiz-adv-x="1290" d="M72 35l442 1374q8 25 35 25h188q27 0 35 -25l447 -1374q5 -15 -1.5 -25t-23.5 -10h-147q-27 0 -35 25l-72 229q-4 8 -10 8h-572q-6 0 -10 -8l-72 -229q-8 -25 -34 -25h-146q-33 0 -24 35zM401 430q-3 -12 9 -12h469q11 0 8 12l-238 764q-1 5 -3.5 7t-5 0t-3.5 -7z M422 1767q0 90 63.5 152.5t155.5 62.5t155.5 -62.5t63.5 -152.5q0 -92 -63.5 -154.5t-155.5 -62.5t-155.5 62.5t-63.5 154.5zM522 1767q0 -51 34.5 -85.5t84.5 -34.5q51 0 86 34.5t35 85.5t-35 85t-86 34q-50 0 -84.5 -34t-34.5 -85z" />
<glyph unicode="&#xc6;" horiz-adv-x="1914" d="M76.5 11q-6.5 11 1.5 26l713 1374q11 23 36 23h953q13 0 21.5 -8.5t8.5 -22.5v-109q0 -14 -8 -22t-22 -8h-672q-10 0 -10 -11v-436q0 -10 10 -10h444q14 0 22.5 -8.5t8.5 -22.5v-108q0 -14 -8.5 -22.5t-22.5 -8.5h-444q-10 0 -10 -10v-447q0 -10 10 -10h672 q13 0 21.5 -8.5t8.5 -22.5v-108q0 -14 -8.5 -22.5t-21.5 -8.5h-848q-14 0 -22.5 9t-8.5 22v221q0 10 -10 10h-471q-9 0 -12 -8l-119 -231q-11 -23 -37 -23h-152q-17 0 -23.5 11zM498 430q-6 -12 8 -12h385q10 0 10 10v762q0 8 -4.5 8.5t-7.5 -6.5z" />
<glyph unicode="&#xc7;" horiz-adv-x="1243" d="M129 453v530q0 210 137.5 338.5t362.5 128.5q224 0 360.5 -124.5t136.5 -328.5v-10q0 -11 -30 -14l-135 -8q-31 -3 -31 12v12q0 131 -82.5 211t-218.5 80t-219.5 -80t-83.5 -211v-545q0 -131 83.5 -210.5t219.5 -79.5t218.5 79.5t82.5 210.5q0 11 8.5 17.5t22.5 5.5 l135 -8q30 -3 30 -10v-11q0 -195 -126 -319.5t-336 -136.5q-6 0 -7.5 -4t2.5 -9q115 -107 86 -225q-12 -49 -44 -79t-73.5 -38.5t-81 -7t-77.5 11.5q-26 6 -23 37l9 47q6 29 37 23q44 -10 77.5 5t42.5 54q22 91 -116 195q-2 2 -7 4t-6 2q-163 39 -258.5 160.5t-95.5 294.5z " />
<glyph unicode="&#xc8;" horiz-adv-x="1224" d="M168 31v1372q0 13 9 22t22 9h891q13 0 21.5 -8.5t8.5 -22.5v-109q0 -14 -8 -22t-22 -8h-715q-10 0 -10 -11v-436q0 -10 10 -10h487q14 0 22.5 -8.5t8.5 -22.5v-108q0 -14 -8.5 -22.5t-22.5 -8.5h-487q-10 0 -10 -10v-447q0 -10 10 -10h715q13 0 21.5 -8.5t8.5 -22.5v-108 q0 -14 -8.5 -22.5t-21.5 -8.5h-891q-13 0 -22 9t-9 22zM406.5 1842.5q5.5 10.5 23.5 10.5h127q26 0 37 -22l108 -201q8 -15 2.5 -26t-22.5 -11h-104q-25 0 -37 21l-131 203q-9 15 -3.5 25.5z" />
<glyph unicode="&#xc9;" horiz-adv-x="1224" d="M168 31v1372q0 13 9 22t22 9h891q13 0 21.5 -8.5t8.5 -22.5v-109q0 -14 -8 -22t-22 -8h-715q-10 0 -10 -11v-436q0 -10 10 -10h487q14 0 22.5 -8.5t8.5 -22.5v-108q0 -14 -8.5 -22.5t-22.5 -8.5h-487q-10 0 -10 -10v-447q0 -10 10 -10h715q13 0 21.5 -8.5t8.5 -22.5v-108 q0 -14 -8.5 -22.5t-21.5 -8.5h-891q-13 0 -22 9t-9 22zM540.5 1604q-5.5 11 2.5 26l108 201q11 22 37 22h127q19 0 24.5 -10.5t-3.5 -25.5l-131 -203q-12 -21 -37 -21h-105q-17 0 -22.5 11z" />
<glyph unicode="&#xca;" horiz-adv-x="1224" d="M168 31v1372q0 13 9 22t22 9h891q13 0 21.5 -8.5t8.5 -22.5v-109q0 -14 -8 -22t-22 -8h-715q-10 0 -10 -11v-436q0 -10 10 -10h487q14 0 22.5 -8.5t8.5 -22.5v-108q0 -14 -8.5 -22.5t-22.5 -8.5h-487q-10 0 -10 -10v-447q0 -10 10 -10h715q13 0 21.5 -8.5t8.5 -22.5v-108 q0 -14 -8.5 -22.5t-21.5 -8.5h-891q-13 0 -22 9t-9 22zM369 1592q-5 11 6 26l151 205q13 18 37 18h142q23 0 36 -18l154 -205q11 -15 6 -26t-24 -11h-93q-27 0 -39 18l-102 148q-7 10 -14 0l-105 -148q-12 -18 -37 -18h-94q-19 0 -24 11z" />
<glyph unicode="&#xcb;" horiz-adv-x="1224" d="M168 31v1372q0 13 9 22t22 9h891q13 0 21.5 -8.5t8.5 -22.5v-109q0 -14 -8 -22t-22 -8h-715q-10 0 -10 -11v-436q0 -10 10 -10h487q14 0 22.5 -8.5t8.5 -22.5v-108q0 -14 -8.5 -22.5t-22.5 -8.5h-487q-10 0 -10 -10v-447q0 -10 10 -10h715q13 0 21.5 -8.5t8.5 -22.5v-108 q0 -14 -8.5 -22.5t-21.5 -8.5h-891q-13 0 -22 9t-9 22zM342 1735q0 49 33 80.5t84 31.5q49 0 79.5 -31t30.5 -81q0 -51 -30.5 -83t-79.5 -32q-51 0 -84 32t-33 83zM705 1735q0 50 31.5 81t82.5 31t82 -31t31 -81q0 -51 -31 -83t-82 -32t-82.5 32t-31.5 83z" />
<glyph unicode="&#xcc;" horiz-adv-x="532" d="M35.5 1842.5q5.5 10.5 23.5 10.5h127q26 0 37 -22l109 -201q8 -15 2 -26t-23 -11h-104q-25 0 -37 21l-131 203q-9 15 -3.5 25.5zM168 31v1372q0 13 9 22t22 9h135q14 0 22.5 -9t8.5 -22v-1372q0 -13 -8.5 -22t-22.5 -9h-135q-13 0 -22 9t-9 22z" />
<glyph unicode="&#xcd;" horiz-adv-x="532" d="M168 31v1372q0 13 9 22t22 9h135q14 0 22.5 -9t8.5 -22v-1372q0 -13 -8.5 -22t-22.5 -9h-135q-13 0 -22 9t-9 22zM170 1604q-6 11 2 26l109 201q11 22 36 22h127q19 0 24.5 -10.5t-3.5 -25.5l-131 -203q-12 -21 -37 -21h-104q-17 0 -23 11z" />
<glyph unicode="&#xce;" horiz-adv-x="532" d="M-1.5 1592q-5.5 11 5.5 26l152 205q13 18 37 18h141q24 0 37 -18l153 -205q11 -15 6 -26t-24 -11h-92q-27 0 -39 18l-103 148q-7 10 -14 0l-104 -148q-12 -18 -37 -18h-94q-19 0 -24.5 11zM168 31v1372q0 13 9 22t22 9h135q14 0 22.5 -9t8.5 -22v-1372q0 -13 -8.5 -22 t-22.5 -9h-135q-13 0 -22 9t-9 22z" />
<glyph unicode="&#xcf;" horiz-adv-x="532" d="M-29 1735q0 49 33 80.5t84 31.5q49 0 80 -31t31 -81q0 -51 -31 -83t-80 -32q-51 0 -84 32t-33 83zM168 31v1372q0 13 9 22t22 9h135q14 0 22.5 -9t8.5 -22v-1372q0 -13 -8.5 -22t-22.5 -9h-135q-13 0 -22 9t-9 22zM334 1735q0 50 32 81t83 31t81.5 -31t30.5 -81 q0 -51 -30.5 -83t-81.5 -32t-83 32t-32 83z" />
<glyph unicode="&#xd0;" horiz-adv-x="1388" d="M168 705v77q0 14 9 22.5t22 8.5h82q10 0 10 10v580q0 13 8.5 22t22.5 9h485q214 0 340.5 -111t126.5 -299v-614q0 -188 -126.5 -299t-340.5 -111h-485q-14 0 -22.5 9t-8.5 22v633q0 10 -10 10h-82q-13 0 -22 9t-9 22zM487 180q0 -10 11 -10h317q120 0 190 72.5t72 195.5 v557q0 123 -70.5 196t-191.5 73h-317q-11 0 -11 -11v-430q0 -10 11 -10h204q14 0 22.5 -8.5t8.5 -22.5v-77q0 -13 -8.5 -22t-22.5 -9h-204q-11 0 -11 -10v-484z" />
<glyph unicode="&#xd1;" horiz-adv-x="1368" d="M168 31v1372q0 13 9 22t22 9h131q25 0 37 -21l626 -1014q2 -4 5 -5t5.5 1.5t2.5 7.5v1000q0 14 8.5 22.5t21.5 8.5h135q13 0 22 -9t9 -22v-1372q0 -13 -9 -22t-22 -9h-133q-26 0 -37 20l-626 1020q-2 4 -5 5t-5.5 -1.5t-2.5 -7.5l3 -1005q0 -13 -8.5 -22t-22.5 -9h-135 q-13 0 -22 9t-9 22zM410 1722q59 113 172 113q24 0 48 -7.5t39.5 -15.5t41.5 -24q63 -39 98 -39q51 0 86 45q20 27 43 10l41 -28q26 -18 2 -58q-33 -52 -79 -78t-91 -26q-56 0 -129 51q-52 37 -88 37q-53 0 -88 -43q-18 -24 -43 -8l-43 28q-22 16 -10 43z" />
<glyph unicode="&#xd2;" horiz-adv-x="1273" d="M129 473v488q0 220 139.5 354.5t366.5 134.5q229 0 368.5 -134.5t139.5 -354.5v-488q0 -221 -139.5 -356t-368.5 -135q-227 0 -366.5 135t-139.5 356zM326 465q0 -141 85.5 -227t223.5 -86q140 0 225.5 86t85.5 227v498q0 142 -85.5 229.5t-225.5 87.5 q-138 0 -223.5 -87.5t-85.5 -229.5v-498zM404.5 1836q5.5 11 23.5 11h127q26 0 37 -22l108 -201q8 -15 2.5 -26t-22.5 -11h-105q-24 0 -36 21l-131 202q-9 15 -3.5 26z" />
<glyph unicode="&#xd3;" horiz-adv-x="1273" d="M129 473v488q0 220 139.5 354.5t366.5 134.5q229 0 368.5 -134.5t139.5 -354.5v-488q0 -221 -139.5 -356t-368.5 -135q-227 0 -366.5 135t-139.5 356zM326 465q0 -141 85.5 -227t223.5 -86q140 0 225.5 86t85.5 227v498q0 142 -85.5 229.5t-225.5 87.5 q-138 0 -223.5 -87.5t-85.5 -229.5v-498zM538.5 1598q-5.5 11 2.5 26l108 201q11 22 37 22h127q18 0 24 -11t-3 -26l-132 -202q-12 -21 -36 -21h-105q-17 0 -22.5 11z" />
<glyph unicode="&#xd4;" horiz-adv-x="1273" d="M129 473v488q0 220 139.5 354.5t366.5 134.5q229 0 368.5 -134.5t139.5 -354.5v-488q0 -221 -139.5 -356t-368.5 -135q-227 0 -366.5 135t-139.5 356zM326 465q0 -141 85.5 -227t223.5 -86q140 0 225.5 86t85.5 227v498q0 142 -85.5 229.5t-225.5 87.5 q-138 0 -223.5 -87.5t-85.5 -229.5v-498zM367 1586q-5 11 6 26l151 205q13 18 37 18h141q24 0 37 -18l154 -205q11 -15 5.5 -26t-24.5 -11h-92q-27 0 -39 18l-102 148q-7 10 -14 0l-105 -148q-12 -18 -37 -18h-94q-19 0 -24 11z" />
<glyph unicode="&#xd5;" horiz-adv-x="1273" d="M129 473v488q0 220 139.5 354.5t366.5 134.5q229 0 368.5 -134.5t139.5 -354.5v-488q0 -221 -139.5 -356t-368.5 -135q-227 0 -366.5 135t-139.5 356zM326 465q0 -141 85.5 -227t223.5 -86q140 0 225.5 86t85.5 227v498q0 142 -85.5 229.5t-225.5 87.5 q-138 0 -223.5 -87.5t-85.5 -229.5v-498zM369 1714q59 113 172 113q24 0 48 -7.5t39.5 -15.5t41.5 -24q63 -39 98 -39q51 0 86 45q20 27 43 10l41 -29q25 -18 2 -57q-33 -52 -79 -78t-91 -26q-56 0 -129 51q-52 37 -88 37q-53 0 -88 -43q-18 -24 -43 -9l-43 29 q-22 16 -10 43z" />
<glyph unicode="&#xd6;" horiz-adv-x="1273" d="M129 473v488q0 220 139.5 354.5t366.5 134.5q229 0 368.5 -134.5t139.5 -354.5v-488q0 -221 -139.5 -356t-368.5 -135q-227 0 -366.5 135t-139.5 356zM326 465q0 -141 85.5 -227t223.5 -86q140 0 225.5 86t85.5 227v498q0 142 -85.5 229.5t-225.5 87.5 q-138 0 -223.5 -87.5t-85.5 -229.5v-498zM340 1729q0 49 33 80.5t84 31.5q49 0 79.5 -31t30.5 -81q0 -51 -30.5 -83t-79.5 -32q-51 0 -84 32t-33 83zM702 1729q0 50 32 81t83 31t82 -31t31 -81q0 -51 -31 -83t-82 -32t-83 32t-32 83z" />
<glyph unicode="&#xd7;" horiz-adv-x="880" d="M94 879q-22 23 0 45l76 75q22 23 45 0l221 -221q8 -8 17 0l217 217q22 23 45 0l76 -75q21 -22 -3 -46l-217 -217q-8 -8 0 -16l213 -213q22 -22 0 -45l-73 -74q-23 -23 -45 0l-213 213q-9 8 -17 0l-217 -217q-23 -23 -45 -2l-76 76q-22 23 0 45l217 217q8 8 0 16z" />
<glyph unicode="&#xd8;" horiz-adv-x="1290" d="M145 473v488q0 220 139.5 354.5t366.5 134.5q126 0 217 -39q10 -5 13 4l47 94q13 23 35 23h88q17 0 23 -10t-1 -27l-74 -149q-3 -10 2 -15q158 -136 158 -370v-488q0 -221 -139.5 -356t-368.5 -135q-163 0 -284 71q-3 3 -7.5 1.5t-5.5 -5.5l-59 -115q-13 -22 -35 -22h-86 q-17 0 -23 10t1 27l96 194q4 9 -2 15q-101 135 -101 315zM342 465q0 -52 10 -86q2 -7 6 -8t7 6l428 862q3 11 -7 14q-58 27 -135 27q-138 0 -223.5 -87.5t-85.5 -229.5v-498zM444 233q-3 -9 2 -14q83 -67 205 -67q140 0 226 86t86 227v498q0 102 -50 184q-6 12 -14 0z" />
<glyph unicode="&#xd9;" horiz-adv-x="1312" d="M154 455v948q0 14 8.5 22.5t21.5 8.5h135q13 0 22 -9t9 -22v-952q0 -132 84.5 -214.5t222.5 -82.5q136 0 221 82.5t85 214.5v952q0 14 8.5 22.5t21.5 8.5h135q14 0 22.5 -9t8.5 -22v-948q0 -212 -138 -341.5t-364 -129.5t-364.5 129.5t-138.5 341.5zM426.5 1844.5 q5.5 10.5 24.5 10.5h127q25 0 36 -22l109 -201q8 -15 2 -26t-23 -11h-104q-25 0 -37 21l-131 203q-9 15 -3.5 25.5z" />
<glyph unicode="&#xda;" horiz-adv-x="1312" d="M154 455v948q0 14 8.5 22.5t21.5 8.5h135q13 0 22 -9t9 -22v-952q0 -132 84.5 -214.5t222.5 -82.5q136 0 221 82.5t85 214.5v952q0 14 8.5 22.5t21.5 8.5h135q14 0 22.5 -9t8.5 -22v-948q0 -212 -138 -341.5t-364 -129.5t-364.5 129.5t-138.5 341.5zM561 1606q-6 11 2 26 l109 201q11 22 37 22h127q18 0 23.5 -10.5t-3.5 -25.5l-131 -203q-12 -21 -37 -21h-104q-17 0 -23 11z" />
<glyph unicode="&#xdb;" horiz-adv-x="1312" d="M154 455v948q0 14 8.5 22.5t21.5 8.5h135q13 0 22 -9t9 -22v-952q0 -132 84.5 -214.5t222.5 -82.5q136 0 221 82.5t85 214.5v952q0 14 8.5 22.5t21.5 8.5h135q14 0 22.5 -9t8.5 -22v-948q0 -212 -138 -341.5t-364 -129.5t-364.5 129.5t-138.5 341.5zM389.5 1594 q-5.5 11 5.5 26l152 205q13 18 37 18h141q24 0 37 -18l153 -205q11 -15 6 -26t-24 -11h-92q-26 0 -39 19l-102 147q-8 11 -15 0l-104 -147q-13 -19 -37 -19h-94q-19 0 -24.5 11z" />
<glyph unicode="&#xdc;" horiz-adv-x="1312" d="M154 455v948q0 14 8.5 22.5t21.5 8.5h135q13 0 22 -9t9 -22v-952q0 -132 84.5 -214.5t222.5 -82.5q136 0 221 82.5t85 214.5v952q0 14 8.5 22.5t21.5 8.5h135q14 0 22.5 -9t8.5 -22v-948q0 -212 -138 -341.5t-364 -129.5t-364.5 129.5t-138.5 341.5zM362 1737 q0 49 33 80.5t84 31.5q49 0 80 -31t31 -81q0 -51 -31 -83t-80 -32q-51 0 -84 32t-33 83zM725 1737q0 50 32 81t83 31t81.5 -31t30.5 -81q0 -51 -30.5 -83t-81.5 -32t-83 32t-32 83z" />
<glyph unicode="&#xdd;" horiz-adv-x="1198" d="M76.5 1423q6.5 11 23.5 11h146q26 0 37 -23l309 -588q6 -9 12 0l309 588q11 23 37 23h148q17 0 22.5 -11t-2.5 -26l-418 -787q-4 -8 -4 -12v-565q0 -14 -8.5 -22.5t-21.5 -8.5h-136q-13 0 -21.5 8.5t-8.5 22.5v565q0 4 -4 12l-418 787q-8 15 -1.5 26zM501.5 1580 q-5.5 11 2.5 26l108 200q12 23 37 23h127q18 0 24 -11t-3 -26l-131 -203q-11 -20 -37 -20h-105q-17 0 -22.5 11z" />
<glyph unicode="&#xde;" horiz-adv-x="1171" d="M156 31v1372q0 14 8.5 22.5t21.5 8.5h136q13 0 21.5 -8.5t8.5 -22.5v-266q0 -11 10 -11h324q189 0 304.5 -114t115.5 -297q0 -182 -120.5 -295t-307.5 -113h-316q-10 0 -10 -10v-266q0 -14 -8.5 -22.5t-21.5 -8.5h-136q-13 0 -21.5 8.5t-8.5 22.5zM352 479q0 -10 10 -10 h297q113 0 181.5 65t68.5 177q0 113 -68 178t-182 65h-297q-10 0 -10 -10v-465z" />
<glyph unicode="&#xdf;" horiz-adv-x="1222" d="M145 31v995q0 198 125 312t334 114q225 0 352.5 -101.5t130.5 -283.5q2 -102 -40.5 -177.5t-124.5 -113.5q-12 -6 0 -12q85 -42 134.5 -135.5t49.5 -220.5q0 -194 -132.5 -301t-391.5 -107h-109q-13 0 -22 9t-9 22v106q0 13 9 22t22 9h135q149 0 225 67.5t76 190.5 q0 125 -68.5 192t-201.5 70h-127q-14 0 -22.5 9t-8.5 22v94q0 13 8.5 22t22.5 9h133q121 0 185 59t61 160q-3 102 -70.5 160.5t-202.5 58.5q-115 0 -195.5 -64t-80.5 -176v-1011q0 -13 -9 -22t-22 -9h-135q-14 0 -22.5 9t-8.5 22z" />
<glyph unicode="&#xe0;" horiz-adv-x="1058" d="M80 293q0 159 111.5 250.5t312.5 91.5h227q10 0 10 10v53q0 90 -52.5 140.5t-158.5 50.5q-85 0 -137 -31t-67 -86q-9 -27 -35 -24l-148 18q-14 2 -21.5 9.5t-6.5 17.5q19 117 131.5 191.5t279.5 74.5q189 0 300.5 -96.5t111.5 -249.5v-682q0 -13 -9 -22t-22 -9h-135 q-14 0 -22.5 9t-8.5 22v57q0 6 -3.5 8t-8.5 -2q-116 -110 -307 -110q-149 0 -245.5 77t-96.5 232zM276 303q0 -75 54.5 -114t140.5 -39q109 0 189.5 57t80.5 145v119q0 10 -10 10h-190q-122 0 -193.5 -46.5t-71.5 -131.5zM295.5 1445q5.5 11 23.5 11h127q26 0 37 -22 l109 -201q8 -15 2 -26t-23 -11h-104q-25 0 -37 21l-131 202q-9 15 -3.5 26z" />
<glyph unicode="&#xe1;" horiz-adv-x="1058" d="M80 293q0 159 111.5 250.5t312.5 91.5h227q10 0 10 10v53q0 90 -52.5 140.5t-158.5 50.5q-85 0 -137 -31t-67 -86q-9 -27 -35 -24l-148 18q-14 2 -21.5 9.5t-6.5 17.5q19 117 131.5 191.5t279.5 74.5q189 0 300.5 -96.5t111.5 -249.5v-682q0 -13 -9 -22t-22 -9h-135 q-14 0 -22.5 9t-8.5 22v57q0 6 -3.5 8t-8.5 -2q-116 -110 -307 -110q-149 0 -245.5 77t-96.5 232zM276 303q0 -75 54.5 -114t140.5 -39q109 0 189.5 57t80.5 145v119q0 10 -10 10h-190q-122 0 -193.5 -46.5t-71.5 -131.5zM430 1207q-6 11 2 26l109 201q11 22 37 22h127 q18 0 23.5 -11t-3.5 -26l-131 -202q-12 -21 -37 -21h-104q-17 0 -23 11z" />
<glyph unicode="&#xe2;" horiz-adv-x="1058" d="M80 293q0 159 111.5 250.5t312.5 91.5h227q10 0 10 10v53q0 90 -52.5 140.5t-158.5 50.5q-85 0 -137 -31t-67 -86q-9 -27 -35 -24l-148 18q-14 2 -21.5 9.5t-6.5 17.5q19 117 131.5 191.5t279.5 74.5q189 0 300.5 -96.5t111.5 -249.5v-682q0 -13 -9 -22t-22 -9h-135 q-14 0 -22.5 9t-8.5 22v57q0 6 -3.5 8t-8.5 -2q-116 -110 -307 -110q-149 0 -245.5 77t-96.5 232zM258.5 1195q-5.5 11 5.5 26l152 204q14 19 37 19h141q23 0 37 -19l153 -204q11 -15 6 -26t-24 -11h-92q-27 0 -39 18l-103 148q-7 10 -14 0l-104 -148q-12 -18 -37 -18h-94 q-19 0 -24.5 11zM276 303q0 -75 54.5 -114t140.5 -39q109 0 189.5 57t80.5 145v119q0 10 -10 10h-190q-122 0 -193.5 -46.5t-71.5 -131.5z" />
<glyph unicode="&#xe3;" horiz-adv-x="1058" d="M80 293q0 159 111.5 250.5t312.5 91.5h227q10 0 10 10v53q0 90 -52.5 140.5t-158.5 50.5q-85 0 -137 -31t-67 -86q-9 -27 -35 -24l-148 18q-14 2 -21.5 9.5t-6.5 17.5q19 117 131.5 191.5t279.5 74.5q189 0 300.5 -96.5t111.5 -249.5v-682q0 -13 -9 -22t-22 -9h-135 q-14 0 -22.5 9t-8.5 22v57q0 6 -3.5 8t-8.5 -2q-116 -110 -307 -110q-149 0 -245.5 77t-96.5 232zM260 1323q59 113 172 113q24 0 48 -7.5t39.5 -15.5t41.5 -24q63 -39 98 -39q51 0 86 45q20 27 43 10l41 -29q24 -17 13 -43q-35 -59 -84 -89t-96 -30q-55 0 -130 52 q-52 37 -88 37q-53 0 -88 -43q-18 -24 -43 -9l-43 29q-22 16 -10 43zM276 303q0 -75 54.5 -114t140.5 -39q109 0 189.5 57t80.5 145v119q0 10 -10 10h-190q-122 0 -193.5 -46.5t-71.5 -131.5z" />
<glyph unicode="&#xe4;" horiz-adv-x="1058" d="M80 293q0 159 111.5 250.5t312.5 91.5h227q10 0 10 10v53q0 90 -52.5 140.5t-158.5 50.5q-85 0 -137 -31t-67 -86q-9 -27 -35 -24l-148 18q-14 2 -21.5 9.5t-6.5 17.5q19 117 131.5 191.5t279.5 74.5q189 0 300.5 -96.5t111.5 -249.5v-682q0 -13 -9 -22t-22 -9h-135 q-14 0 -22.5 9t-8.5 22v57q0 6 -3.5 8t-8.5 -2q-116 -110 -307 -110q-149 0 -245.5 77t-96.5 232zM231 1337q0 49 33 81t84 32q49 0 80 -31.5t31 -81.5q0 -51 -30.5 -82.5t-80.5 -31.5q-51 0 -84 31.5t-33 82.5zM276 303q0 -75 54.5 -114t140.5 -39q109 0 189.5 57t80.5 145 v119q0 10 -10 10h-190q-122 0 -193.5 -46.5t-71.5 -131.5zM594 1337q0 50 32 81.5t83 31.5t81.5 -31.5t30.5 -81.5q0 -51 -30.5 -82.5t-81.5 -31.5t-83 31.5t-32 82.5z" />
<glyph unicode="&#xe5;" horiz-adv-x="1058" d="M80 293q0 159 111.5 250.5t312.5 91.5h227q10 0 10 10v53q0 90 -52.5 140.5t-158.5 50.5q-85 0 -137 -31t-67 -86q-9 -27 -35 -24l-148 18q-14 2 -21.5 9.5t-6.5 17.5q19 117 131.5 191.5t279.5 74.5q189 0 300.5 -96.5t111.5 -249.5v-682q0 -13 -9 -22t-22 -9h-135 q-14 0 -22.5 9t-8.5 22v57q0 6 -3.5 8t-8.5 -2q-116 -110 -307 -110q-149 0 -245.5 77t-96.5 232zM276 303q0 -75 54.5 -114t140.5 -39q109 0 189.5 57t80.5 145v119q0 10 -10 10h-190q-122 0 -193.5 -46.5t-71.5 -131.5zM307 1393q0 90 63.5 152.5t155.5 62.5t155.5 -62.5 t63.5 -152.5q0 -92 -63.5 -154.5t-155.5 -62.5t-155.5 62.5t-63.5 154.5zM408 1393q0 -51 34 -86t84 -35q51 0 86 35t35 86t-35 84.5t-86 33.5q-50 0 -84 -33.5t-34 -84.5z" />
<glyph unicode="&#xe6;" horiz-adv-x="1710" d="M80 276q0 153 111.5 243.5t312.5 90.5h227q10 0 10 11v63q0 93 -55 149t-164 56q-79 0 -134.5 -31.5t-72.5 -85.5q-9 -27 -34 -24l-138 18q-32 4 -26 35q20 113 132 185.5t267 72.5q114 0 204 -49t128 -119q6 -9 12 0q41 66 128.5 117t189.5 51q141 0 253 -79t150 -212 q23 -87 23 -291q0 -33 -31 -33h-621q-10 0 -10 -10q0 -4 4 -78q7 -92 79.5 -140t182.5 -48q160 0 230 119q16 29 41 12l86 -55q26 -18 12 -43q-46 -92 -151 -154.5t-244 -62.5q-111 0 -200.5 44t-133.5 115q-6 9 -10 2q-51 -75 -152.5 -118t-228.5 -43q-80 0 -146 16 t-119 49.5t-82.5 91.5t-29.5 135zM276 291q0 -70 55.5 -111t147.5 -41q107 0 184.5 53.5t77.5 153.5v88q0 10 -10 10h-192q-123 0 -193 -38t-70 -115zM940 621q0 -11 10 -11h449q10 0 10 11q-4 69 -10 92q-18 77 -78 126.5t-147 49.5q-86 0 -146 -49t-78 -127 q-7 -28 -10 -92z" />
<glyph unicode="&#xe7;" horiz-adv-x="1077" d="M113 524q0 143 30 248q40 132 152 209.5t266 77.5t268.5 -78t149.5 -197q10 -25 14 -57q3 -30 -26 -33l-133 -18q-29 -3 -35 22l-6 27q-16 69 -80 116.5t-154 47.5q-89 0 -149.5 -47t-79.5 -125t-19 -195q0 -114 19 -192q21 -81 80.5 -128.5t148.5 -47.5q88 0 151.5 45.5 t82.5 117.5l2 9v2q2 9 12 18t22 8l134 -22q29 -6 26 -33q-2 -10 -10 -39q-30 -109 -123.5 -182t-222.5 -90q-14 -3 -4 -13q119 -110 90 -229q-12 -49 -44 -79t-73.5 -38.5t-81.5 -7t-78 11.5q-25 6 -22 37l8 47q6 29 37 23q44 -10 78 5t43 54q10 44 -19.5 93t-87.5 94l-12 6 q-120 22 -204 96t-120 188q-30 91 -30 248z" />
<glyph unicode="&#xe8;" d="M115 526q0 151 22 228q37 141 147.5 223t268.5 82q194 0 296.5 -101t133.5 -294q11 -75 14 -185q0 -30 -30 -30h-648q-10 0 -10 -11q3 -72 15 -110q22 -81 90 -128.5t168 -47.5q166 3 237 129q16 29 41 12l84 -51q24 -15 12 -43q-56 -100 -156.5 -157.5t-236.5 -57.5 q-290 0 -397 249q-51 124 -51 293zM311 612q0 -10 11 -10h464q11 0 11 10q-3 63 -13 101q-21 80 -81 128t-150 48q-89 0 -145.5 -43.5t-77.5 -118.5q-16 -50 -19 -115zM320.5 1445q5.5 11 23.5 11h127q26 0 37 -22l108 -201q8 -15 2.5 -26t-22.5 -11h-104q-25 0 -37 21 l-131 202q-9 15 -3.5 26z" />
<glyph unicode="&#xe9;" d="M115 526q0 151 22 228q37 141 147.5 223t268.5 82q194 0 296.5 -101t133.5 -294q11 -75 14 -185q0 -30 -30 -30h-648q-10 0 -10 -11q3 -72 15 -110q22 -81 90 -128.5t168 -47.5q166 3 237 129q16 29 41 12l84 -51q24 -15 12 -43q-56 -100 -156.5 -157.5t-236.5 -57.5 q-290 0 -397 249q-51 124 -51 293zM311 612q0 -10 11 -10h464q11 0 11 10q-3 63 -13 101q-21 80 -81 128t-150 48q-89 0 -145.5 -43.5t-77.5 -118.5q-16 -50 -19 -115zM454.5 1207q-5.5 11 2.5 26l108 201q11 22 37 22h127q18 0 24 -11t-3 -26l-132 -202q-12 -21 -36 -21 h-105q-17 0 -22.5 11z" />
<glyph unicode="&#xea;" d="M115 526q0 151 22 228q37 141 147.5 223t268.5 82q194 0 296.5 -101t133.5 -294q11 -75 14 -185q0 -30 -30 -30h-648q-10 0 -10 -11q3 -72 15 -110q22 -81 90 -128.5t168 -47.5q166 3 237 129q16 29 41 12l84 -51q24 -15 12 -43q-56 -100 -156.5 -157.5t-236.5 -57.5 q-290 0 -397 249q-51 124 -51 293zM283 1195q-5 11 6 26l151 204q14 19 37 19h141q23 0 37 -19l154 -204q11 -15 6 -26t-24 -11h-93q-27 0 -39 18l-102 148q-7 10 -14 0l-105 -148q-12 -18 -37 -18h-94q-19 0 -24 11zM311 612q0 -10 11 -10h464q11 0 11 10q-3 63 -13 101 q-21 80 -81 128t-150 48q-89 0 -145.5 -43.5t-77.5 -118.5q-16 -50 -19 -115z" />
<glyph unicode="&#xeb;" d="M115 526q0 151 22 228q37 141 147.5 223t268.5 82q194 0 296.5 -101t133.5 -294q11 -75 14 -185q0 -30 -30 -30h-648q-10 0 -10 -11q3 -72 15 -110q22 -81 90 -128.5t168 -47.5q166 3 237 129q16 29 41 12l84 -51q24 -15 12 -43q-56 -100 -156.5 -157.5t-236.5 -57.5 q-290 0 -397 249q-51 124 -51 293zM256 1337q0 49 33 81t84 32q49 0 79.5 -31.5t30.5 -81.5q0 -51 -30.5 -82.5t-79.5 -31.5q-51 0 -84 31.5t-33 82.5zM311 612q0 -10 11 -10h464q11 0 11 10q-3 63 -13 101q-21 80 -81 128t-150 48q-89 0 -145.5 -43.5t-77.5 -118.5 q-16 -50 -19 -115zM618 1337q0 50 32 81.5t83 31.5t82 -31.5t31 -81.5q0 -51 -31 -82.5t-82 -31.5t-83 31.5t-32 82.5z" />
<glyph unicode="&#xec;" horiz-adv-x="466" d="M-3.5 1449q5.5 11 23.5 11h127q26 0 37 -22l109 -201q8 -15 2 -26t-23 -11h-104q-25 0 -37 21l-131 202q-9 15 -3.5 26zM133 31v981q0 13 8.5 21.5t22.5 8.5h135q14 0 22.5 -8.5t8.5 -21.5v-981q0 -13 -9 -22t-22 -9h-135q-14 0 -22.5 9t-8.5 22z" />
<glyph unicode="&#xed;" horiz-adv-x="466" d="M131 1211q-6 11 2 26l109 201q11 22 37 22h127q18 0 23.5 -11t-3.5 -26l-131 -202q-12 -21 -37 -21h-104q-17 0 -23 11zM133 31v981q0 13 8.5 21.5t22.5 8.5h135q14 0 22.5 -8.5t8.5 -21.5v-981q0 -13 -9 -22t-22 -9h-135q-14 0 -22.5 9t-8.5 22z" />
<glyph unicode="&#xee;" horiz-adv-x="466" d="M-40.5 1199q-5.5 11 5.5 26l152 205q13 18 37 18h141q24 0 37 -18l153 -205q11 -15 6 -26t-24 -11h-92q-27 0 -39 18l-103 148q-7 10 -14 0l-104 -148q-12 -18 -37 -18h-94q-19 0 -24.5 11zM133 31v981q0 13 8.5 21.5t22.5 8.5h135q14 0 22.5 -8.5t8.5 -21.5v-981 q0 -13 -9 -22t-22 -9h-135q-14 0 -22.5 9t-8.5 22z" />
<glyph unicode="&#xef;" horiz-adv-x="573" d="M-12 1341q0 50 32.5 81.5t83.5 31.5q49 0 80 -31.5t31 -81.5q0 -51 -30.5 -82.5t-80.5 -31.5q-51 0 -83.5 31.5t-32.5 82.5zM190 31v981q0 13 8.5 21.5t22.5 8.5h135q14 0 22.5 -8.5t8.5 -21.5v-981q0 -13 -8.5 -22t-22.5 -9h-135q-13 0 -22 9t-9 22zM350 1341 q0 50 32 81.5t83 31.5t82 -31.5t31 -81.5q0 -51 -31 -82.5t-82 -31.5t-83 31.5t-32 82.5z" />
<glyph unicode="&#xf0;" horiz-adv-x="1089" d="M100 492q0 159 27 233q27 92 96.5 154t167.5 77q69 17 165 9t151 -43q6 -4 8.5 -2t-0.5 8q-36 98 -117 211q-4 8 -12 4l-187 -53q-13 -4 -24.5 2t-14.5 20l-12 49q-6 28 21 37l135 39q12 4 2 14q-46 50 -146 146q-15 13 -10 25t25 12h141q23 0 37 -17q78 -82 117 -125 q7 -7 14 -4l156 45q14 5 25 -1t14 -21l12 -51q6 -28 -21 -37l-102 -29q-5 -2 -7 -5.5t1 -6.5q160 -202 186 -447q19 -98 19 -243q0 -160 -25 -234q-40 -124 -150 -199t-260 -75q-148 0 -255.5 74.5t-149.5 199.5q-27 77 -27 234zM299 487q0 -130 16 -182q19 -77 76.5 -123.5 t140.5 -46.5t142 46.5t80 123.5q14 55 14 182q0 125 -14 177q-21 78 -79.5 124t-142.5 46t-142 -46t-77 -124q-14 -46 -14 -177z" />
<glyph unicode="&#xf1;" horiz-adv-x="1110" d="M143 31v981q0 13 8.5 21.5t22.5 8.5h135q14 0 22.5 -8.5t8.5 -21.5v-58q0 -6 3.5 -8t6.5 2q85 109 258 109q167 0 266 -97.5t99 -263.5v-665q0 -13 -8.5 -22t-22.5 -9h-135q-13 0 -22 9t-9 22v626q0 102 -59.5 166t-157.5 64q-89 0 -148.5 -52.5t-70.5 -140.5v-663 q0 -13 -9 -22t-22 -9h-135q-14 0 -22.5 9t-8.5 22zM295 1307q59 112 172 112q24 0 48 -7.5t39.5 -15.5t41.5 -24q63 -39 98 -39q51 0 86 45q21 28 43 11l41 -29q24 -17 13 -43q-34 -59 -84 -89t-97 -30q-56 0 -129 51q-52 37 -88 37q-53 0 -88 -43q-18 -24 -43 -8l-43 29 q-22 16 -10 43z" />
<glyph unicode="&#xf2;" horiz-adv-x="1136" d="M113 524q0 148 34 246q44 135 157 212t269 77q149 0 258.5 -76.5t155.5 -210.5q37 -104 37 -246q0 -145 -37 -252q-46 -136 -156.5 -213t-259.5 -77q-154 0 -265.5 77t-155.5 213q-37 109 -37 250zM311 522q0 -115 23 -192q25 -83 87 -129.5t150 -46.5q83 0 144.5 46.5 t87.5 129.5q22 77 22 192q0 116 -20 191q-26 84 -88.5 130t-149.5 46q-85 0 -146 -46.5t-87 -129.5q-23 -74 -23 -191zM336.5 1445q5.5 11 23.5 11h127q26 0 37 -22l109 -201q8 -15 2 -26t-23 -11h-104q-25 0 -37 21l-131 202q-9 15 -3.5 26z" />
<glyph unicode="&#xf3;" horiz-adv-x="1136" d="M113 524q0 148 34 246q44 135 157 212t269 77q149 0 258.5 -76.5t155.5 -210.5q37 -104 37 -246q0 -145 -37 -252q-46 -136 -156.5 -213t-259.5 -77q-154 0 -265.5 77t-155.5 213q-37 109 -37 250zM311 522q0 -115 23 -192q25 -83 87 -129.5t150 -46.5q83 0 144.5 46.5 t87.5 129.5q22 77 22 192q0 116 -20 191q-26 84 -88.5 130t-149.5 46q-85 0 -146 -46.5t-87 -129.5q-23 -74 -23 -191zM471 1207q-6 11 2 26l109 201q11 22 36 22h127q18 0 24 -11t-3 -26l-131 -202q-12 -21 -37 -21h-104q-17 0 -23 11z" />
<glyph unicode="&#xf4;" horiz-adv-x="1136" d="M113 524q0 148 34 246q44 135 157 212t269 77q149 0 258.5 -76.5t155.5 -210.5q37 -104 37 -246q0 -145 -37 -252q-46 -136 -156.5 -213t-259.5 -77q-154 0 -265.5 77t-155.5 213q-37 109 -37 250zM299.5 1195q-5.5 11 5.5 26l152 204q14 19 37 19h141q23 0 37 -19 l153 -204q11 -15 6 -26t-24 -11h-92q-27 0 -39 18l-103 148q-7 10 -14 0l-104 -148q-12 -18 -37 -18h-94q-19 0 -24.5 11zM311 522q0 -115 23 -192q25 -83 87 -129.5t150 -46.5q83 0 144.5 46.5t87.5 129.5q22 77 22 192q0 116 -20 191q-26 84 -88.5 130t-149.5 46 q-85 0 -146 -46.5t-87 -129.5q-23 -74 -23 -191z" />
<glyph unicode="&#xf5;" horiz-adv-x="1136" d="M113 524q0 148 34 246q44 135 157 212t269 77q149 0 258.5 -76.5t155.5 -210.5q37 -104 37 -246q0 -145 -37 -252q-46 -136 -156.5 -213t-259.5 -77q-154 0 -265.5 77t-155.5 213q-37 109 -37 250zM301 1323q59 113 172 113q24 0 48 -7.5t39.5 -15.5t41.5 -24 q63 -39 98 -39q51 0 86 45q20 27 43 10l41 -29q25 -18 2 -57q-33 -52 -79 -78.5t-91 -26.5q-25 0 -51.5 9.5t-40.5 18t-37 24.5q-52 37 -88 37q-53 0 -88 -43q-18 -24 -43 -9l-43 29q-22 16 -10 43zM311 522q0 -115 23 -192q25 -83 87 -129.5t150 -46.5q83 0 144.5 46.5 t87.5 129.5q22 77 22 192q0 116 -20 191q-26 84 -88.5 130t-149.5 46q-85 0 -146 -46.5t-87 -129.5q-23 -74 -23 -191z" />
<glyph unicode="&#xf6;" horiz-adv-x="1136" d="M113 524q0 148 34 246q44 135 157 212t269 77q149 0 258.5 -76.5t155.5 -210.5q37 -104 37 -246q0 -145 -37 -252q-46 -136 -156.5 -213t-259.5 -77q-154 0 -265.5 77t-155.5 213q-37 109 -37 250zM272 1337q0 49 33 81t84 32q49 0 80 -31.5t31 -81.5q0 -51 -30.5 -82.5 t-80.5 -31.5q-51 0 -84 31.5t-33 82.5zM311 522q0 -115 23 -192q25 -83 87 -129.5t150 -46.5q83 0 144.5 46.5t87.5 129.5q22 77 22 192q0 116 -20 191q-26 84 -88.5 130t-149.5 46q-85 0 -146 -46.5t-87 -129.5q-23 -74 -23 -191zM635 1337q0 50 32 81.5t83 31.5 t81.5 -31.5t30.5 -81.5q0 -51 -30.5 -82.5t-81.5 -31.5t-83 31.5t-32 82.5z" />
<glyph unicode="&#xf7;" horiz-adv-x="1013" d="M72 602v109q0 13 8 21.5t22 8.5h809q14 0 22.5 -8.5t8.5 -21.5v-109q0 -14 -9 -22.5t-22 -8.5h-809q-13 0 -21.5 8.5t-8.5 22.5zM385 338q0 48 36 83.5t85 35.5q47 0 83 -36t36 -83q0 -49 -35.5 -84t-83.5 -35q-50 0 -85.5 35t-35.5 84zM385 1004q0 49 35.5 83.5 t85.5 34.5q48 0 83.5 -34.5t35.5 -83.5t-35.5 -84t-83.5 -35q-50 0 -85.5 35t-35.5 84z" />
<glyph unicode="&#xf8;" horiz-adv-x="1155" d="M129 27l88 131q3 6 0 12q-35 57 -49 104q-37 109 -37 250q0 146 35 246q44 135 157 212t269 77q107 0 194 -41q11 -4 15 4l59 90q17 27 43 8l78 -55q25 -16 8 -43l-65 -94q-4 -9 2 -15q55 -65 80 -141q36 -101 36 -246q0 -148 -36 -252q-46 -136 -156.5 -213t-259.5 -77 q-140 0 -244 63q-8 3 -14 -4l-72 -106q-16 -26 -43 -9l-80 56q-25 16 -8 43zM330 522q0 -88 12 -155q1 -4 3.5 -5.5t5.5 -0.5t5 4l332 491q7 10 -4 14q-46 19 -98 19q-85 0 -146.5 -46.5t-87.5 -129.5q-22 -71 -22 -191zM444 209q-8 -8 2 -14q59 -41 144 -41q83 0 144 46.5 t87 129.5q23 80 23 192t-21 191q-2 10 -10 26q-8 12 -14 0z" />
<glyph unicode="&#xf9;" d="M129 324v688q0 13 8.5 21.5t22.5 8.5h133q14 0 22.5 -8.5t8.5 -21.5v-627q0 -106 56.5 -167.5t158.5 -61.5q103 0 164 62.5t61 166.5v627q0 13 8.5 21.5t22.5 8.5h133q14 0 22 -8t8 -22v-981q0 -14 -8.5 -22.5t-21.5 -8.5h-133q-13 0 -22 9t-9 22v61q0 4 -1.5 6t-4.5 1.5 t-6 -3.5q-81 -110 -250 -110q-100 0 -183 36.5t-136.5 115t-53.5 186.5zM314 1429q6 11 24 11h127q25 0 37 -23l108 -200q8 -15 2.5 -26t-22.5 -11h-105q-25 0 -36 20l-132 203q-9 15 -3 26z" />
<glyph unicode="&#xfa;" d="M129 324v688q0 13 8.5 21.5t22.5 8.5h133q14 0 22.5 -8.5t8.5 -21.5v-627q0 -106 56.5 -167.5t158.5 -61.5q103 0 164 62.5t61 166.5v627q0 13 8.5 21.5t22.5 8.5h133q14 0 22 -8t8 -22v-981q0 -14 -8.5 -22.5t-21.5 -8.5h-133q-13 0 -22 9t-9 22v61q0 4 -1.5 6t-4.5 1.5 t-6 -3.5q-81 -110 -250 -110q-100 0 -183 36.5t-136.5 115t-53.5 186.5zM448.5 1191q-5.5 11 2.5 26l108 200q11 23 37 23h127q18 0 23.5 -11t-3.5 -26l-131 -203q-11 -20 -37 -20h-104q-17 0 -22.5 11z" />
<glyph unicode="&#xfb;" d="M129 324v688q0 13 8.5 21.5t22.5 8.5h133q14 0 22.5 -8.5t8.5 -21.5v-627q0 -106 56.5 -167.5t158.5 -61.5q103 0 164 62.5t61 166.5v627q0 13 8.5 21.5t22.5 8.5h133q14 0 22 -8t8 -22v-981q0 -14 -8.5 -22.5t-21.5 -8.5h-133q-13 0 -22 9t-9 22v61q0 4 -1.5 6t-4.5 1.5 t-6 -3.5q-81 -110 -250 -110q-100 0 -183 36.5t-136.5 115t-53.5 186.5zM277 1178q-5 11 6 26l151 205q13 18 37 18h141q24 0 37 -18l154 -205q11 -15 5.5 -26t-24.5 -11h-92q-26 0 -39 19l-102 147q-7 10 -14 0l-105 -147q-13 -19 -37 -19h-94q-19 0 -24 11z" />
<glyph unicode="&#xfc;" d="M129 324v688q0 13 8.5 21.5t22.5 8.5h133q14 0 22.5 -8.5t8.5 -21.5v-627q0 -106 56.5 -167.5t158.5 -61.5q103 0 164 62.5t61 166.5v627q0 13 8.5 21.5t22.5 8.5h133q14 0 22 -8t8 -22v-981q0 -14 -8.5 -22.5t-21.5 -8.5h-133q-13 0 -22 9t-9 22v61q0 4 -1.5 6t-4.5 1.5 t-6 -3.5q-81 -110 -250 -110q-100 0 -183 36.5t-136.5 115t-53.5 186.5zM250 1321q0 49 33 81t84 32q49 0 79.5 -31.5t30.5 -81.5q0 -51 -30.5 -83t-79.5 -32q-51 0 -84 32t-33 83zM612 1321q0 50 32 81.5t83 31.5t82 -31.5t31 -81.5q0 -51 -31 -83t-82 -32t-83 32t-32 83z " />
<glyph unicode="&#xfd;" horiz-adv-x="974" d="M51 1008q-10 34 25 34h143q27 0 35 -24l231 -737q1 -5 4 -7t5.5 0t3.5 7l223 735q7 26 35 26h143q35 0 25 -34l-367 -1080q-29 -85 -54 -138t-58 -95t-76.5 -63t-101 -31.5t-140.5 -10.5h-14q-15 0 -15 31v105q0 30 13 30h12q120 0 172 46t94 192q2 5 0 12zM391 1203 q-6 11 2 26l109 201q11 22 37 22h127q18 0 23.5 -11t-3.5 -26l-131 -203q-11 -20 -37 -20h-104q-17 0 -23 11z" />
<glyph unicode="&#xfe;" horiz-adv-x="1103" d="M145 -379v1782q0 13 8.5 22t22.5 9h135q13 0 22 -9t9 -22v-426q0 -6 4 -8t8 2q88 88 221 88q152 0 252 -75.5t142 -211.5q30 -94 30 -248q0 -163 -36 -262q-44 -132 -142 -205t-246 -73q-133 0 -221 88q-4 4 -8 2t-4 -8v-445q0 -13 -9 -22t-22 -9h-135q-14 0 -22.5 9 t-8.5 22zM342 369q0 -9 2 -13q12 -54 33 -92q61 -110 178 -110q138 0 197 112q51 94 51 254q0 170 -66 271q-64 98 -182 98q-114 0 -174 -105q-26 -48 -37 -100q-2 -4 -2 -12v-303z" />
<glyph unicode="&#xff;" horiz-adv-x="974" d="M51 1008q-10 34 25 34h143q27 0 35 -24l231 -737q1 -5 4 -7t5.5 0t3.5 7l223 735q7 26 35 26h143q35 0 25 -34l-367 -1080q-29 -85 -54 -138t-58 -95t-76.5 -63t-101 -31.5t-140.5 -10.5h-14q-15 0 -15 31v105q0 30 13 30h12q120 0 172 46t94 192q2 5 0 12zM193 1333 q0 50 32.5 81.5t83.5 31.5q49 0 80 -31.5t31 -81.5q0 -51 -30.5 -82.5t-80.5 -31.5q-51 0 -83.5 31.5t-32.5 82.5zM555 1333q0 50 32 81.5t83 31.5t81.5 -31.5t30.5 -81.5q0 -51 -30.5 -82.5t-81.5 -31.5t-83 31.5t-32 82.5z" />
<glyph unicode="&#x100;" horiz-adv-x="1290" d="M72 35l442 1374q8 25 35 25h188q27 0 35 -25l447 -1374q5 -15 -1.5 -25t-23.5 -10h-147q-27 0 -35 25l-72 229q-4 8 -10 8h-572q-6 0 -10 -8l-72 -229q-8 -25 -34 -25h-146q-33 0 -24 35zM358 1626v76q0 14 9 22.5t22 8.5h508q13 0 22 -8.5t9 -22.5v-76q0 -14 -9 -22.5 t-22 -8.5h-508q-13 0 -22 8.5t-9 22.5zM401 430q-3 -12 9 -12h469q11 0 8 12l-238 764q-1 5 -3.5 7t-5 0t-3.5 -7z" />
<glyph unicode="&#x101;" horiz-adv-x="1058" d="M80 293q0 159 111.5 250.5t312.5 91.5h227q10 0 10 10v53q0 90 -52.5 140.5t-158.5 50.5q-85 0 -137 -31t-67 -86q-9 -27 -35 -24l-148 18q-14 2 -21.5 9.5t-6.5 17.5q19 117 131.5 191.5t279.5 74.5q189 0 300.5 -96.5t111.5 -249.5v-682q0 -13 -9 -22t-22 -9h-135 q-14 0 -22.5 9t-8.5 22v57q0 6 -3.5 8t-8.5 -2q-116 -110 -307 -110q-149 0 -245.5 77t-96.5 232zM244 1251v76q0 14 8.5 22.5t21.5 8.5h508q14 0 22.5 -9t8.5 -22v-76q0 -13 -8.5 -21.5t-22.5 -8.5h-508q-14 0 -22 8.5t-8 21.5zM276 303q0 -75 54.5 -114t140.5 -39 q109 0 189.5 57t80.5 145v119q0 10 -10 10h-190q-122 0 -193.5 -46.5t-71.5 -131.5z" />
<glyph unicode="&#x102;" horiz-adv-x="1290" d="M72 35l442 1374q8 25 35 25h188q27 0 35 -25l447 -1374q5 -15 -1.5 -25t-23.5 -10h-147q-27 0 -35 25l-72 229q-4 8 -10 8h-572q-6 0 -10 -8l-72 -229q-8 -25 -34 -25h-146q-33 0 -24 35zM401 430q-3 -12 9 -12h469q11 0 8 12l-238 764q-1 5 -3.5 7t-5 0t-3.5 -7z M406 1720q-1 15 7 24t23 9h51q27 0 33 -29q9 -43 43 -71.5t78 -28.5q43 0 77.5 28.5t43.5 71.5q10 29 33 29h49q33 0 30 -31q-12 -85 -77 -139.5t-156 -54.5t-157 54.5t-78 137.5z" />
<glyph unicode="&#x103;" horiz-adv-x="1058" d="M80 293q0 159 111.5 250.5t312.5 91.5h227q10 0 10 10v53q0 90 -52.5 140.5t-158.5 50.5q-85 0 -137 -31t-67 -86q-9 -27 -35 -24l-148 18q-14 2 -21.5 9.5t-6.5 17.5q19 117 131.5 191.5t279.5 74.5q189 0 300.5 -96.5t111.5 -249.5v-682q0 -13 -9 -22t-22 -9h-135 q-14 0 -22.5 9t-8.5 22v57q0 6 -3.5 8t-8.5 -2q-116 -110 -307 -110q-149 0 -245.5 77t-96.5 232zM276 303q0 -75 54.5 -114t140.5 -39q109 0 189.5 57t80.5 145v119q0 10 -10 10h-190q-122 0 -193.5 -46.5t-71.5 -131.5zM291 1346q-1 15 7.5 23.5t23.5 8.5h51q27 0 33 -28 q9 -43 42.5 -72t77.5 -29q43 0 77.5 29t43.5 72q9 28 33 28h49q15 0 23.5 -7.5t7.5 -22.5q-12 -85 -77.5 -140t-156.5 -55q-90 0 -156.5 54.5t-78.5 138.5z" />
<glyph unicode="&#x104;" horiz-adv-x="1331" d="M72 35l442 1374q8 25 35 25h188q27 0 35 -25l447 -1374q5 -15 3 -25t-10 -10h-14q-5 0 -14 -6q-67 -47 -101.5 -99.5t-23.5 -101.5q9 -39 43 -54t78 -5q31 6 37 -23l8 -47q3 -31 -23 -37q-38 -10 -77.5 -11.5t-81 7t-73.5 38.5t-44 79q-33 133 110 248l15 12h-4 q-27 0 -35 25l-72 229q-4 8 -10 8h-572q-6 0 -10 -8l-72 -229q-8 -25 -34 -25h-146q-33 0 -24 35zM401 430q-3 -12 9 -12h469q11 0 8 12l-238 764q-1 5 -3.5 7t-5 0t-3.5 -7z" />
<glyph unicode="&#x105;" horiz-adv-x="1228" d="M80 293q0 159 111.5 250.5t312.5 91.5h227q10 0 10 10v53q0 90 -52.5 140.5t-158.5 50.5q-85 0 -137 -31t-67 -86q-9 -27 -35 -24l-148 18q-32 4 -26 35q22 114 133.5 186t275.5 72q189 0 300.5 -96.5t111.5 -249.5v-707q0 -8 -4 -12q-2 -2 -14.5 -12.5t-20.5 -18.5 q-103 -89 -86 -170q9 -39 43 -54t78 -5q31 6 37 -23l8 -47q3 -31 -23 -37q-38 -10 -77.5 -11.5t-81 7t-73.5 38.5t-44 79q-33 132 111 248q6 4 6 8t-6 4h-19q-14 0 -22.5 9t-8.5 22v57q0 6 -3.5 8t-8.5 -2q-116 -110 -307 -110q-149 0 -245.5 77t-96.5 232zM276 303 q0 -75 54.5 -114t140.5 -39q109 0 189.5 57t80.5 145v119q0 10 -10 10h-190q-122 0 -193.5 -46.5t-71.5 -131.5z" />
<glyph unicode="&#x106;" horiz-adv-x="1243" d="M129 453v530q0 210 137.5 338.5t362.5 128.5q224 0 360.5 -124.5t136.5 -328.5q0 -21 -30 -24l-135 -8q-31 -3 -31 12v12q0 131 -82.5 211t-218.5 80t-219.5 -80t-83.5 -211v-545q0 -131 83.5 -210.5t219.5 -79.5t218.5 79.5t82.5 210.5q0 11 8.5 17.5t22.5 5.5l135 -8 q30 -3 30 -10v-11q0 -204 -136.5 -330t-360.5 -126q-225 0 -362.5 129.5t-137.5 341.5zM532.5 1598q-5.5 11 2.5 26l108 201q11 22 37 22h127q18 0 23.5 -11t-3.5 -26l-131 -202q-12 -21 -37 -21h-104q-17 0 -22.5 11z" />
<glyph unicode="&#x107;" horiz-adv-x="1077" d="M113 524q0 143 30 248q40 132 152 209.5t266 77.5t268.5 -78t149.5 -197q10 -25 14 -57q3 -30 -26 -33l-133 -18q-29 -3 -35 22l-6 27q-16 69 -80 116.5t-154 47.5q-89 0 -149.5 -47t-79.5 -125t-19 -195q0 -114 19 -192q21 -81 80.5 -128.5t148.5 -47.5q88 0 151.5 45.5 t82.5 117.5l2 9v2q2 9 12 18t22 8l134 -22q29 -6 26 -33q-2 -10 -10 -39q-35 -126 -149.5 -201t-268.5 -75q-155 0 -265.5 78.5t-152.5 213.5q-30 91 -30 248zM460.5 1207q-5.5 11 2.5 26l108 201q11 22 37 22h127q18 0 24 -11t-3 -26l-131 -202q-12 -21 -37 -21h-105 q-17 0 -22.5 11z" />
<glyph unicode="&#x10a;" horiz-adv-x="1243" d="M129 453v530q0 210 137.5 338.5t362.5 128.5q224 0 360.5 -124.5t136.5 -328.5q0 -21 -30 -24l-135 -8q-31 -3 -31 12v12q0 131 -82.5 211t-218.5 80t-219.5 -80t-83.5 -211v-545q0 -131 83.5 -210.5t219.5 -79.5t218.5 79.5t82.5 210.5q0 11 8.5 17.5t22.5 5.5l135 -8 q30 -3 30 -10v-11q0 -204 -136.5 -330t-360.5 -126q-225 0 -362.5 129.5t-137.5 341.5zM520 1698q0 46 31 75t78 29q46 0 74 -29t28 -75t-28.5 -76.5t-73.5 -30.5q-47 0 -78 30.5t-31 76.5z" />
<glyph unicode="&#x10b;" horiz-adv-x="1077" d="M113 524q0 143 30 248q40 132 152 209.5t266 77.5t268.5 -78t149.5 -197q10 -25 14 -57q3 -30 -26 -33l-133 -18q-29 -3 -35 22l-6 27q-16 69 -80 116.5t-154 47.5q-89 0 -149.5 -47t-79.5 -125t-19 -195q0 -114 19 -192q21 -81 80.5 -128.5t148.5 -47.5q88 0 151.5 45.5 t82.5 117.5l2 9v2q2 9 12 18t22 8l134 -22q29 -6 26 -33q-2 -10 -10 -39q-35 -126 -149.5 -201t-268.5 -75q-155 0 -265.5 78.5t-152.5 213.5q-30 91 -30 248zM449 1307q0 46 30.5 75t77.5 29q46 0 74 -29t28 -75t-28.5 -76.5t-73.5 -30.5q-47 0 -77.5 30.5t-30.5 76.5z" />
<glyph unicode="&#x10c;" horiz-adv-x="1243" d="M129 453v530q0 210 137.5 338.5t362.5 128.5q224 0 360.5 -124.5t136.5 -328.5q0 -21 -30 -24l-135 -8q-31 -3 -31 12v12q0 131 -82.5 211t-218.5 80t-219.5 -80t-83.5 -211v-545q0 -131 83.5 -210.5t219.5 -79.5t218.5 79.5t82.5 210.5q0 11 8.5 17.5t22.5 5.5l135 -8 q30 -3 30 -10v-11q0 -204 -136.5 -330t-360.5 -126q-225 0 -362.5 129.5t-137.5 341.5zM363.5 1817q4.5 10 23.5 10h92q24 0 37 -19l105 -147q7 -11 14 0l104 147q13 19 39 19h88q19 0 24.5 -11t-5.5 -26l-146 -205q-12 -18 -37 -18h-151q-27 0 -39 18l-143 205 q-10 17 -5.5 27z" />
<glyph unicode="&#x10d;" horiz-adv-x="1077" d="M113 524q0 143 30 248q40 132 152 209.5t266 77.5t268.5 -78t149.5 -197q10 -25 14 -57q3 -30 -26 -33l-133 -18q-29 -3 -35 22l-6 27q-16 69 -80 116.5t-154 47.5q-89 0 -149.5 -47t-79.5 -125t-19 -195q0 -114 19 -192q21 -81 80.5 -128.5t148.5 -47.5q88 0 151.5 45.5 t82.5 117.5l2 9v2q2 9 12 18t22 8l134 -22q29 -6 26 -33q-2 -10 -10 -39q-35 -126 -149.5 -201t-268.5 -75q-155 0 -265.5 78.5t-152.5 213.5q-30 91 -30 248zM291.5 1426q4.5 10 23.5 10h93q23 0 36 -19l105 -147q7 -11 14 0l105 147q13 19 39 19h88q19 0 24 -11t-6 -26 l-145 -205q-12 -18 -37 -18h-152q-27 0 -39 18l-143 205q-10 17 -5.5 27z" />
<glyph unicode="&#x10e;" horiz-adv-x="1265" d="M168 31v1372q0 13 9 22t22 9h485q214 0 340.5 -111t126.5 -299v-614q0 -188 -126.5 -299t-340.5 -111h-485q-13 0 -22 9t-9 22zM365 180q0 -10 10 -10h317q120 0 190 72.5t72 195.5v557q0 123 -70.5 196t-191.5 73h-317q-10 0 -10 -11v-1073zM369 1772q-22 36 18 36h92 q25 0 37 -18l105 -148q7 -11 14 0l104 148q12 18 39 18h88q19 0 24.5 -10.5t-5.5 -25.5l-146 -205q-13 -19 -37 -19h-151q-26 0 -39 19z" />
<glyph unicode="&#x10f;" horiz-adv-x="1359" d="M104 524q0 151 31 248q42 136 142 211.5t251 75.5q147 0 238 -105q3 -3 6 -3.5t4.5 1.5t1.5 6v445q0 13 9 22t22 9h135q14 0 22.5 -9t8.5 -22v-1372q0 -13 -8.5 -22t-22.5 -9h-135q-13 0 -22 9t-9 22v53q0 6 -4 8t-8 -2q-89 -106 -238 -106q-147 0 -245 73t-142 205 q-37 101 -37 262zM301 520q0 -160 51 -254q59 -112 197 -112q117 0 178 110q49 88 49 258t-53 262q-60 105 -174 105q-118 0 -182 -98q-66 -101 -66 -271zM1058.5 1191q-5.5 11 2.5 26l108 200q11 23 37 23h127q18 0 24 -11t-3 -26l-131 -203q-11 -20 -37 -20h-105 q-17 0 -22.5 11z" />
<glyph unicode="&#x110;" horiz-adv-x="1388" d="M168 705v77q0 14 9 22.5t22 8.5h82q10 0 10 10v580q0 13 8.5 22t22.5 9h485q214 0 340.5 -111t126.5 -299v-614q0 -188 -126.5 -299t-340.5 -111h-485q-14 0 -22.5 9t-8.5 22v633q0 10 -10 10h-82q-13 0 -22 9t-9 22zM487 180q0 -10 11 -10h317q120 0 190 72.5t72 195.5 v557q0 123 -70.5 196t-191.5 73h-317q-11 0 -11 -11v-430q0 -10 11 -10h204q14 0 22.5 -8.5t8.5 -22.5v-77q0 -13 -8.5 -22t-22.5 -9h-204q-11 0 -11 -10v-484z" />
<glyph unicode="&#x111;" horiz-adv-x="1228" d="M104 524q0 151 31 248q42 136 142 211.5t251 75.5q147 0 238 -105q3 -3 6 -3.5t4.5 1.5t1.5 6v193q0 10 -10 10h-293q-13 0 -22 8.5t-9 22.5v63q0 13 9 22t22 9h293q10 0 10 10v107q0 13 9 22t22 9h135q14 0 22.5 -9t8.5 -22v-107q0 -10 10 -10h105q13 0 21.5 -8.5 t8.5 -22.5v-63q0 -14 -8.5 -22.5t-21.5 -8.5h-105q-10 0 -10 -10v-1120q0 -13 -8.5 -22t-22.5 -9h-135q-13 0 -22 9t-9 22v53q0 6 -4 8t-8 -2q-89 -106 -238 -106q-147 0 -245 73t-142 205q-37 101 -37 262zM301 520q0 -160 51 -254q59 -112 197 -112q117 0 178 110 q49 88 49 258t-53 262q-60 105 -174 105q-118 0 -182 -98q-66 -101 -66 -271z" />
<glyph unicode="&#x112;" horiz-adv-x="1224" d="M168 31v1372q0 13 9 22t22 9h891q13 0 21.5 -8.5t8.5 -22.5v-109q0 -14 -8 -22t-22 -8h-715q-10 0 -10 -11v-436q0 -10 10 -10h487q14 0 22.5 -8.5t8.5 -22.5v-108q0 -14 -8.5 -22.5t-22.5 -8.5h-487q-10 0 -10 -10v-447q0 -10 10 -10h715q13 0 21.5 -8.5t8.5 -22.5v-108 q0 -14 -8.5 -22.5t-21.5 -8.5h-891q-13 0 -22 9t-9 22zM354 1649v75q0 14 9 22.5t22 8.5h508q13 0 22 -8.5t9 -22.5v-75q0 -13 -9 -22t-22 -9h-508q-13 0 -22 9t-9 22z" />
<glyph unicode="&#x113;" d="M115 526q0 151 22 228q37 141 147.5 223t268.5 82q194 0 296.5 -101t133.5 -294q11 -75 14 -185q0 -30 -30 -30h-648q-10 0 -10 -11q3 -72 15 -110q22 -81 90 -128.5t168 -47.5q166 3 237 129q16 29 41 12l84 -51q24 -15 12 -43q-56 -100 -156.5 -157.5t-236.5 -57.5 q-290 0 -397 249q-51 124 -51 293zM268 1251v76q0 13 9 22t22 9h508q13 0 22 -9t9 -22v-76q0 -13 -8.5 -21.5t-22.5 -8.5h-508q-14 0 -22.5 8.5t-8.5 21.5zM311 612q0 -10 11 -10h464q11 0 11 10q-3 63 -13 101q-21 80 -81 128t-150 48q-89 0 -145.5 -43.5t-77.5 -118.5 q-16 -50 -19 -115z" />
<glyph unicode="&#x116;" horiz-adv-x="1224" d="M168 31v1372q0 13 9 22t22 9h891q13 0 21.5 -8.5t8.5 -22.5v-109q0 -14 -8 -22t-22 -8h-715q-10 0 -10 -11v-436q0 -10 10 -10h487q14 0 22.5 -8.5t8.5 -22.5v-108q0 -14 -8.5 -22.5t-22.5 -8.5h-487q-10 0 -10 -10v-447q0 -10 10 -10h715q13 0 21.5 -8.5t8.5 -22.5v-108 q0 -14 -8.5 -22.5t-21.5 -8.5h-891q-13 0 -22 9t-9 22zM528 1704q0 46 31 75t78 29q46 0 74 -29t28 -75t-28.5 -76.5t-73.5 -30.5q-47 0 -78 30.5t-31 76.5z" />
<glyph unicode="&#x117;" d="M115 526q0 151 22 228q37 141 147.5 223t268.5 82q194 0 296.5 -101t133.5 -294q11 -75 14 -185q0 -30 -30 -30h-648q-10 0 -10 -11q3 -72 15 -110q22 -81 90 -128.5t168 -47.5q166 3 237 129q16 29 41 12l84 -51q24 -15 12 -43q-56 -100 -156.5 -157.5t-236.5 -57.5 q-290 0 -397 249q-51 124 -51 293zM311 612q0 -10 11 -10h464q11 0 11 10q-3 63 -13 101q-21 80 -81 128t-150 48q-89 0 -145.5 -43.5t-77.5 -118.5q-16 -50 -19 -115zM442 1307q0 46 31 75t78 29q46 0 74 -29t28 -75t-28.5 -76.5t-73.5 -30.5q-47 0 -78 30.5t-31 76.5z" />
<glyph unicode="&#x118;" horiz-adv-x="1224" d="M168 31v1372q0 13 9 22t22 9h891q13 0 21.5 -8.5t8.5 -22.5v-109q0 -14 -8 -22t-22 -8h-715q-10 0 -10 -11v-436q0 -10 10 -10h487q14 0 22.5 -8.5t8.5 -22.5v-108q0 -14 -8.5 -22.5t-22.5 -8.5h-487q-10 0 -10 -10v-447q0 -10 10 -10h715q13 0 21.5 -8.5t8.5 -22.5v-108 q0 -14 -8.5 -22.5t-21.5 -8.5h-371q-4 0 -12 -4q-119 -99 -99 -182q9 -39 43 -54.5t78 -5.5q31 6 37 -22l8 -47q3 -31 -22 -37q-38 -10 -78 -12t-81.5 7t-73.5 38.5t-44 78.5q-29 119 86 228q6 4 4 8t-8 4h-358q-13 0 -22 9t-9 22z" />
<glyph unicode="&#x119;" d="M115 526q0 151 22 228q37 141 147.5 223t268.5 82q194 0 296.5 -101t133.5 -294q11 -75 14 -185q0 -30 -30 -30h-648q-10 0 -10 -11q3 -72 15 -110q22 -81 90 -128.5t168 -47.5q166 3 237 129q16 29 41 12l84 -51q24 -15 12 -43q-99 -177 -311 -211q-4 0 -12 -4 q-59 -45 -89 -94.5t-20 -94.5q9 -39 43 -54t78 -5q31 6 37 -23l8 -47q3 -31 -22 -37q-38 -10 -78 -11.5t-81.5 7t-73.5 38.5t-44 79q-29 124 96 235q10 10 -4 13q-229 34 -317 243q-51 124 -51 293zM311 612q0 -10 11 -10h464q11 0 11 10q-3 63 -13 101q-21 80 -81 128 t-150 48q-89 0 -145.5 -43.5t-77.5 -118.5q-16 -50 -19 -115z" />
<glyph unicode="&#x11a;" horiz-adv-x="1224" d="M168 31v1372q0 13 9 22t22 9h891q13 0 21.5 -8.5t8.5 -22.5v-109q0 -14 -8 -22t-22 -8h-715q-10 0 -10 -11v-436q0 -10 10 -10h487q14 0 22.5 -8.5t8.5 -22.5v-108q0 -14 -8.5 -22.5t-22.5 -8.5h-487q-10 0 -10 -10v-447q0 -10 10 -10h715q13 0 21.5 -8.5t8.5 -22.5v-108 q0 -14 -8.5 -22.5t-21.5 -8.5h-891q-13 0 -22 9t-9 22zM371.5 1823q4.5 10 23.5 10h92q25 0 37 -18l105 -148q7 -11 14 0l105 148q12 18 38 18h88q19 0 24.5 -11t-5.5 -26l-145 -205q-12 -18 -37 -18h-152q-27 0 -39 18l-143 205q-10 17 -5.5 27z" />
<glyph unicode="&#x11b;" d="M115 526q0 151 22 228q37 141 147.5 223t268.5 82q194 0 296.5 -101t133.5 -294q11 -75 14 -185q0 -30 -30 -30h-648q-10 0 -10 -11q3 -72 15 -110q22 -81 90 -128.5t168 -47.5q166 3 237 129q16 29 41 12l84 -51q24 -15 12 -43q-56 -100 -156.5 -157.5t-236.5 -57.5 q-290 0 -397 249q-51 124 -51 293zM285.5 1413q4.5 10 23.5 10h92q25 0 37 -18l105 -148q7 -11 14 0l105 148q12 18 38 18h88q19 0 24.5 -11t-5.5 -26l-145 -204q-13 -19 -37 -19h-152q-26 0 -39 19l-143 204q-10 17 -5.5 27zM311 612q0 -10 11 -10h464q11 0 11 10 q-3 63 -13 101q-21 80 -81 128t-150 48q-89 0 -145.5 -43.5t-77.5 -118.5q-16 -50 -19 -115z" />
<glyph unicode="&#x11e;" horiz-adv-x="1241" d="M129 455v524q0 213 137.5 342t362.5 129q222 0 359.5 -125t137.5 -319v-13q0 -13 -8 -21.5t-22 -8.5h-135q-31 0 -31 20v18q0 122 -83 199.5t-218 77.5q-137 0 -220 -80t-83 -213v-536q0 -133 86 -213t225 -80q135 0 214 70.5t79 193.5v155q0 11 -10 11h-265 q-13 0 -21.5 8t-8.5 22v107q0 14 8.5 22.5t21.5 8.5h441q13 0 21.5 -8.5t8.5 -22.5v-250q0 -235 -134 -362t-363 -127q-225 0 -362.5 129.5t-137.5 341.5zM391 1737q-1 15 7.5 23.5t23.5 8.5h51q27 0 33 -28q9 -43 43 -72t78 -29q43 0 77.5 29t43.5 72q9 28 32 28h49 q15 0 23.5 -7.5t7.5 -22.5q-12 -85 -77.5 -140t-155.5 -55q-91 0 -157.5 55t-78.5 138z" />
<glyph unicode="&#x11f;" horiz-adv-x="1112" d="M106 524q0 170 31 262q39 123 138.5 198t234.5 75q167 0 262 -101q4 -6 8 -3.5t4 8.5v49q0 13 8.5 21.5t22.5 8.5h135q14 0 22.5 -8.5t8.5 -21.5v-959q0 -113 -32.5 -198.5t-87.5 -137.5t-134.5 -82t-165.5 -38t-188 0q-29 0 -29 32l4 121q0 14 10 22t25 7 q215 -14 308 48.5t93 231.5v35q0 4 -1.5 6t-4.5 1.5t-6 -3.5q-88 -98 -250 -98q-132 0 -240 69.5t-149 204.5q-27 94 -27 250zM305 526q0 -138 21 -192q21 -75 81 -123.5t146 -48.5q89 0 146 48.5t73 123.5q12 59 12 192q0 134 -14 191q-16 75 -73.5 123.5t-143.5 48.5 q-85 0 -142.5 -47.5t-82.5 -124.5q-23 -64 -23 -191zM340 1348q-1 15 7.5 23.5t23.5 8.5h51q27 0 33 -28q9 -43 42.5 -72t77.5 -29q43 0 77.5 29t43.5 72q9 28 33 28h49q16 0 24 -7.5t7 -22.5q-12 -85 -77.5 -140t-156.5 -55q-90 0 -156.5 54.5t-78.5 138.5z" />
<glyph unicode="&#x120;" horiz-adv-x="1241" d="M129 455v524q0 213 137.5 342t362.5 129q222 0 359.5 -125t137.5 -319v-13q0 -13 -8 -21.5t-22 -8.5h-135q-31 0 -31 20v18q0 122 -83 199.5t-218 77.5q-137 0 -220 -80t-83 -213v-536q0 -133 86 -213t225 -80q135 0 214 70.5t79 193.5v155q0 11 -10 11h-265 q-13 0 -21.5 8t-8.5 22v107q0 14 8.5 22.5t21.5 8.5h441q13 0 21.5 -8.5t8.5 -22.5v-250q0 -235 -134 -362t-363 -127q-225 0 -362.5 129.5t-137.5 341.5zM518 1698q0 46 31 75t78 29q46 0 74 -29t28 -75t-28.5 -76.5t-73.5 -30.5q-47 0 -78 30.5t-31 76.5z" />
<glyph unicode="&#x121;" horiz-adv-x="1112" d="M106 524q0 170 31 262q39 123 138.5 198t234.5 75q167 0 262 -101q4 -6 8 -3.5t4 8.5v49q0 13 8.5 21.5t22.5 8.5h135q14 0 22.5 -8.5t8.5 -21.5v-959q0 -113 -32.5 -198.5t-87.5 -137.5t-134.5 -82t-165.5 -38t-188 0q-29 0 -29 32l4 121q0 14 10 22t25 7 q215 -14 308 48.5t93 231.5v35q0 4 -1.5 6t-4.5 1.5t-6 -3.5q-88 -98 -250 -98q-132 0 -240 69.5t-149 204.5q-27 94 -27 250zM305 526q0 -138 21 -192q21 -75 81 -123.5t146 -48.5q89 0 146 48.5t73 123.5q12 59 12 192q0 134 -14 191q-16 75 -73.5 123.5t-143.5 48.5 q-85 0 -142.5 -47.5t-82.5 -124.5q-23 -64 -23 -191zM467 1309q0 46 30.5 75t77.5 29q46 0 74.5 -29t28.5 -75t-29 -76.5t-74 -30.5q-47 0 -77.5 30.5t-30.5 76.5z" />
<glyph unicode="&#x122;" horiz-adv-x="1241" d="M129 455v524q0 213 137.5 342t362.5 129q222 0 359.5 -125t137.5 -319v-13q0 -13 -8 -21.5t-22 -8.5h-135q-31 0 -31 20v18q0 122 -83 199.5t-218 77.5q-137 0 -220 -80t-83 -213v-536q0 -133 86 -213t225 -80q135 0 214 70.5t79 193.5v155q0 11 -10 11h-265 q-13 0 -21.5 8t-8.5 22v107q0 14 8.5 22.5t21.5 8.5h441q13 0 21.5 -8.5t8.5 -22.5v-250q0 -235 -134 -362t-363 -127q-225 0 -362.5 129.5t-137.5 341.5zM460.5 -378q-5.5 11 2.5 26l108 200q11 23 37 23h127q18 0 24 -11t-3 -26l-131 -203q-11 -20 -37 -20h-105 q-17 0 -22.5 11z" />
<glyph unicode="&#x123;" horiz-adv-x="1112" d="M106 524q0 170 31 262q39 123 138.5 198t234.5 75q167 0 262 -101q4 -6 8 -3.5t4 8.5v49q0 13 8.5 21.5t22.5 8.5h135q14 0 22.5 -8.5t8.5 -21.5v-959q0 -113 -32.5 -198.5t-87.5 -137.5t-134.5 -82t-165.5 -38t-188 0q-29 0 -29 32l4 121q0 14 10 22t25 7 q215 -14 308 48.5t93 231.5v35q0 4 -1.5 6t-4.5 1.5t-6 -3.5q-88 -98 -250 -98q-132 0 -240 69.5t-149 204.5q-27 94 -27 250zM305 526q0 -138 21 -192q21 -75 81 -123.5t146 -48.5q89 0 146 48.5t73 123.5q12 59 12 192q0 134 -14 191q-16 75 -73.5 123.5t-143.5 48.5 q-85 0 -142.5 -47.5t-82.5 -124.5q-23 -64 -23 -191zM442.5 1184.5q-5.5 10.5 3.5 25.5l132 203q12 21 36 21h105q17 0 22.5 -11t-2.5 -26l-108 -201q-11 -22 -37 -22h-127q-19 0 -24.5 10.5z" />
<glyph unicode="&#x126;" horiz-adv-x="1320" d="M45 1071v78q0 13 8.5 22t22.5 9h82q10 0 10 10v213q0 13 9 22t22 9h135q14 0 22.5 -9t8.5 -22v-213q0 -10 10 -10h579q11 0 11 10v213q0 14 8.5 22.5t21.5 8.5h135q14 0 22.5 -9t8.5 -22v-213q0 -10 10 -10h80q13 0 22 -9t9 -22v-78q0 -13 -9 -22t-22 -9h-80 q-10 0 -10 -10v-999q0 -13 -8.5 -22t-22.5 -9h-135q-13 0 -21.5 8.5t-8.5 22.5v596q0 10 -11 10h-579q-10 0 -10 -10v-596q0 -13 -8.5 -22t-22.5 -9h-135q-13 0 -22 9t-9 22v999q0 10 -10 10h-82q-14 0 -22.5 9t-8.5 22zM365 817q0 -10 10 -10h579q11 0 11 10v213 q0 10 -11 10h-579q-10 0 -10 -10v-213z" />
<glyph unicode="&#x127;" horiz-adv-x="1110" d="M2 1165v64q0 13 9 22t22 9h100q10 0 10 10v133q0 13 8.5 22t22.5 9h135q13 0 22 -9t9 -22v-133q0 -10 10 -10h297q13 0 22 -9t9 -22v-64q0 -13 -8.5 -21.5t-22.5 -8.5h-297q-10 0 -10 -11v-170q0 -6 3.5 -8t6.5 2q85 109 258 109q167 0 266 -97.5t99 -263.5v-665 q0 -13 -8.5 -22t-22.5 -9h-135q-13 0 -22 9t-9 22v626q0 102 -59.5 166t-157.5 64q-89 0 -148.5 -52.5t-70.5 -140.5v-663q0 -13 -9 -22t-22 -9h-135q-14 0 -22.5 9t-8.5 22v1093q0 11 -10 11h-100q-14 0 -22.5 8.5t-8.5 21.5z" />
<glyph unicode="&#x12a;" horiz-adv-x="532" d="M-16 1649v75q0 14 8.5 22.5t21.5 8.5h508q14 0 22.5 -8.5t8.5 -22.5v-75q0 -13 -8.5 -22t-22.5 -9h-508q-13 0 -21.5 8.5t-8.5 22.5zM168 31v1372q0 13 9 22t22 9h135q14 0 22.5 -9t8.5 -22v-1372q0 -13 -8.5 -22t-22.5 -9h-135q-13 0 -22 9t-9 22z" />
<glyph unicode="&#x12b;" horiz-adv-x="466" d="M-55 1255v76q0 14 8.5 22.5t21.5 8.5h508q13 0 22 -9t9 -22v-76q0 -13 -8.5 -21.5t-22.5 -8.5h-508q-13 0 -21.5 8.5t-8.5 21.5zM133 31v981q0 13 8.5 21.5t22.5 8.5h135q14 0 22.5 -8.5t8.5 -21.5v-981q0 -13 -9 -22t-22 -9h-135q-14 0 -22.5 9t-8.5 22z" />
<glyph unicode="&#x12e;" horiz-adv-x="645" d="M174 -260q-33 132 111 248q9 8 4 12h-13q-13 0 -21.5 8.5t-8.5 22.5v1372q0 14 8.5 22.5t21.5 8.5h136q13 0 21.5 -8.5t8.5 -22.5v-1378v-25h-2q-70 -49 -107 -103t-26 -104q9 -39 43 -54t78 -5q31 6 37 -23l8 -47q3 -31 -22 -37q-38 -10 -78 -11.5t-81.5 7t-73.5 38.5 t-44 79z" />
<glyph unicode="&#x12f;" horiz-adv-x="555" d="M129 -260q-33 132 111 248q9 8 4 12h-13q-13 0 -21.5 8.5t-8.5 22.5v981q0 14 8.5 22t21.5 8h136q13 0 21.5 -8t8.5 -22v-987v-25h-2q-70 -49 -107 -103t-26 -104q9 -39 43 -54t78 -5q31 6 37 -23l8 -47q3 -31 -22 -37q-38 -10 -78 -11.5t-81.5 7t-73.5 38.5t-44 79z M188 1311q0 46 31 75t78 29q46 0 74 -29t28 -75t-28.5 -76.5t-73.5 -30.5q-47 0 -78 30.5t-31 76.5z" />
<glyph unicode="&#x130;" horiz-adv-x="532" d="M158 1704q0 46 30.5 75t77.5 29q46 0 74.5 -29t28.5 -75t-29 -76.5t-74 -30.5q-47 0 -77.5 30.5t-30.5 76.5zM168 31v1372q0 13 9 22t22 9h135q14 0 22.5 -9t8.5 -22v-1372q0 -13 -8.5 -22t-22.5 -9h-135q-13 0 -22 9t-9 22z" />
<glyph unicode="&#x131;" horiz-adv-x="466" d="M133 31v981q0 13 8.5 21.5t22.5 8.5h135q14 0 22.5 -8.5t8.5 -21.5v-981q0 -13 -9 -22t-22 -9h-135q-14 0 -22.5 9t-8.5 22z" />
<glyph unicode="&#x133;" horiz-adv-x="989" d="M123 1327q0 57 37.5 93t97.5 36t96.5 -36t36.5 -93t-36.5 -93t-96.5 -36t-97.5 36t-37.5 93zM160 31v981q0 14 8 22t22 8h136q14 0 22 -8t8 -22v-981q0 -14 -8.5 -22.5t-21.5 -8.5h-136q-13 0 -21.5 8.5t-8.5 22.5zM408 -287q0 31 30 31q110 1 160.5 49t50.5 148v1071 q0 13 8.5 21.5t22.5 8.5h135q14 0 22.5 -8.5t8.5 -21.5v-1069q0 -199 -92.5 -283t-315.5 -84q-30 0 -30 31v106zM614 1323q0 55 39.5 92t94.5 37q56 0 95.5 -37t39.5 -92q0 -56 -37 -92.5t-98 -36.5q-59 0 -96.5 36.5t-37.5 92.5z" />
<glyph unicode="&#x136;" horiz-adv-x="1261" d="M168 31v1372q0 13 9 22t22 9h135q14 0 22.5 -9t8.5 -22v-639q0 -6 3.5 -8t8.5 4l579 657q14 17 37 17h154q20 0 24 -11t-8 -26l-473 -563q-5 -8 -2 -15l514 -782q10 -17 4.5 -27t-24.5 -10h-154q-26 0 -37 20l-438 660q-8 12 -14 2l-170 -188q-4 -8 -4 -15v-448 q0 -13 -8.5 -22t-22.5 -9h-135q-13 0 -22 9t-9 22zM483 -362q-6 11 2 26l109 201q11 22 37 22h127q18 0 23.5 -11t-3.5 -26l-131 -202q-12 -21 -37 -21h-104q-17 0 -23 11z" />
<glyph unicode="&#x137;" horiz-adv-x="1048" d="M143 31v1372q0 13 8.5 22t22.5 9h135q13 0 22 -9t9 -22v-774q0 -6 4 -8t8 4l373 401q13 16 37 16h158q20 0 24 -10.5t-8 -25.5l-252 -293q-6 -6 -2 -15l305 -661q7 -17 1 -27t-23 -10h-144q-26 0 -35 23l-237 548q-2 5 -6.5 5.5t-7.5 -3.5l-191 -208q-4 -8 -4 -15v-319 q0 -13 -9 -22t-22 -9h-135q-14 0 -22.5 9t-8.5 22zM389 -362q-6 11 2 26l109 201q11 22 37 22h127q18 0 23.5 -11t-3.5 -26l-131 -202q-12 -21 -37 -21h-104q-17 0 -23 11z" />
<glyph unicode="&#x139;" horiz-adv-x="1167" d="M168 31v1372q0 13 9 22t22 9h135q14 0 22.5 -9t8.5 -22v-1223q0 -10 10 -10h694q13 0 22 -9t9 -22v-108q0 -13 -9 -22t-22 -9h-870q-13 0 -22 9t-9 22zM170 1582q-6 11 2 26l109 200q11 23 36 23h127q18 0 24 -11t-3 -26l-131 -203q-11 -20 -37 -20h-104q-17 0 -23 11z " />
<glyph unicode="&#x13a;" horiz-adv-x="487" d="M145 31v1372q0 13 8.5 22t22.5 9h135q13 0 22 -9t9 -22v-1372q0 -13 -9 -22t-22 -9h-135q-14 0 -22.5 9t-8.5 22zM149.5 1582q-5.5 11 2.5 26l108 200q12 23 37 23h127q18 0 23.5 -11t-3.5 -26l-131 -203q-11 -20 -37 -20h-104q-17 0 -22.5 11z" />
<glyph unicode="&#x13b;" horiz-adv-x="1167" d="M168 31v1372q0 13 9 22t22 9h135q14 0 22.5 -9t8.5 -22v-1223q0 -10 10 -10h694q13 0 22 -9t9 -22v-108q0 -13 -9 -22t-22 -9h-870q-13 0 -22 9t-9 22zM415.5 -362q-5.5 11 2.5 26l108 201q11 22 37 22h127q18 0 24 -11t-3 -26l-131 -202q-12 -21 -37 -21h-105 q-17 0 -22.5 11z" />
<glyph unicode="&#x13c;" horiz-adv-x="489" d="M24.5 -362q-5.5 11 2.5 26l108 201q11 22 37 22h127q18 0 23.5 -11t-3.5 -26l-131 -202q-12 -21 -36 -21h-105q-17 0 -22.5 11zM145 31v1372q0 13 8.5 22t22.5 9h135q13 0 22 -9t9 -22v-1372q0 -13 -9 -22t-22 -9h-135q-14 0 -22.5 9t-8.5 22z" />
<glyph unicode="&#x13d;" horiz-adv-x="1167" d="M1 1788q5 10 24 10h92q25 0 37 -18l104 -148q7 -10 14 0l105 148q12 18 39 18h88q19 0 24 -11t-6 -26l-145 -205q-12 -18 -37 -18h-152q-26 0 -38 18l-144 205q-10 17 -5 27zM168 31v1372q0 13 9 22t22 9h135q14 0 22.5 -9t8.5 -22v-1223q0 -10 10 -10h694q13 0 22 -9 t9 -22v-108q0 -13 -9 -22t-22 -9h-870q-13 0 -22 9t-9 22z" />
<glyph unicode="&#x13e;" horiz-adv-x="487" d="M-19.5 1788q4.5 10 23.5 10h92q25 0 37 -18l105 -148q7 -10 14 0l104 148q12 18 39 18h88q19 0 24.5 -11t-5.5 -26l-146 -205q-12 -18 -37 -18h-151q-27 0 -39 18l-143 205q-10 17 -5.5 27zM145 31v1372q0 13 8.5 22t22.5 9h135q13 0 22 -9t9 -22v-1372q0 -13 -9 -22 t-22 -9h-135q-14 0 -22.5 9t-8.5 22z" />
<glyph unicode="&#x141;" horiz-adv-x="1167" d="M-125 403q-18 24 4 43l283 224q6 3 6 12v721q0 13 9 22t22 9h135q14 0 22.5 -9t8.5 -22v-559q0 -6 3.5 -8t8.5 2l422 331q24 21 43 -4l59 -71q18 -24 -4 -43l-526 -414q-6 -3 -6 -12v-445q0 -10 10 -10h694q13 0 22 -9t9 -22v-108q0 -13 -9 -22t-22 -9h-870q-13 0 -22 9 t-9 22v430q0 6 -4 8t-8 -2l-179 -139q-24 -21 -43 4z" />
<glyph unicode="&#x142;" horiz-adv-x="487" d="M-53 575q-13 26 12 41l180 105q6 4 6 12v670q0 13 8.5 22t22.5 9h135q13 0 22 -9t9 -22v-549q0 -6 4 -8.5t8 0.5l168 98q25 16 41 -10l45 -78q14 -25 -12 -41l-248 -143q-6 -4 -6 -13v-628q0 -13 -9 -22t-22 -9h-135q-14 0 -22.5 9t-8.5 22v510q0 6 -3.5 8.5t-8.5 -0.5 l-104 -60q-12 -7 -23.5 -4t-17.5 15z" />
<glyph unicode="&#x143;" horiz-adv-x="1368" d="M168 31v1372q0 13 9 22t22 9h131q25 0 37 -21l626 -1014q2 -4 5 -5t5.5 1.5t2.5 7.5v1000q0 14 8.5 22.5t21.5 8.5h135q13 0 22 -9t9 -22v-1372q0 -13 -9 -22t-22 -9h-133q-26 0 -37 20l-626 1020q-2 4 -5 5t-5.5 -1.5t-2.5 -7.5l3 -1005q0 -13 -8.5 -22t-22.5 -9h-135 q-13 0 -22 9t-9 22zM579.5 1606q-5.5 11 2.5 26l108 201q11 22 37 22h127q18 0 23.5 -10.5t-3.5 -25.5l-131 -203q-12 -21 -36 -21h-105q-17 0 -22.5 11z" />
<glyph unicode="&#x144;" horiz-adv-x="1110" d="M143 31v981q0 13 8.5 21.5t22.5 8.5h135q14 0 22.5 -8.5t8.5 -21.5v-58q0 -6 3.5 -8t6.5 2q85 109 258 109q167 0 266 -97.5t99 -263.5v-665q0 -13 -8.5 -22t-22.5 -9h-135q-13 0 -22 9t-9 22v626q0 102 -59.5 166t-157.5 64q-89 0 -148.5 -52.5t-70.5 -140.5v-663 q0 -13 -9 -22t-22 -9h-135q-14 0 -22.5 9t-8.5 22zM464.5 1191q-5.5 11 2.5 26l108 200q11 23 37 23h127q18 0 24 -11t-3 -26l-131 -203q-11 -20 -37 -20h-105q-17 0 -22.5 11z" />
<glyph unicode="&#x145;" horiz-adv-x="1368" d="M168 31v1372q0 13 9 22t22 9h131q25 0 37 -21l626 -1014q2 -4 5 -5t5.5 1.5t2.5 7.5v1000q0 14 8.5 22.5t21.5 8.5h135q13 0 22 -9t9 -22v-1372q0 -13 -9 -22t-22 -9h-133q-26 0 -37 20l-626 1020q-2 4 -5 5t-5.5 -1.5t-2.5 -7.5l3 -1005q0 -13 -8.5 -22t-22.5 -9h-135 q-13 0 -22 9t-9 22zM546.5 -362q-5.5 11 2.5 26l108 201q11 22 37 22h127q18 0 24 -11t-3 -26l-131 -202q-12 -21 -37 -21h-105q-17 0 -22.5 11z" />
<glyph unicode="&#x146;" horiz-adv-x="1110" d="M143 31v981q0 13 8.5 21.5t22.5 8.5h135q14 0 22.5 -8.5t8.5 -21.5v-58q0 -6 3.5 -8t6.5 2q85 109 258 109q167 0 266 -97.5t99 -263.5v-665q0 -13 -8.5 -22t-22.5 -9h-135q-13 0 -22 9t-9 22v626q0 102 -59.5 166t-157.5 64q-89 0 -148.5 -52.5t-70.5 -140.5v-663 q0 -13 -9 -22t-22 -9h-135q-14 0 -22.5 9t-8.5 22zM403.5 -362q-5.5 11 2.5 26l108 201q11 22 37 22h127q18 0 23.5 -11t-3.5 -26l-131 -202q-12 -21 -37 -21h-104q-17 0 -22.5 11z" />
<glyph unicode="&#x147;" horiz-adv-x="1368" d="M168 31v1372q0 13 9 22t22 9h131q25 0 37 -21l626 -1014q2 -4 5 -5t5.5 1.5t2.5 7.5v1000q0 14 8.5 22.5t21.5 8.5h135q13 0 22 -9t9 -22v-1372q0 -13 -9 -22t-22 -9h-133q-26 0 -37 20l-626 1020q-2 4 -5 5t-5.5 -1.5t-2.5 -7.5l3 -1005q0 -13 -8.5 -22t-22.5 -9h-135 q-13 0 -22 9t-9 22zM410.5 1825q4.5 10 23.5 10h92q25 0 37 -18l105 -148q7 -11 14 0l104 148q12 18 39 18h88q19 0 24.5 -11t-5.5 -26l-146 -205q-12 -18 -36 -18h-152q-27 0 -39 18l-143 205q-10 17 -5.5 27z" />
<glyph unicode="&#x148;" horiz-adv-x="1110" d="M143 31v981q0 13 8.5 21.5t22.5 8.5h135q14 0 22.5 -8.5t8.5 -21.5v-58q0 -6 3.5 -8t6.5 2q85 109 258 109q167 0 266 -97.5t99 -263.5v-665q0 -13 -8.5 -22t-22.5 -9h-135q-13 0 -22 9t-9 22v626q0 102 -59.5 166t-157.5 64q-89 0 -148.5 -52.5t-70.5 -140.5v-663 q0 -13 -9 -22t-22 -9h-135q-14 0 -22.5 9t-8.5 22zM295.5 1409q4.5 10 23.5 10h93q25 0 37 -18l104 -148q7 -11 14 0l105 148q12 18 39 18h88q19 0 24 -11t-6 -26l-145 -204q-13 -19 -37 -19h-152q-26 0 -39 19l-143 204q-10 17 -5.5 27z" />
<glyph unicode="&#x14a;" horiz-adv-x="1376" d="M168 31v1372q0 13 9 22t22 9h131q25 0 37 -21l626 -1014q2 -4 5 -5t5.5 1.5t2.5 7.5v1000q0 14 8.5 22.5t21.5 8.5h135q13 0 22 -9t9 -22v-268q0 -11 4 -11h2v-1099q0 -102 -18 -169t-62.5 -113t-118 -65.5t-186.5 -19.5q-30 0 -30 31v106q0 31 32 31q98 0 140 41.5 t47 130.5q0 4 -4 12l-633 1030q-2 4 -5 5t-5.5 -1.5t-2.5 -7.5l3 -1005q0 -13 -8.5 -22t-22.5 -9h-135q-13 0 -22 9t-9 22z" />
<glyph unicode="&#x14b;" horiz-adv-x="1110" d="M143 31v981q0 13 8.5 21.5t22.5 8.5h135q14 0 22.5 -8.5t8.5 -21.5v-58q0 -6 4 -8t8 4q85 107 256 107q167 0 266 -97.5t99 -263.5v-262q0 -2 4 -10q4 -12 4 -27v-397q0 -95 -16 -159.5t-56 -112t-110 -70.5t-176 -25q-33 0 -33 31v98q0 30 31 33q86 7 124.5 56t38.5 143 q0 2 -4 10q-4 12 -4 27v626q0 102 -59.5 166t-157.5 64q-89 0 -148.5 -52.5t-70.5 -140.5v-663q0 -13 -9 -22t-22 -9h-135q-14 0 -22.5 9t-8.5 22z" />
<glyph unicode="&#x14c;" horiz-adv-x="1273" d="M129 473v488q0 220 139.5 354.5t366.5 134.5q229 0 368.5 -134.5t139.5 -354.5v-488q0 -221 -139.5 -356t-368.5 -135q-227 0 -366.5 135t-139.5 356zM326 465q0 -141 85.5 -227t223.5 -86q140 0 225.5 86t85.5 227v498q0 142 -85.5 229.5t-225.5 87.5 q-138 0 -223.5 -87.5t-85.5 -229.5v-498zM352 1642v76q0 14 9 22.5t22 8.5h508q13 0 22 -8.5t9 -22.5v-76q0 -13 -8.5 -21.5t-22.5 -8.5h-508q-14 0 -22.5 8.5t-8.5 21.5z" />
<glyph unicode="&#x14d;" horiz-adv-x="1136" d="M113 524q0 148 34 246q44 135 157 212t269 77q149 0 258.5 -76.5t155.5 -210.5q37 -104 37 -246q0 -145 -37 -252q-46 -136 -156.5 -213t-259.5 -77q-154 0 -265.5 77t-155.5 213q-37 109 -37 250zM285 1251v76q0 14 8.5 22.5t21.5 8.5h508q13 0 22 -9t9 -22v-76 q0 -13 -8.5 -21.5t-22.5 -8.5h-508q-13 0 -21.5 8.5t-8.5 21.5zM311 522q0 -115 23 -192q25 -83 87 -129.5t150 -46.5q83 0 144.5 46.5t87.5 129.5q22 77 22 192q0 116 -20 191q-26 84 -88.5 130t-149.5 46q-85 0 -146 -46.5t-87 -129.5q-23 -74 -23 -191z" />
<glyph unicode="&#x150;" horiz-adv-x="1273" d="M129 473v488q0 220 139.5 354.5t366.5 134.5q229 0 368.5 -134.5t139.5 -354.5v-488q0 -221 -139.5 -356t-368.5 -135q-227 0 -366.5 135t-139.5 356zM326 465q0 -141 85.5 -227t223.5 -86q140 0 225.5 86t85.5 227v498q0 142 -85.5 229.5t-225.5 87.5 q-138 0 -223.5 -87.5t-85.5 -229.5v-498zM388.5 1593q-6.5 10 0.5 27l100 201q13 22 35 22h119q17 0 23 -11t-2 -26l-109 -200q-11 -23 -37 -23h-106q-17 0 -23.5 10zM733 1594q-6 11 2 26l107 201q11 22 37 22h110q18 0 24 -10t-3 -27l-111 -200q-11 -23 -37 -23h-106 q-17 0 -23 11z" />
<glyph unicode="&#x151;" horiz-adv-x="1136" d="M113 524q0 148 34 246q44 135 157 212t269 77q149 0 258.5 -76.5t155.5 -210.5q37 -104 37 -246q0 -145 -37 -252q-46 -136 -156.5 -213t-259.5 -77q-154 0 -265.5 77t-155.5 213q-37 109 -37 250zM311 522q0 -115 23 -192q25 -83 87 -129.5t150 -46.5q83 0 144.5 46.5 t87.5 129.5q22 77 22 192q0 116 -20 191q-26 84 -88.5 130t-149.5 46q-85 0 -146 -46.5t-87 -129.5q-23 -74 -23 -191zM321 1202q-6 10 1 27l100 201q13 22 35 22h118q17 0 23 -11t-2 -26l-109 -201q-11 -22 -36 -22h-107q-17 0 -23 10zM665.5 1203q-5.5 11 2.5 26l106 201 q11 22 37 22h111q18 0 23.5 -10t-3.5 -27l-111 -201q-11 -22 -36 -22h-107q-17 0 -22.5 11z" />
<glyph unicode="&#x152;" horiz-adv-x="1892" d="M129 449v534q0 204 124.5 335.5t313.5 131.5q190 0 322 -119q5 -5 8.5 -3.5t3.5 7.5v68q0 13 8.5 22t22.5 9h825q13 0 22 -9t9 -22v-109q0 -13 -8.5 -21.5t-22.5 -8.5h-649q-10 0 -10 -11v-436q0 -10 10 -10h422q14 0 22.5 -8.5t8.5 -22.5v-108q0 -14 -8.5 -22.5 t-22.5 -8.5h-422q-10 0 -10 -10v-447q0 -10 10 -10h649q13 0 22 -9t9 -22v-108q0 -13 -9 -22t-22 -9h-825q-14 0 -22.5 9t-8.5 22v65q0 4 -1.5 6t-4.5 1.5t-6 -3.5q-134 -118 -322 -118q-189 0 -313.5 131.5t-124.5 335.5zM326 442q0 -127 79 -208.5t207 -81.5 q129 0 209 81.5t80 208.5v543q0 129 -80 212t-209 83q-128 0 -207 -83t-79 -212v-543z" />
<glyph unicode="&#x153;" horiz-adv-x="1767" d="M113 524q0 167 24 246q40 132 149.5 210.5t258.5 78.5q100 0 187 -43.5t147 -118.5q8 -8 14 0q61 75 146.5 118.5t185.5 43.5q152 0 263 -80.5t150 -210.5q22 -85 25 -279q0 -32 -31 -32h-631q-10 0 -10 -11q3 -75 15 -116q21 -85 86.5 -132.5t169.5 -47.5q68 0 129 33.5 t96 90.5q17 27 41 9l80 -58q23 -17 8 -41q-57 -94 -154 -147t-223 -53q-216 0 -346 163q-6 9 -12 0q-61 -76 -147 -119.5t-189 -43.5q-149 0 -257.5 79t-150.5 211q-24 86 -24 250zM309 524q0 -129 19 -194q18 -81 75 -128.5t142 -47.5q84 0 142.5 48.5t76.5 127.5 q16 55 16 194t-16 191q-18 78 -77 126t-142 48q-84 0 -142 -48t-77 -126q-17 -58 -17 -191zM993 604q0 -10 11 -10h450q10 0 10 10q-4 83 -12 109q-19 79 -78.5 127.5t-146.5 48.5q-85 0 -143.5 -48.5t-77.5 -127.5q-10 -46 -13 -109z" />
<glyph unicode="&#x154;" horiz-adv-x="1255" d="M168 31v1374q0 13 9 22t22 9h540q186 0 299 -112.5t113 -295.5q0 -142 -75.5 -241.5t-205.5 -133.5q-9 -3 -6 -12l291 -604q7 -17 1 -27t-23 -10h-140q-25 0 -35 23l-282 606q-4 8 -12 8h-289q-10 0 -10 -10v-596q0 -13 -8.5 -22t-22.5 -9h-135q-13 0 -22 9t-9 22z M365 801q0 -10 10 -10h340q107 0 173 65t66 170q0 107 -66 173.5t-173 66.5h-340q-10 0 -10 -11v-454zM505.5 1582q-5.5 11 2.5 26l108 200q12 23 37 23h127q18 0 24 -11t-3 -26l-131 -203q-11 -20 -37 -20h-105q-17 0 -22.5 11z" />
<glyph unicode="&#x155;" horiz-adv-x="759" d="M143 31v981q0 13 8.5 21.5t22.5 8.5h135q14 0 22.5 -8.5t8.5 -21.5v-94q0 -8 3.5 -9.5t6.5 4.5q92 140 250 140q59 0 111 -23q23 -11 16 -39l-29 -133q-3 -16 -12 -20t-24 2q-43 14 -101 8q-96 -3 -158.5 -66t-62.5 -164v-587q0 -13 -9 -22t-22 -9h-135q-14 0 -22.5 9 t-8.5 22zM346 1203q-6 11 2 26l109 201q11 22 37 22h127q18 0 23.5 -11t-3.5 -26l-131 -203q-11 -20 -37 -20h-104q-17 0 -23 11z" />
<glyph unicode="&#x156;" horiz-adv-x="1255" d="M168 31v1374q0 13 9 22t22 9h540q186 0 299 -112.5t113 -295.5q0 -142 -75.5 -241.5t-205.5 -133.5q-9 -3 -6 -12l291 -604q7 -17 1 -27t-23 -10h-140q-25 0 -35 23l-282 606q-4 8 -12 8h-289q-10 0 -10 -10v-596q0 -13 -8.5 -22t-22.5 -9h-135q-13 0 -22 9t-9 22z M365 801q0 -10 10 -10h340q107 0 173 65t66 170q0 107 -66 173.5t-173 66.5h-340q-10 0 -10 -11v-454zM464.5 -362q-5.5 11 2.5 26l108 201q11 22 37 22h127q18 0 24 -11t-3 -26l-131 -202q-12 -21 -37 -21h-105q-17 0 -22.5 11z" />
<glyph unicode="&#x157;" horiz-adv-x="765" d="M16 -362q-6 11 2 26l109 201q11 22 37 22h127q18 0 23.5 -11t-3.5 -26l-131 -202q-12 -21 -37 -21h-104q-17 0 -23 11zM143 31v981q0 13 8.5 21.5t22.5 8.5h135q14 0 22.5 -8.5t8.5 -21.5v-94q0 -8 3.5 -9.5t6.5 4.5q92 140 250 140q59 0 111 -23q23 -11 16 -39l-29 -133 q-3 -16 -12 -20t-24 2q-43 14 -101 8q-96 -3 -158.5 -66t-62.5 -164v-587q0 -13 -9 -22t-22 -9h-135q-14 0 -22.5 9t-8.5 22z" />
<glyph unicode="&#x158;" horiz-adv-x="1255" d="M168 31v1374q0 13 9 22t22 9h540q186 0 299 -112.5t113 -295.5q0 -142 -75.5 -241.5t-205.5 -133.5q-9 -3 -6 -12l291 -604q7 -17 1 -27t-23 -10h-140q-25 0 -35 23l-282 606q-4 8 -12 8h-289q-10 0 -10 -10v-596q0 -13 -8.5 -22t-22.5 -9h-135q-13 0 -22 9t-9 22z M342 1774q-22 36 18 36h93q24 0 36 -18l105 -147q7 -11 14 0l105 147q12 18 39 18h88q19 0 24 -10.5t-6 -25.5l-145 -205q-13 -19 -37 -19h-152q-26 0 -39 19zM365 801q0 -10 10 -10h340q107 0 173 65t66 170q0 107 -66 173.5t-173 66.5h-340q-10 0 -10 -11v-454z" />
<glyph unicode="&#x159;" horiz-adv-x="759" d="M143 31v981q0 13 8.5 21.5t22.5 8.5h135q14 0 22.5 -8.5t8.5 -21.5v-94q0 -8 3.5 -9.5t6.5 4.5q92 140 250 140q59 0 111 -23q23 -11 16 -39l-29 -133q-3 -16 -12 -20t-24 2q-43 14 -101 8q-96 -3 -158.5 -66t-62.5 -164v-587q0 -13 -9 -22t-22 -9h-135q-14 0 -22.5 9 t-8.5 22zM177 1422q5 10 24 10h92q24 0 37 -19l104 -147q8 -11 15 0l104 147q13 19 39 19h88q19 0 24 -11t-6 -26l-145 -205q-13 -19 -37 -19h-151q-26 0 -39 19l-144 205q-10 17 -5 27z" />
<glyph unicode="&#x15a;" horiz-adv-x="1204" d="M102 383v49q0 14 9 22.5t22 8.5h131q14 0 22.5 -8.5t8.5 -22.5v-39q0 -104 89.5 -171.5t240.5 -67.5q141 0 212.5 59t71.5 156q0 91 -76 147t-274 135q-64 25 -99 39t-88.5 40t-83.5 46.5t-66.5 53t-55.5 66.5t-32 79.5t-13 97.5q0 177 125.5 277t341.5 100 q229 0 367.5 -112t138.5 -296v-30q0 -14 -9 -22.5t-22 -8.5h-133q-14 0 -22.5 7.5t-8.5 19.5v24q0 107 -84.5 177.5t-234.5 70.5q-128 0 -197.5 -52.5t-69.5 -150.5q0 -29 7.5 -53.5t18.5 -44t36 -39t47.5 -34t65.5 -33.5t77.5 -33t96.5 -37q53 -20 85 -33.5t79.5 -35 t76.5 -40t65 -44.5t58 -53.5t42 -61t29 -74t9 -86.5q0 -177 -133.5 -284t-362.5 -107q-232 0 -370 108.5t-138 290.5zM495.5 1598q-5.5 11 2.5 26l108 201q11 22 37 22h127q18 0 24 -11t-3 -26l-132 -202q-12 -21 -36 -21h-105q-17 0 -22.5 11z" />
<glyph unicode="&#x15b;" horiz-adv-x="999" d="M100 268v13q0 13 8.5 21.5t22.5 8.5h127q31 0 31 -14v-16q0 -57 62.5 -100.5t156.5 -43.5t151.5 40.5t57.5 101.5q0 26 -13 46.5t-29 34t-52 28t-58.5 21.5t-72.5 21q-67 18 -110.5 32.5t-100.5 42t-90.5 58.5t-57.5 80.5t-24 110.5q0 138 108 218.5t285 80.5 q179 0 289 -83t110 -212q0 -12 -8.5 -19.5t-22.5 -7.5h-122q-31 0 -31 14v13q0 59 -58.5 99t-158.5 40q-91 0 -147 -34.5t-56 -94.5q0 -26 12.5 -47t29.5 -35t50.5 -28.5t61 -23.5t75.5 -22q49 -13 77.5 -21.5t75 -25t74.5 -32t62 -40.5t53 -52.5t32 -66t13 -83.5 q0 -139 -109.5 -221t-293.5 -82q-183 0 -296.5 80.5t-113.5 199.5zM405.5 1201q-5.5 11 2.5 26l108 200q12 23 37 23h127q18 0 23.5 -11t-3.5 -26l-131 -203q-11 -20 -37 -20h-104q-17 0 -22.5 11z" />
<glyph unicode="&#x15e;" horiz-adv-x="1204" d="M102 383v49q0 14 9 22.5t22 8.5h131q14 0 22.5 -8.5t8.5 -22.5v-39q0 -104 89.5 -171.5t240.5 -67.5q141 0 212.5 59t71.5 156q0 91 -76 147t-274 135q-64 25 -99 39t-88.5 40t-83.5 46.5t-66.5 53t-55.5 66.5t-32 79.5t-13 97.5q0 177 125.5 277t341.5 100 q229 0 367.5 -112t138.5 -296v-30q0 -14 -9 -22.5t-22 -8.5h-133q-14 0 -22.5 7.5t-8.5 19.5v24q0 107 -84.5 177.5t-234.5 70.5q-128 0 -197.5 -52.5t-69.5 -150.5q0 -29 7.5 -53.5t18.5 -44t36 -39t47.5 -34t65.5 -33.5t77.5 -33t96.5 -37q53 -20 85 -33.5t79.5 -35 t76.5 -40t65 -44.5t58 -53.5t42 -61t29 -74t9 -86.5q0 -160 -110 -263.5t-304 -123.5q-14 -3 -4 -13q119 -110 90 -229q-12 -49 -44 -79t-73.5 -38.5t-81 -7t-77.5 11.5q-26 6 -23 37l8 47q6 29 37 23q44 -10 78 5t43 54q20 85 -100 183q-8 4 -13 4q-199 20 -314.5 126 t-115.5 271z" />
<glyph unicode="&#x15f;" horiz-adv-x="999" d="M100 268v13q0 13 8.5 21.5t22.5 8.5h127q31 0 31 -14v-16q0 -57 62.5 -100.5t156.5 -43.5t151.5 40.5t57.5 101.5q0 26 -13 46.5t-29 34t-52 28t-58.5 21.5t-72.5 21q-67 18 -110.5 32.5t-100.5 42t-90.5 58.5t-57.5 80.5t-24 110.5q0 138 108 218.5t285 80.5 q179 0 289 -83t110 -212q0 -12 -8.5 -19.5t-22.5 -7.5h-122q-31 0 -31 14v13q0 59 -58.5 99t-158.5 40q-91 0 -147 -34.5t-56 -94.5q0 -26 12.5 -47t29.5 -35t50.5 -28.5t61 -23.5t75.5 -22q49 -13 77.5 -21.5t75 -25t74.5 -32t62 -40.5t53 -52.5t32 -66t13 -83.5 q0 -121 -84.5 -199.5t-228.5 -97.5q-13 -3 -4 -12q119 -111 90 -232q-12 -49 -44 -78.5t-73.5 -38.5t-81 -7t-77.5 12q-26 6 -23 36l8 47q6 29 37 23q44 -10 78 5t43 54q20 85 -100 183q-8 4 -13 4q-153 17 -246.5 94.5t-93.5 183.5z" />
<glyph unicode="&#x160;" horiz-adv-x="1204" d="M102 383v49q0 14 9 22.5t22 8.5h131q14 0 22.5 -8.5t8.5 -22.5v-39q0 -104 89.5 -171.5t240.5 -67.5q141 0 212.5 59t71.5 156q0 91 -76 147t-274 135q-64 25 -99 39t-88.5 40t-83.5 46.5t-66.5 53t-55.5 66.5t-32 79.5t-13 97.5q0 177 125.5 277t341.5 100 q229 0 367.5 -112t138.5 -296v-30q0 -14 -9 -22.5t-22 -8.5h-133q-14 0 -22.5 7.5t-8.5 19.5v24q0 107 -84.5 177.5t-234.5 70.5q-128 0 -197.5 -52.5t-69.5 -150.5q0 -29 7.5 -53.5t18.5 -44t36 -39t47.5 -34t65.5 -33.5t77.5 -33t96.5 -37q53 -20 85 -33.5t79.5 -35 t76.5 -40t65 -44.5t58 -53.5t42 -61t29 -74t9 -86.5q0 -177 -133.5 -284t-362.5 -107q-232 0 -370 108.5t-138 290.5zM326.5 1817q4.5 10 23.5 10h92q24 0 37 -19l105 -147q7 -11 14 0l104 147q13 19 39 19h88q19 0 24.5 -11t-5.5 -26l-146 -205q-12 -18 -36 -18h-152 q-27 0 -39 18l-143 205q-10 17 -5.5 27z" />
<glyph unicode="&#x161;" horiz-adv-x="999" d="M100 268v13q0 13 8.5 21.5t22.5 8.5h127q31 0 31 -14v-16q0 -57 62.5 -100.5t156.5 -43.5t151.5 40.5t57.5 101.5q0 26 -13 46.5t-29 34t-52 28t-58.5 21.5t-72.5 21q-67 18 -110.5 32.5t-100.5 42t-90.5 58.5t-57.5 80.5t-24 110.5q0 138 108 218.5t285 80.5 q179 0 289 -83t110 -212q0 -12 -8.5 -19.5t-22.5 -7.5h-122q-31 0 -31 14v13q0 59 -58.5 99t-158.5 40q-91 0 -147 -34.5t-56 -94.5q0 -26 12.5 -47t29.5 -35t50.5 -28.5t61 -23.5t75.5 -22q49 -13 77.5 -21.5t75 -25t74.5 -32t62 -40.5t53 -52.5t32 -66t13 -83.5 q0 -139 -109.5 -221t-293.5 -82q-183 0 -296.5 80.5t-113.5 199.5zM236.5 1420q4.5 10 23.5 10h92q24 0 37 -19l105 -147q7 -11 14 0l104 147q13 19 39 19h88q19 0 24.5 -11t-5.5 -26l-146 -205q-13 -19 -37 -19h-151q-26 0 -39 19l-143 205q-10 17 -5.5 27z" />
<glyph unicode="&#x162;" horiz-adv-x="1175" d="M78 1292v111q0 13 9 22t22 9h960q13 0 22 -9t9 -22v-111q0 -13 -8.5 -21.5t-22.5 -8.5h-381q-10 0 -10 -11v-1220q0 -31 -6 -31q-7 0 2 -9l4 -3q114 -108 84 -226q-12 -49 -44 -78.5t-73.5 -38.5t-81.5 -7t-78 12q-25 6 -22 37l8 47q6 28 37 22q44 -10 78 5.5t43 54.5 q20 82 -97 180q-8 4 -12 4h-8q-14 0 -22.5 9t-8.5 22v1220q0 11 -10 11h-362q-14 0 -22.5 8.5t-8.5 21.5z" />
<glyph unicode="&#x163;" horiz-adv-x="755" d="M66 911v101q0 14 8 22t22 8h113q10 0 10 11v229q0 14 8.5 22.5t22.5 8.5h127q13 0 22 -8.5t9 -22.5v-229q0 -11 10 -11h209q13 0 21.5 -8t8.5 -22v-101q0 -13 -8.5 -21.5t-21.5 -8.5h-209q-10 0 -10 -11v-534q0 -88 38 -125t121 -37h49q14 0 22.5 -9t8.5 -22v-106 q0 -30 -31 -33q-14 0 -42 -1t-42 -1q-76 0 -129.5 11t-97 39t-65 80.5t-21.5 131.5v606q0 11 -10 11h-113q-14 0 -22 8.5t-8 21.5zM362 -391l9 47q6 28 37 22q44 -10 77.5 5.5t42.5 54.5q17 81 -86 170q-17 15 -13 26t26 11h59q19 0 37 -15q141 -113 111 -245 q-12 -49 -44 -79t-73.5 -38.5t-81.5 -7t-78 11.5q-26 6 -23 37z" />
<glyph unicode="&#x164;" horiz-adv-x="1175" d="M78 1292v111q0 13 9 22t22 9h960q13 0 22 -9t9 -22v-111q0 -13 -8.5 -21.5t-22.5 -8.5h-381q-10 0 -10 -11v-1220q0 -13 -9 -22t-22 -9h-135q-14 0 -22.5 9t-8.5 22v1220q0 11 -10 11h-362q-14 0 -22.5 8.5t-8.5 21.5zM318.5 1788q4.5 10 23.5 10h92q25 0 37 -18 l104 -148q7 -11 15 0l104 148q12 18 39 18h88q19 0 24.5 -11t-5.5 -26l-146 -205q-12 -18 -37 -18h-151q-27 0 -39 18l-143 205q-10 17 -5.5 27z" />
<glyph unicode="&#x165;" horiz-adv-x="755" d="M54 1667q5 10 24 10h92q25 0 37 -18l104 -148q7 -11 15 0l104 148q12 18 39 18h88q19 0 24 -11t-6 -26l-145 -204q-13 -19 -37 -19h-151q-26 0 -39 19l-144 204q-10 17 -5 27zM66 911v101q0 14 8 22t22 8h113q10 0 10 11v229q0 14 8.5 22.5t22.5 8.5h127q13 0 22 -8.5 t9 -22.5v-229q0 -11 10 -11h209q13 0 21.5 -8t8.5 -22v-101q0 -13 -8.5 -21.5t-21.5 -8.5h-209q-10 0 -10 -11v-534q0 -88 38 -125t121 -37h49q14 0 22.5 -9t8.5 -22v-106q0 -30 -31 -33q-14 0 -42 -1t-42 -1q-76 0 -129.5 11t-97 39t-65 80.5t-21.5 131.5v606q0 11 -10 11 h-113q-14 0 -22 8.5t-8 21.5z" />
<glyph unicode="&#x166;" horiz-adv-x="1228" d="M78 1292v111q0 13 9 22t22 9h960q13 0 22 -9t9 -22v-111q0 -13 -8.5 -21.5t-22.5 -8.5h-381q-10 0 -10 -11v-391q0 -10 10 -10h205q13 0 22 -9t9 -22v-63q0 -14 -9 -22.5t-22 -8.5h-205q-10 0 -10 -10v-684q0 -13 -9 -22t-22 -9h-135q-14 0 -22.5 9t-8.5 22v684 q0 10 -10 10h-192q-13 0 -22 8.5t-9 22.5v63q0 13 9 22t22 9h192q10 0 10 10v391q0 11 -10 11h-362q-14 0 -22.5 8.5t-8.5 21.5z" />
<glyph unicode="&#x167;" horiz-adv-x="1228" d="M66 911v101q0 14 8 22t22 8h113q10 0 10 11v229q0 14 8.5 22.5t22.5 8.5h127q13 0 22 -8.5t9 -22.5v-229q0 -11 10 -11h209q13 0 21.5 -8t8.5 -22v-101q0 -13 -8.5 -21.5t-21.5 -8.5h-209q-10 0 -10 -11v-147q0 -10 10 -10h203q13 0 21.5 -8.5t8.5 -22.5v-64 q0 -14 -8.5 -22t-21.5 -8h-203q-10 0 -10 -10v-242q0 -88 38 -125t121 -37h49q14 0 22.5 -9t8.5 -22v-106q0 -30 -31 -33q-14 0 -42 -1t-42 -1q-76 0 -129.5 11t-97 39t-65 80.5t-21.5 131.5v314q0 10 -10 10h-103q-14 0 -22 8t-8 22v64q0 14 8.5 22.5t21.5 8.5h103 q10 0 10 10v147q0 11 -10 11h-113q-14 0 -22 8.5t-8 21.5z" />
<glyph unicode="&#x16a;" horiz-adv-x="1312" d="M154 455v948q0 14 8.5 22.5t21.5 8.5h135q13 0 22 -9t9 -22v-952q0 -132 84.5 -214.5t222.5 -82.5q136 0 221 82.5t85 214.5v952q0 14 8.5 22.5t21.5 8.5h135q14 0 22.5 -9t8.5 -22v-948q0 -212 -138 -341.5t-364 -129.5t-364.5 129.5t-138.5 341.5zM375 1651v75 q0 14 8.5 22.5t22.5 8.5h507q13 0 22 -8.5t9 -22.5v-75q0 -13 -9 -22t-22 -9h-507q-14 0 -22.5 9t-8.5 22z" />
<glyph unicode="&#x16b;" d="M129 324v688q0 13 8.5 21.5t22.5 8.5h133q14 0 22.5 -8.5t8.5 -21.5v-627q0 -106 56.5 -167.5t158.5 -61.5q103 0 164 62.5t61 166.5v627q0 13 8.5 21.5t22.5 8.5h133q14 0 22 -8t8 -22v-981q0 -14 -8.5 -22.5t-21.5 -8.5h-133q-13 0 -22 9t-9 22v61q0 4 -1.5 6t-4.5 1.5 t-6 -3.5q-81 -110 -250 -110q-100 0 -183 36.5t-136.5 115t-53.5 186.5zM262 1235v76q0 13 8.5 21.5t22.5 8.5h508q13 0 21.5 -8.5t8.5 -21.5v-76q0 -14 -8.5 -22.5t-21.5 -8.5h-508q-13 0 -22 9t-9 22z" />
<glyph unicode="&#x16e;" horiz-adv-x="1312" d="M154 455v948q0 14 8.5 22.5t21.5 8.5h135q13 0 22 -9t9 -22v-952q0 -132 84.5 -214.5t222.5 -82.5q136 0 221 82.5t85 214.5v952q0 14 8.5 22.5t21.5 8.5h135q14 0 22.5 -9t8.5 -22v-948q0 -212 -138 -341.5t-364 -129.5t-364.5 129.5t-138.5 341.5zM438 1792 q0 90 63.5 152.5t155.5 62.5t156 -63t64 -152q0 -92 -63.5 -154.5t-156.5 -62.5q-92 0 -155.5 62.5t-63.5 154.5zM539 1792q0 -51 34 -86t84 -35q51 0 86 35t35 86t-35 85t-86 34q-50 0 -84 -34t-34 -85z" />
<glyph unicode="&#x16f;" d="M129 324v688q0 13 8.5 21.5t22.5 8.5h133q14 0 22.5 -8.5t8.5 -21.5v-627q0 -106 56.5 -167.5t158.5 -61.5q103 0 164 62.5t61 166.5v627q0 13 8.5 21.5t22.5 8.5h133q14 0 22 -8t8 -22v-981q0 -14 -8.5 -22.5t-21.5 -8.5h-133q-13 0 -22 9t-9 22v61q0 4 -1.5 6t-4.5 1.5 t-6 -3.5q-81 -110 -250 -110q-100 0 -183 36.5t-136.5 115t-53.5 186.5zM326 1376q0 90 63.5 152.5t155.5 62.5t155.5 -62.5t63.5 -152.5q0 -92 -63.5 -154.5t-155.5 -62.5t-155.5 62.5t-63.5 154.5zM426 1376q0 -51 34.5 -86t84.5 -35q51 0 86 35t35 86t-35 85t-86 34 q-50 0 -84.5 -34t-34.5 -85z" />
<glyph unicode="&#x170;" horiz-adv-x="1312" d="M154 455v948q0 14 8.5 22.5t21.5 8.5h135q13 0 22 -9t9 -22v-952q0 -132 84.5 -214.5t222.5 -82.5q136 0 221 82.5t85 214.5v952q0 14 8.5 22.5t21.5 8.5h135q14 0 22.5 -9t8.5 -22v-948q0 -212 -138 -341.5t-364 -129.5t-364.5 129.5t-138.5 341.5zM411 1601q-6 10 1 27 l100 201q13 22 35 22h119q17 0 22.5 -10.5t-2.5 -25.5l-108 -201q-12 -23 -37 -23h-107q-17 0 -23 10zM755.5 1602q-5.5 11 2.5 26l106 201q11 22 37 22h111q18 0 23.5 -9.5t-3.5 -26.5l-110 -201q-12 -23 -37 -23h-107q-17 0 -22.5 11z" />
<glyph unicode="&#x171;" d="M129 324v688q0 13 8.5 21.5t22.5 8.5h133q14 0 22.5 -8.5t8.5 -21.5v-627q0 -106 56.5 -167.5t158.5 -61.5q103 0 164 62.5t61 166.5v627q0 13 8.5 21.5t22.5 8.5h133q14 0 22 -8t8 -22v-981q0 -14 -8.5 -22.5t-21.5 -8.5h-133q-13 0 -22 9t-9 22v61q0 4 -1.5 6t-4.5 1.5 t-6 -3.5q-81 -110 -250 -110q-100 0 -183 36.5t-136.5 115t-53.5 186.5zM298 1185.5q-6 9.5 1 26.5l100 201q13 23 35 23h119q17 0 22.5 -11t-2.5 -26l-108 -201q-11 -22 -37 -22h-106q-18 0 -24 9.5zM643 1186.5q-6 10.5 2 25.5l107 201q12 23 36 23h111q18 0 24 -10 t-3 -27l-111 -201q-11 -22 -37 -22h-106q-17 0 -23 10.5z" />
<glyph unicode="&#x172;" horiz-adv-x="1312" d="M154 455v948q0 14 8.5 22.5t21.5 8.5h135q13 0 22 -9t9 -22v-952q0 -132 84.5 -214.5t222.5 -82.5q136 0 221 82.5t85 214.5v952q0 14 8.5 22.5t21.5 8.5h135q14 0 22.5 -9t8.5 -22v-948q0 -197 -121.5 -324.5t-324.5 -144.5q-5 0 -13 -4q-102 -91 -82 -168 q9 -39 43 -54.5t78 -5.5q31 6 37 -22l8 -47q3 -31 -22 -37q-38 -10 -78 -12t-81.5 7t-73.5 38.5t-44 78.5q-29 112 76 217q10 10 -4 13q-184 29 -293.5 154t-109.5 311z" />
<glyph unicode="&#x173;" horiz-adv-x="1107" d="M129 324v688q0 13 8.5 21.5t22.5 8.5h133q14 0 22.5 -8.5t8.5 -21.5v-627q0 -106 56.5 -167.5t158.5 -61.5q103 0 164 62.5t61 166.5v627q0 13 8.5 21.5t22.5 8.5h133q14 0 22 -8t8 -22v-1006q0 -8 -4 -12q-2 -2 -14 -12.5t-20 -18.5q-103 -89 -86 -170q9 -39 42.5 -54 t77.5 -5q31 6 37 -23l8 -47q3 -31 -22 -37q-38 -10 -78 -11.5t-81.5 7t-73.5 38.5t-44 79q-33 132 111 248q4 3 5 6t-0.5 4.5t-4.5 1.5h-16q-13 0 -22 9t-9 22v61q0 4 -1.5 6t-4.5 1.5t-6 -3.5q-81 -110 -250 -110q-100 0 -183 36.5t-136.5 115t-53.5 186.5z" />
<glyph unicode="&#x174;" horiz-adv-x="1779" d="M49 1399q-9 35 25 35h147q26 0 33 -27l266 -1008q2 -6 6 -6t6 6l250 1008q7 27 33 27h146q25 0 32 -27l264 -1008q1 -6 6 -6t7 6l266 1008q7 27 33 27h137q16 0 23.5 -9t3.5 -26l-367 -1372q-7 -27 -33 -27h-141q-26 0 -33 27l-264 1044q-1 6 -6 6t-6 -6l-256 -1044 q-7 -27 -33 -27h-133q-28 0 -35 27zM621 1569.5q-5 10.5 6 25.5l151 205q14 19 37 19h141q23 0 37 -19l154 -205q11 -15 5.5 -25.5t-24.5 -10.5h-92q-27 0 -39 18l-102 147q-7 10 -14 0l-105 -147q-12 -18 -37 -18h-94q-19 0 -24 10.5z" />
<glyph unicode="&#x175;" horiz-adv-x="1521" d="M61 1008q-4 17 3.5 25.5t23.5 8.5h139q27 0 33 -26l191 -731q1 -6 6 -6t6 6l194 729q7 26 33 26h127q27 0 33 -26l201 -731q1 -6 6 -6t6 6l199 733q6 26 32 26l140 -2q35 0 26 -34l-291 -979q-7 -27 -34 -27h-144q-29 0 -35 27l-196 678q-2 6 -6 6t-6 -6l-187 -678 q-7 -27 -33 -27h-145q-29 0 -35 27zM479.5 1178q-5.5 11 5.5 26l152 205q13 18 37 18h141q24 0 37 -18l154 -205q11 -15 5.5 -26t-24.5 -11h-92q-26 0 -39 19l-102 147q-8 11 -15 0l-104 -147q-13 -19 -37 -19h-94q-19 0 -24.5 11z" />
<glyph unicode="&#x176;" horiz-adv-x="1198" d="M76.5 1423q6.5 11 23.5 11h146q26 0 37 -23l309 -588q6 -9 12 0l309 588q11 23 37 23h148q17 0 22.5 -11t-2.5 -26l-418 -787q-4 -8 -4 -12v-565q0 -14 -8.5 -22.5t-21.5 -8.5h-136q-13 0 -21.5 8.5t-8.5 22.5v565q0 4 -4 12l-418 787q-8 15 -1.5 26zM330 1567 q-5 11 6 26l151 205q14 19 37 19h142q22 0 36 -19l154 -205q11 -15 6 -26t-24 -11h-93q-25 0 -38 19l-103 147q-7 10 -14 0l-105 -147q-13 -19 -36 -19h-95q-19 0 -24 11z" />
<glyph unicode="&#x177;" horiz-adv-x="974" d="M51 1008q-10 34 25 34h143q27 0 35 -24l231 -737q1 -5 4 -7t5.5 0t3.5 7l223 735q7 26 35 26h143q35 0 25 -34l-367 -1080q-29 -85 -54 -138t-58 -95t-76.5 -63t-101 -31.5t-140.5 -10.5h-14q-15 0 -15 31v105q0 30 13 30h12q120 0 172 46t94 192q2 5 0 12zM219.5 1191 q-5.5 11 5.5 26l152 204q14 19 37 19h141q23 0 37 -19l153 -204q11 -15 6 -26t-24 -11h-92q-27 0 -39 18l-102 148q-8 11 -15 0l-104 -148q-12 -18 -37 -18h-94q-19 0 -24.5 11z" />
<glyph unicode="&#x178;" horiz-adv-x="1198" d="M76.5 1423q6.5 11 23.5 11h146q26 0 37 -23l309 -588q6 -9 12 0l309 588q11 23 37 23h148q17 0 22.5 -11t-2.5 -26l-418 -787q-4 -8 -4 -12v-565q0 -14 -8.5 -22.5t-21.5 -8.5h-136q-13 0 -21.5 8.5t-8.5 22.5v565q0 4 -4 12l-418 787q-8 15 -1.5 26zM303 1710 q0 49 33 81t84 32q49 0 79.5 -31.5t30.5 -81.5q0 -51 -30.5 -83t-79.5 -32q-51 0 -84 32t-33 83zM666 1710q0 50 31.5 81.5t82.5 31.5t82 -31.5t31 -81.5q0 -51 -31 -83t-82 -32t-82.5 32t-31.5 83z" />
<glyph unicode="&#x179;" horiz-adv-x="1128" d="M84 31v127q0 19 12 37l711 1056q3 5 1.5 9t-7.5 4h-686q-14 0 -22.5 8.5t-8.5 21.5v109q0 13 9 22t22 9h889q13 0 21.5 -8.5t8.5 -22.5v-127q0 -19 -12 -37l-715 -1057q-3 -4 -1.5 -8t7.5 -4h691q13 0 21.5 -8.5t8.5 -22.5v-108q0 -14 -8.5 -22.5t-21.5 -8.5h-889 q-13 0 -22 9t-9 22zM458.5 1608q-5.5 11 2.5 26l108 201q11 23 37 23h127q18 0 24 -11t-3 -26l-131 -203q-12 -21 -37 -21h-105q-17 0 -22.5 11z" />
<glyph unicode="&#x17a;" horiz-adv-x="923" d="M61 31v127q0 19 15 37l534 655q3 4 1.5 8t-7.5 4h-502q-13 0 -21.5 8.5t-8.5 22.5v119q0 14 8 22t22 8h719q14 0 22.5 -8.5t8.5 -21.5v-127q0 -25 -14 -39l-543 -656q-3 -4 -1.5 -8t7.5 -4h522q13 0 22 -9t9 -22v-116q0 -13 -9 -22t-22 -9h-731q-14 0 -22.5 9t-8.5 22z M360 1213q-6 11 2 26l109 201q11 22 37 22h127q18 0 23.5 -11t-3.5 -26l-131 -202q-12 -21 -37 -21h-104q-17 0 -23 11z" />
<glyph unicode="&#x17b;" horiz-adv-x="1128" d="M84 31v127q0 19 12 37l711 1056q3 5 1.5 9t-7.5 4h-686q-14 0 -22.5 8.5t-8.5 21.5v109q0 13 9 22t22 9h889q13 0 21.5 -8.5t8.5 -22.5v-127q0 -19 -12 -37l-715 -1057q-3 -4 -1.5 -8t7.5 -4h691q13 0 21.5 -8.5t8.5 -22.5v-108q0 -14 -8.5 -22.5t-21.5 -8.5h-889 q-13 0 -22 9t-9 22zM446 1708q0 46 31 75t78 29q46 0 74 -29t28 -75t-28.5 -76t-73.5 -30q-47 0 -78 30t-31 76z" />
<glyph unicode="&#x17c;" horiz-adv-x="923" d="M61 31v127q0 19 15 37l534 655q3 4 1.5 8t-7.5 4h-502q-13 0 -21.5 8.5t-8.5 22.5v119q0 14 8 22t22 8h719q14 0 22.5 -8.5t8.5 -21.5v-127q0 -25 -14 -39l-543 -656q-3 -4 -1.5 -8t7.5 -4h522q13 0 22 -9t9 -22v-116q0 -13 -9 -22t-22 -9h-731q-14 0 -22.5 9t-8.5 22z M348 1313q0 46 31 75t78 29q46 0 74 -29t28 -75t-28.5 -76.5t-73.5 -30.5q-47 0 -78 30.5t-31 76.5z" />
<glyph unicode="&#x17d;" horiz-adv-x="1128" d="M84 31v127q0 19 12 37l711 1056q3 5 1.5 9t-7.5 4h-686q-14 0 -22.5 8.5t-8.5 21.5v109q0 13 9 22t22 9h889q13 0 21.5 -8.5t8.5 -22.5v-127q0 -19 -12 -37l-715 -1057q-3 -4 -1.5 -8t7.5 -4h691q13 0 21.5 -8.5t8.5 -22.5v-108q0 -14 -8.5 -22.5t-21.5 -8.5h-889 q-13 0 -22 9t-9 22zM289.5 1827q4.5 10 23.5 10h93q24 0 36 -18l105 -148q7 -11 14 0l105 148q12 18 39 18h88q19 0 24 -11t-6 -26l-145 -205q-12 -18 -37 -18h-152q-27 0 -39 18l-143 205q-10 17 -5.5 27z" />
<glyph unicode="&#x17e;" horiz-adv-x="923" d="M61 31v127q0 19 15 37l534 655q3 4 1.5 8t-7.5 4h-502q-13 0 -21.5 8.5t-8.5 22.5v119q0 14 8 22t22 8h719q14 0 22.5 -8.5t8.5 -21.5v-127q0 -25 -14 -39l-543 -656q-3 -4 -1.5 -8t7.5 -4h522q13 0 22 -9t9 -22v-116q0 -13 -9 -22t-22 -9h-731q-14 0 -22.5 9t-8.5 22z M191.5 1432q4.5 10 23.5 10h92q24 0 37 -19l105 -147q7 -11 14 0l104 147q13 19 39 19h88q19 0 24.5 -11t-5.5 -26l-146 -205q-12 -18 -37 -18h-151q-27 0 -39 18l-143 205q-10 17 -5.5 27z" />
<glyph unicode="&#x192;" horiz-adv-x="1124" d="M63 -268q0 13 8.5 21.5t22.5 8.5h68q101 0 144.5 39.5t60.5 147.5l114 727q0 10 -8 10h-139q-14 0 -22.5 9t-8.5 22v119q0 13 8.5 21.5t22.5 8.5h168q12 0 12 11l33 210q11 74 26 126t40.5 91.5t57 63t82.5 38.5t110.5 21t146.5 7q32 0 32 -31v-111q0 -14 -8 -22t-22 -8 h-66q-102 0 -145 -39.5t-60 -147.5l-30 -198q0 -11 8 -11h160q13 0 21.5 -8t8.5 -22v-119q0 -14 -8.5 -22.5t-21.5 -8.5h-189q-12 0 -12 -10l-117 -739q-12 -75 -27.5 -126.5t-41 -91.5t-57.5 -63.5t-83 -38.5t-110 -20.5t-146 -6.5q-33 0 -33 31v111z" />
<glyph unicode="&#x1cd;" horiz-adv-x="1290" d="M72 35l442 1374q8 25 35 25h188q27 0 35 -25l447 -1374q5 -15 -1.5 -25t-23.5 -10h-147q-27 0 -35 25l-72 229q-4 8 -10 8h-572q-6 0 -10 -8l-72 -229q-8 -25 -34 -25h-146q-33 0 -24 35zM375.5 1788q4.5 10 23.5 10h93q24 0 36 -18l105 -148q7 -10 14 0l105 148 q12 18 39 18h88q19 0 24 -11t-6 -26l-145 -205q-12 -18 -37 -18h-152q-27 0 -39 18l-143 205q-10 17 -5.5 27zM401 430q-3 -12 9 -12h469q11 0 8 12l-238 764q-1 5 -3.5 7t-5 0t-3.5 -7z" />
<glyph unicode="&#x1ce;" horiz-adv-x="1058" d="M80 293q0 159 111.5 250.5t312.5 91.5h227q10 0 10 10v53q0 90 -52.5 140.5t-158.5 50.5q-85 0 -137 -31t-67 -86q-9 -27 -35 -24l-148 18q-14 2 -21.5 9.5t-6.5 17.5q19 117 131.5 191.5t279.5 74.5q189 0 300.5 -96.5t111.5 -249.5v-682q0 -13 -9 -22t-22 -9h-135 q-14 0 -22.5 9t-8.5 22v57q0 6 -3.5 8t-8.5 -2q-116 -110 -307 -110q-149 0 -245.5 77t-96.5 232zM261 1413q5 10 24 10h92q25 0 37 -18l104 -148q7 -11 14 0l105 148q12 18 39 18h88q19 0 24 -11t-6 -26l-145 -204q-13 -19 -37 -19h-151q-26 0 -39 19l-144 204 q-10 17 -5 27zM276 303q0 -75 54.5 -114t140.5 -39q109 0 189.5 57t80.5 145v119q0 10 -10 10h-190q-122 0 -193.5 -46.5t-71.5 -131.5z" />
<glyph unicode="&#x218;" horiz-adv-x="1204" d="M102 383v49q0 14 9 22.5t22 8.5h131q14 0 22.5 -8.5t8.5 -22.5v-39q0 -104 89.5 -171.5t240.5 -67.5q141 0 212.5 59t71.5 156q0 91 -76 147t-274 135q-64 25 -99 39t-88.5 40t-83.5 46.5t-66.5 53t-55.5 66.5t-32 79.5t-13 97.5q0 177 125.5 277t341.5 100 q229 0 367.5 -112t138.5 -296v-30q0 -14 -9 -22.5t-22 -8.5h-133q-14 0 -22.5 7.5t-8.5 19.5v24q0 107 -84.5 177.5t-234.5 70.5q-128 0 -197.5 -52.5t-69.5 -150.5q0 -29 7.5 -53.5t18.5 -44t36 -39t47.5 -34t65.5 -33.5t77.5 -33t96.5 -37q53 -20 85 -33.5t79.5 -35 t76.5 -40t65 -44.5t58 -53.5t42 -61t29 -74t9 -86.5q0 -177 -133.5 -284t-362.5 -107q-232 0 -370 108.5t-138 290.5zM436 -378q-6 11 2 26l109 200q11 23 37 23h127q18 0 23.5 -11t-3.5 -26l-131 -203q-11 -20 -37 -20h-104q-17 0 -23 11z" />
<glyph unicode="&#x219;" horiz-adv-x="999" d="M100 268v13q0 13 8.5 21.5t22.5 8.5h127q31 0 31 -14v-16q0 -57 62.5 -100.5t156.5 -43.5t151.5 40.5t57.5 101.5q0 26 -13 46.5t-29 34t-52 28t-58.5 21.5t-72.5 21q-67 18 -110.5 32.5t-100.5 42t-90.5 58.5t-57.5 80.5t-24 110.5q0 138 108 218.5t285 80.5 q179 0 289 -83t110 -212q0 -12 -8.5 -19.5t-22.5 -7.5h-122q-31 0 -31 14v13q0 59 -58.5 99t-158.5 40q-91 0 -147 -34.5t-56 -94.5q0 -26 12.5 -47t29.5 -35t50.5 -28.5t61 -23.5t75.5 -22q49 -13 77.5 -21.5t75 -25t74.5 -32t62 -40.5t53 -52.5t32 -66t13 -83.5 q0 -139 -109.5 -221t-293.5 -82q-183 0 -296.5 80.5t-113.5 199.5zM344 -374q-6 11 2 26l109 201q11 22 37 22h126q18 0 24 -11t-3 -26l-131 -203q-11 -20 -37 -20h-104q-17 0 -23 11z" />
<glyph unicode="&#x21a;" horiz-adv-x="1193" d="M78 1292v111q0 13 9 22t22 9h960q13 0 22 -9t9 -22v-111q0 -13 -8.5 -21.5t-22.5 -8.5h-381q-10 0 -10 -11v-1220q0 -13 -9 -22t-22 -9h-135q-14 0 -22.5 9t-8.5 22v1220q0 11 -10 11h-362q-14 0 -22.5 8.5t-8.5 21.5zM364.5 -362q-5.5 11 2.5 26l108 201q11 22 37 22 h127q18 0 23.5 -11t-3.5 -26l-131 -202q-12 -21 -36 -21h-105q-17 0 -22.5 11z" />
<glyph unicode="&#x21b;" horiz-adv-x="755" d="M66 911v101q0 14 8 22t22 8h113q10 0 10 11v229q0 14 8.5 22.5t22.5 8.5h127q13 0 22 -8.5t9 -22.5v-229q0 -11 10 -11h209q13 0 21.5 -8t8.5 -22v-101q0 -13 -8.5 -21.5t-21.5 -8.5h-209q-10 0 -10 -11v-534q0 -88 38 -125t121 -37h49q14 0 22.5 -9t8.5 -22v-106 q0 -30 -31 -33q-14 0 -42 -1t-42 -1q-76 0 -129.5 11t-97 39t-65 80.5t-21.5 131.5v606q0 11 -10 11h-113q-14 0 -22 8.5t-8 21.5zM319.5 -440q-5.5 11 2.5 26l108 201q12 23 37 23h127q18 0 23.5 -11t-3.5 -26l-131 -203q-12 -21 -37 -21h-104q-17 0 -22.5 11z" />
<glyph unicode="&#x228;" horiz-adv-x="1224" d="M168 31v1372q0 13 9 22t22 9h891q13 0 21.5 -8.5t8.5 -22.5v-109q0 -14 -8 -22t-22 -8h-715q-10 0 -10 -11v-436q0 -10 10 -10h487q14 0 22.5 -8.5t8.5 -22.5v-108q0 -14 -8.5 -22.5t-22.5 -8.5h-487q-10 0 -10 -10v-447q0 -10 10 -10h715q13 0 21.5 -8.5t8.5 -22.5v-108 q0 -14 -8.5 -22.5t-21.5 -8.5h-345q-6 0 -8 -4t4 -8q114 -108 84 -226q-12 -49 -44 -78.5t-73.5 -38.5t-81 -7t-77.5 12q-26 6 -23 37l9 47q6 28 36 22q44 -10 78 5.5t43 54.5q20 83 -96 180q-8 4 -12 4h-385q-13 0 -22 9t-9 22z" />
<glyph unicode="&#x229;" d="M115 526q0 151 22 228q37 141 147.5 223t268.5 82q194 0 296.5 -101t133.5 -294q11 -75 14 -185q0 -30 -30 -30h-648q-10 0 -10 -11q3 -72 15 -110q22 -81 90 -128.5t168 -47.5q166 3 237 129q16 29 41 12l84 -51q24 -15 12 -43q-46 -82 -124 -137t-181 -72 q-14 -3 -4 -13q124 -110 94 -233q-12 -49 -44 -79t-73.5 -38.5t-81 -7t-77.5 11.5q-26 6 -23 37l9 47q6 29 36 23q44 -10 78 5t43 54q20 86 -104 187q-8 4 -12 4q-233 30 -326 245q-51 124 -51 293zM311 612q0 -10 11 -10h464q11 0 11 10q-3 63 -13 101q-21 80 -81 128 t-150 48q-89 0 -145.5 -43.5t-77.5 -118.5q-16 -50 -19 -115z" />
<glyph unicode="&#x2c6;" horiz-adv-x="577" d="M23 1178q-5 11 6 26l151 205q13 18 37 18h141q24 0 37 -18l154 -205q11 -15 5.5 -26t-24.5 -11h-92q-26 0 -39 19l-102 147q-7 10 -14 0l-105 -147q-13 -19 -37 -19h-94q-19 0 -24 11z" />
<glyph unicode="&#x2da;" horiz-adv-x="542" d="M51 1376q0 90 63.5 152.5t155.5 62.5t155.5 -62.5t63.5 -152.5q0 -92 -63.5 -154.5t-155.5 -62.5t-155.5 62.5t-63.5 154.5zM152 1376q0 -51 34 -86t84 -35q51 0 86 35t35 86t-35 85t-86 34q-50 0 -84 -34t-34 -85z" />
<glyph unicode="&#x2dc;" horiz-adv-x="710" d="M63 1307q59 112 173 112q24 0 48 -7.5t39.5 -15.5t41.5 -24q63 -39 98 -39q51 0 86 45q21 28 43 11l41 -29q25 -18 2 -57q-33 -52 -79 -78.5t-91 -26.5q-56 0 -129 51q-52 37 -88 37q-53 0 -88 -43q-18 -24 -43 -8l-43 29q-23 16 -11 43z" />
<glyph unicode="&#x1e80;" horiz-adv-x="1779" d="M49 1399q-9 35 25 35h147q26 0 33 -27l266 -1008q2 -6 6 -6t6 6l250 1008q7 27 33 27h146q25 0 32 -27l264 -1008q1 -6 6 -6t7 6l266 1008q7 27 33 27h137q16 0 23.5 -9t3.5 -26l-367 -1372q-7 -27 -33 -27h-141q-26 0 -33 27l-264 1044q-1 6 -6 6t-6 -6l-256 -1044 q-7 -27 -33 -27h-133q-28 0 -35 27zM658.5 1820q5.5 11 23.5 11h127q25 0 37 -23l108 -200q8 -15 2.5 -26t-22.5 -11h-105q-25 0 -36 20l-131 203q-9 15 -3.5 26z" />
<glyph unicode="&#x1e81;" horiz-adv-x="1521" d="M61 1008q-4 17 3.5 25.5t23.5 8.5h139q27 0 33 -26l191 -731q1 -6 6 -6t6 6l194 729q7 26 33 26h127q27 0 33 -26l201 -731q1 -6 6 -6t6 6l199 733q6 26 32 26l140 -2q35 0 26 -34l-291 -979q-7 -27 -34 -27h-144q-29 0 -35 27l-196 678q-2 6 -6 6t-6 -6l-187 -678 q-7 -27 -33 -27h-145q-29 0 -35 27zM517 1429q6 11 24 11h127q26 0 37 -23l108 -200q8 -15 2.5 -26t-22.5 -11h-105q-26 0 -37 20l-131 203q-9 15 -3 26z" />
<glyph unicode="&#x1e82;" horiz-adv-x="1779" d="M49 1399q-9 35 25 35h147q26 0 33 -27l266 -1008q2 -6 6 -6t6 6l250 1008q7 27 33 27h146q25 0 32 -27l264 -1008q1 -6 6 -6t7 6l266 1008q7 27 33 27h137q16 0 23.5 -9t3.5 -26l-367 -1372q-7 -27 -33 -27h-141q-26 0 -33 27l-264 1044q-1 6 -6 6t-6 -6l-256 -1044 q-7 -27 -33 -27h-133q-28 0 -35 27zM792.5 1582q-5.5 11 2.5 26l108 200q11 23 37 23h127q18 0 23.5 -11t-3.5 -26l-131 -203q-11 -20 -36 -20h-105q-17 0 -22.5 11z" />
<glyph unicode="&#x1e83;" horiz-adv-x="1521" d="M61 1008q-4 17 3.5 25.5t23.5 8.5h139q27 0 33 -26l191 -731q1 -6 6 -6t6 6l194 729q7 26 33 26h127q27 0 33 -26l201 -731q1 -6 6 -6t6 6l199 733q6 26 32 26l140 -2q35 0 26 -34l-291 -979q-7 -27 -34 -27h-144q-29 0 -35 27l-196 678q-2 6 -6 6t-6 -6l-187 -678 q-7 -27 -33 -27h-145q-29 0 -35 27zM651 1191q-6 11 2 26l109 200q12 23 37 23h127q18 0 23.5 -11t-3.5 -26l-131 -203q-11 -20 -37 -20h-104q-17 0 -23 11z" />
<glyph unicode="&#x1e84;" horiz-adv-x="1779" d="M49 1399q-9 35 25 35h147q26 0 33 -27l266 -1008q2 -6 6 -6t6 6l250 1008q7 27 33 27h146q25 0 32 -27l264 -1008q1 -6 6 -6t7 6l266 1008q7 27 33 27h137q16 0 23.5 -9t3.5 -26l-367 -1372q-7 -27 -33 -27h-141q-26 0 -33 27l-264 1044q-1 6 -6 6t-6 -6l-256 -1044 q-7 -27 -33 -27h-133q-28 0 -35 27zM594 1712q0 49 33 81t84 32q49 0 79.5 -31.5t30.5 -81.5q0 -51 -30.5 -83t-79.5 -32q-51 0 -84 32t-33 83zM956 1712q0 50 32 81.5t83 31.5t82 -31.5t31 -81.5q0 -51 -31 -83t-82 -32t-83 32t-32 83z" />
<glyph unicode="&#x1e85;" horiz-adv-x="1521" d="M61 1008q-4 17 3.5 25.5t23.5 8.5h139q27 0 33 -26l191 -731q1 -6 6 -6t6 6l194 729q7 26 33 26h127q27 0 33 -26l201 -731q1 -6 6 -6t6 6l199 733q6 26 32 26l140 -2q35 0 26 -34l-291 -979q-7 -27 -34 -27h-144q-29 0 -35 27l-196 678q-2 6 -6 6t-6 -6l-187 -678 q-7 -27 -33 -27h-145q-29 0 -35 27zM453 1321q0 50 32.5 81.5t83.5 31.5q49 0 80 -31.5t31 -81.5q0 -51 -31 -83t-80 -32q-51 0 -83.5 32t-32.5 83zM815 1321q0 50 32 81.5t83 31.5t81.5 -31.5t30.5 -81.5q0 -51 -30.5 -83t-81.5 -32t-83 32t-32 83z" />
<glyph unicode="&#x1ef2;" horiz-adv-x="1198" d="M76.5 1423q6.5 11 23.5 11h146q26 0 37 -23l309 -588q6 -9 12 0l309 588q11 23 37 23h148q17 0 22.5 -11t-2.5 -26l-418 -787q-4 -8 -4 -12v-565q0 -14 -8.5 -22.5t-21.5 -8.5h-136q-13 0 -21.5 8.5t-8.5 22.5v565q0 4 -4 12l-418 787q-8 15 -1.5 26zM367.5 1818 q5.5 11 23.5 11h127q26 0 37 -23l109 -200q8 -15 2 -26t-23 -11h-104q-26 0 -37 20l-131 203q-9 15 -3.5 26z" />
<glyph unicode="&#x1ef3;" horiz-adv-x="974" d="M51 1008q-10 34 25 34h143q27 0 35 -24l231 -737q1 -5 4 -7t5.5 0t3.5 7l223 735q7 26 35 26h143q35 0 25 -34l-367 -1080q-29 -85 -54 -138t-58 -95t-76.5 -63t-101 -31.5t-140.5 -10.5h-14q-15 0 -15 31v105q0 30 13 30h12q120 0 172 46t94 192q2 5 0 12zM257 1441 q6 11 24 11h127q25 0 36 -22l109 -201q8 -15 2 -26t-23 -11h-104q-26 0 -37 20l-131 203q-9 15 -3 26z" />
<glyph unicode="&#x2000;" horiz-adv-x="1003" />
<glyph unicode="&#x2001;" horiz-adv-x="2007" />
<glyph unicode="&#x2002;" horiz-adv-x="1003" />
<glyph unicode="&#x2003;" horiz-adv-x="2007" />
<glyph unicode="&#x2004;" horiz-adv-x="669" />
<glyph unicode="&#x2005;" horiz-adv-x="501" />
<glyph unicode="&#x2006;" horiz-adv-x="334" />
<glyph unicode="&#x2007;" horiz-adv-x="334" />
<glyph unicode="&#x2008;" horiz-adv-x="250" />
<glyph unicode="&#x2009;" horiz-adv-x="401" />
<glyph unicode="&#x200a;" horiz-adv-x="111" />
<glyph unicode="&#x2010;" horiz-adv-x="819" d="M72 571v109q0 14 8.5 22.5t21.5 8.5h613q13 0 21.5 -8.5t8.5 -22.5v-109q0 -13 -8.5 -21.5t-21.5 -8.5h-613q-14 0 -22 8.5t-8 21.5z" />
<glyph unicode="&#x2011;" horiz-adv-x="819" d="M72 571v109q0 14 8.5 22.5t21.5 8.5h613q13 0 21.5 -8.5t8.5 -22.5v-109q0 -13 -8.5 -21.5t-21.5 -8.5h-613q-14 0 -22 8.5t-8 21.5z" />
<glyph unicode="&#x2012;" horiz-adv-x="819" d="M72 571v109q0 14 8.5 22.5t21.5 8.5h613q13 0 21.5 -8.5t8.5 -22.5v-109q0 -13 -8.5 -21.5t-21.5 -8.5h-613q-14 0 -22 8.5t-8 21.5z" />
<glyph unicode="&#x2013;" horiz-adv-x="942" d="M72 524v111q0 14 8.5 22.5t21.5 8.5h736q13 0 21.5 -8.5t8.5 -22.5v-111q0 -14 -8 -22t-22 -8h-736q-14 0 -22 8t-8 22z" />
<glyph unicode="&#x2014;" horiz-adv-x="1384" d="M72 526v109q0 14 8.5 22.5t21.5 8.5h1180q14 0 22.5 -9t8.5 -22v-109q0 -13 -8.5 -21.5t-22.5 -8.5h-1180q-14 0 -22 8t-8 22z" />
<glyph unicode="&#x2018;" horiz-adv-x="333" d="M14 1034l152 375q9 25 37 25h94q16 0 23.5 -9t3.5 -26l-113 -373q-7 -27 -35 -27h-137q-37 0 -25 35z" />
<glyph unicode="&#x2019;" horiz-adv-x="333" d="M10 1034l113 373q7 27 35 27h137q36 0 24 -35l-151 -375q-9 -25 -37 -25h-94q-16 0 -23.5 9t-3.5 26z" />
<glyph unicode="&#x201a;" horiz-adv-x="1228" d="M121 -143l80 434q6 28 32 28h115q16 0 23.5 -8.5t3.5 -25.5l-117 -435q-6 -26 -33 -26h-75q-35 0 -29 33z" />
<glyph unicode="&#x201c;" horiz-adv-x="616" d="M12 1034l142 375q8 25 34 25h91q33 0 24 -35l-102 -373q-7 -27 -33 -27h-131q-37 0 -25 35zM317 1034l140 375q8 25 35 25h90q33 0 24 -35l-100 -373q-7 -27 -33 -27h-131q-37 0 -25 35z" />
<glyph unicode="&#x201d;" horiz-adv-x="616" d="M10 1034l101 373q7 27 32 27h131q37 0 25 -35l-139 -375q-8 -25 -35 -25h-90q-34 0 -25 35zM313 1034l103 373q7 27 33 27h131q36 0 24 -35l-141 -375q-8 -25 -35 -25h-90q-34 0 -25 35z" />
<glyph unicode="&#x201e;" horiz-adv-x="641" d="M10 -137l101 373q7 26 32 26h131q37 0 25 -35l-139 -374q-8 -25 -35 -25h-90q-34 0 -25 35zM313 -137l103 373q6 26 33 26h131q36 0 24 -35l-141 -374q-8 -25 -35 -25h-90q-34 0 -25 35z" />
<glyph unicode="&#x2020;" horiz-adv-x="890" d="M72 817v90q0 14 8.5 22.5t21.5 8.5h236q10 0 10 10v455q0 13 9 22t22 9h135q14 0 22.5 -9t8.5 -22v-455q0 -10 10 -10h233q14 0 22.5 -9t8.5 -22v-90q0 -13 -8.5 -22t-22.5 -9h-233q-10 0 -10 -10v-1155q0 -13 -8.5 -22t-22.5 -9h-135q-13 0 -22 9t-9 22v1155 q0 10 -10 10h-236q-13 0 -21.5 8.5t-8.5 22.5z" />
<glyph unicode="&#x2021;" horiz-adv-x="890" d="M72 117v90q0 14 8.5 22.5t21.5 8.5h236q10 0 10 10v528q0 10 -10 10h-236q-13 0 -21.5 8.5t-8.5 22.5v90q0 14 8.5 22.5t21.5 8.5h236q10 0 10 10v455q0 13 9 22t22 9h135q14 0 22.5 -9t8.5 -22v-455q0 -10 10 -10h233q14 0 22.5 -9t8.5 -22v-90q0 -13 -8.5 -22t-22.5 -9 h-233q-10 0 -10 -10v-528q0 -10 10 -10h233q14 0 22.5 -9t8.5 -22v-90q0 -13 -8.5 -22t-22.5 -9h-233q-10 0 -10 -10v-455q0 -13 -8.5 -22t-22.5 -9h-135q-13 0 -22 9t-9 22v455q0 10 -10 10h-236q-13 0 -21.5 8.5t-8.5 22.5z" />
<glyph unicode="&#x2022;" horiz-adv-x="636" d="M72 555q0 102 72.5 173t174.5 71t174 -71t72 -173q0 -103 -72.5 -175.5t-173.5 -72.5t-174 72.5t-73 175.5z" />
<glyph unicode="&#x2026;" horiz-adv-x="1662" d="M127 143q0 58 44.5 99t102.5 41t104 -41.5t46 -98.5q0 -60 -43.5 -101.5t-106.5 -41.5q-64 0 -105.5 41t-41.5 102zM684 143q0 58 44.5 99t102.5 41t104 -41.5t46 -98.5q0 -60 -43.5 -101.5t-106.5 -41.5q-64 0 -105.5 41t-41.5 102zM1233 143q0 58 44.5 99t102.5 41 t104 -41.5t46 -98.5q0 -60 -43.5 -101.5t-106.5 -41.5q-64 0 -105.5 41t-41.5 102z" />
<glyph unicode="&#x202f;" horiz-adv-x="401" />
<glyph unicode="&#x2030;" horiz-adv-x="2359" d="M57 834v352q0 121 74.5 192.5t200.5 71.5q128 0 204 -71.5t76 -192.5v-352q0 -123 -76 -195t-204 -72q-126 0 -200.5 72t-74.5 195zM188 825q0 -64 39.5 -102.5t104.5 -38.5q67 0 107 38t40 103v367q0 65 -40 104t-107 39q-65 0 -104.5 -39.5t-39.5 -103.5v-367z M371.5 11q-5.5 11 3.5 26l842 1376q12 21 36 21h80q18 0 24 -11t-3 -26l-840 -1377q-11 -20 -37 -20h-82q-18 0 -23.5 11zM1098 250v352q0 121 74 192.5t200 71.5q128 0 204.5 -71.5t76.5 -192.5v-352q0 -122 -76.5 -194t-204.5 -72q-126 0 -200 71.5t-74 194.5zM1229 242 q0 -64 39 -103t104 -39q67 0 107.5 38.5t40.5 103.5v366q0 65 -40.5 104.5t-107.5 39.5q-64 0 -103.5 -39.5t-39.5 -104.5v-366zM1757 250v352q0 121 74.5 192.5t200.5 71.5q128 0 204 -71.5t76 -192.5v-352q0 -123 -76 -194.5t-204 -71.5q-126 0 -200.5 71.5t-74.5 194.5z M1888 242q0 -64 39.5 -103t104.5 -39q67 0 107 38.5t40 103.5v366q0 65 -40 104.5t-107 39.5q-64 0 -104 -40t-40 -104v-366z" />
<glyph unicode="&#x2039;" horiz-adv-x="722" d="M115 555q-15 21 0 41l225 317q13 19 37 19h131q19 0 25 -11t-5 -26l-225 -313q-3 -6 0 -13l225 -313q11 -15 5 -26t-25 -11h-131q-24 0 -37 19z" />
<glyph unicode="&#x203a;" horiz-adv-x="784" d="M190 230q-6 11 5 26l225 313q3 7 0 13l-225 313q-11 15 -5 26t25 11h131q24 0 37 -19l225 -317q15 -20 0 -41l-225 -317q-13 -19 -37 -19h-131q-19 0 -25 11z" />
<glyph unicode="&#x2044;" horiz-adv-x="471" d="M-243 11q-6 11 3 26l842 1376q12 21 37 21h80q18 0 23.5 -11t-3.5 -26l-839 -1377q-11 -20 -37 -20h-82q-18 0 -24 11z" />
<glyph unicode="&#x205f;" horiz-adv-x="501" />
<glyph unicode="&#x2074;" horiz-adv-x="712" d="M49 1143v49q0 20 8 39l226 493q10 23 34 23h76q17 0 23.5 -10t-0.5 -27l-209 -465q-4 -12 6 -12h219q10 0 10 10v154q0 13 8.5 21.5t22.5 8.5h74q14 0 22.5 -8.5t8.5 -21.5v-154q0 -10 10 -10h28q14 0 22.5 -8.5t8.5 -22.5v-59q0 -13 -8.5 -22t-22.5 -9h-28 q-10 0 -10 -10v-184q0 -14 -9 -22.5t-22 -8.5h-74q-13 0 -22 8.5t-9 22.5v184q0 10 -10 10h-352q-14 0 -22.5 9t-8.5 22z" />
<glyph unicode="&#x2075;" horiz-adv-x="626" d="M55 1096q-1 13 7.5 21.5t23.5 8.5h74q30 0 33 -24l6 -25q9 -41 40.5 -65.5t77.5 -24.5q83 0 111 68q23 44 23 94q0 49 -21 96q-32 66 -111 66q-81 0 -116 -56q-13 -22 -35 -22h-82q-14 0 -22.5 8.5t-8.5 22.5v446q0 14 8.5 22.5t22.5 8.5h436q14 0 22.5 -8.5t8.5 -22.5 v-55q0 -13 -8.5 -22t-22.5 -9h-325q-11 0 -11 -10v-219q0 -6 4 -7.5t9 1.5q55 38 139 38q76 0 133 -36.5t88 -104.5q27 -66 27 -135q0 -73 -27 -135q-30 -69 -92.5 -107.5t-149.5 -38.5q-89 0 -154.5 45t-92.5 121q-12 29 -15 60z" />
<glyph unicode="&#x2076;" horiz-adv-x="645" d="M66 1151v373q0 104 71.5 165.5t190.5 61.5q109 0 179.5 -60.5t70.5 -156.5v-8q0 -14 -9 -22.5t-22 -8.5h-74q-31 0 -31 12v11q0 51 -32.5 83.5t-83.5 32.5q-57 0 -92 -34.5t-35 -92.5v-131q0 -4 1.5 -6t4.5 -1.5t6 3.5q57 51 139 51q79 0 142.5 -42.5t89.5 -114.5 q14 -46 14 -115q0 -74 -14 -115q-27 -75 -94 -120.5t-158 -45.5q-88 0 -153 45t-95 121q-16 45 -16 115zM201 1147q0 -17 4 -49q0 -9 2 -13q3 -17 10 -30q12 -31 42.5 -49.5t70.5 -18.5q45 0 77 23t44 61q12 30 12 76q0 15 -4 47q0 8 -2 12q-3 15 -11 31q-12 33 -43.5 52.5 t-72.5 19.5q-43 0 -74 -23t-43 -61q-12 -28 -12 -78z" />
<glyph unicode="&#x2077;" horiz-adv-x="583" d="M23 1561v155q0 14 8.5 22.5t21.5 8.5h477q14 0 22.5 -8.5t8.5 -22.5v-65q0 -16 -6 -37l-264 -703q-8 -24 -35 -24h-78q-36 0 -24 35l262 698q3 12 -8 12h-267q-10 0 -10 -10v-61q0 -13 -8.5 -22t-22.5 -9h-47q-13 0 -21.5 8.5t-8.5 22.5z" />
<glyph unicode="&#x2078;" horiz-adv-x="651" d="M57 1128q0 52 21 107q19 57 76 94q8 6 0 14q-50 33 -74 89q-21 46 -21 88q0 48 21 94q29 69 92.5 105t153.5 36q89 0 153 -38t92 -105q19 -42 19 -90q0 -44 -19 -90q-28 -58 -75 -89q-8 -8 0 -14q53 -33 77 -92q19 -53 19 -111q0 -48 -17 -98q-25 -72 -92 -115t-159 -43 q-89 0 -154 41t-94 115q-19 51 -19 102zM193 1511q0 -13 8 -45q27 -80 125 -80q49 0 82.5 21.5t42.5 58.5q8 24 8 45q0 27 -8 48q-12 38 -45.5 59.5t-79.5 21.5q-49 0 -80.5 -23t-42.5 -61q-10 -23 -10 -45zM195 1137q0 -36 8 -60q11 -42 43.5 -67t79.5 -25q45 0 78 25.5 t42 64.5q11 27 11 64q0 26 -6 53q-11 42 -44.5 68t-80.5 26q-48 0 -80 -25.5t-43 -68.5q-8 -27 -8 -55z" />
<glyph unicode="&#x2079;" horiz-adv-x="645" d="M49 1470q0 74 14 115q27 75 94 120.5t158 45.5q88 0 153 -45t95 -121q17 -47 17 -115v-372q0 -104 -72 -166t-191 -62q-109 0 -179 60.5t-70 156.5v9q0 14 8 22t22 8h74q31 0 31 -10v-12q0 -51 32.5 -84t83.5 -33q57 0 92 34.5t35 92.5v131q0 6 -4 7.5t-8 -3.5 q-57 -51 -139 -51q-78 0 -142 43t-90 115q-14 46 -14 114zM182 1475q0 -16 4 -48q0 -8 2 -12q3 -15 11 -31q12 -32 43.5 -51.5t72.5 -19.5q43 0 74 23t43 61q12 28 12 78q0 17 -4 49q0 8 -2 12q-4 18 -10 31q-12 31 -42.5 49t-70.5 18q-45 0 -76.5 -23t-43.5 -61 q-13 -32 -13 -75z" />
<glyph unicode="&#x20a3;" horiz-adv-x="1314" d="M168 297v63q0 14 9 22.5t22 8.5h116q11 0 11 10v1002q0 14 8.5 22.5t21.5 8.5h889q13 0 22 -9t9 -22v-109q0 -13 -8.5 -21.5t-22.5 -8.5h-713q-10 0 -10 -11v-436q0 -10 10 -10h486q14 0 22.5 -8.5t8.5 -22.5v-108q0 -14 -8.5 -22.5t-22.5 -8.5h-486q-10 0 -10 -10v-226 q0 -10 10 -10h281q13 0 22 -8.5t9 -22.5v-63q0 -13 -9 -22t-22 -9h-281q-10 0 -10 -10v-225q0 -14 -8.5 -22.5t-21.5 -8.5h-136q-13 0 -21.5 8.5t-8.5 22.5v225q0 10 -11 10h-116q-13 0 -22 9t-9 22z" />
<glyph unicode="&#x20ac;" horiz-adv-x="1300" d="M129 573v50q0 13 8.5 21.5t22.5 8.5h129q10 0 10 11v104q0 10 -10 10h-129q-14 0 -22.5 9t-8.5 22v49q0 14 8.5 22.5t22.5 8.5h129q10 0 10 10v125q0 193 121 309.5t321 116.5q181 0 298.5 -91.5t140.5 -248.5q3 -14 -5 -23.5t-22 -11.5l-135 -16q-29 -3 -35 26 q-14 89 -79 142t-163 53q-110 0 -177.5 -69t-67.5 -181v-131q0 -10 10 -10h452q17 0 23.5 -10t1.5 -25l-16 -51q-8 -25 -35 -25h-426q-10 0 -10 -10v-104q0 -11 10 -11h383q17 0 23 -9.5t1 -25.5l-16 -51q-8 -24 -35 -24h-356q-10 0 -10 -11v-129q0 -112 67.5 -180.5 t177.5 -68.5q98 0 163.5 52.5t80.5 143.5q7 31 35 25l133 -23q33 -7 27 -37q-28 -153 -145 -243t-294 -90q-200 0 -321 117.5t-121 312.5v120q0 11 -10 11h-129q-14 0 -22.5 8.5t-8.5 21.5z" />
<glyph unicode="&#x20ba;" horiz-adv-x="1312" d="M139 631q-9 29 21 39l209 59q8 4 8 10v107q0 4 -4 7t-8 1l-172 -47q-28 -9 -37 20l-17 54q-9 29 21 39l209 59q8 4 8 10v414q0 13 8.5 22t22.5 9h135q13 0 21.5 -8.5t8.5 -22.5v-354q0 -5 4.5 -7.5t8.5 -1.5l276 78q28 9 37 -20l16 -58q8 -27 -20 -36l-313 -89 q-9 -5 -9 -10v-106q0 -4 4 -7t9 -1l276 77q28 9 37 -20l16 -57q8 -28 -20 -37l-313 -88q-9 -4 -9 -11v-475q0 -10 15 -10q185 13 292.5 112t116.5 246q3 31 33 31h135q31 0 31 -31q-5 -97 -44.5 -185.5t-108.5 -160t-174.5 -118t-235.5 -56.5q-128 -11 -225 -8q-31 0 -31 31 v565q0 4 -4 7t-8 1l-172 -47q-28 -9 -37 21z" />
<glyph unicode="&#x20bd;" horiz-adv-x="1433" d="M168 367v59q0 14 9 22.5t22 8.5h163q11 0 11 10v141q0 10 -11 10h-163q-13 0 -22 9t-9 22v101q0 13 8.5 21.5t22.5 8.5h163q11 0 11 11v614q0 14 8.5 22.5t21.5 8.5h545q187 0 302.5 -113.5t115.5 -298.5q0 -182 -119.5 -294t-306.5 -112h-360q-11 0 -11 -10v-141 q0 -10 11 -10h446q14 0 22.5 -8.5t8.5 -22.5v-59q0 -13 -8.5 -22t-22.5 -9h-446q-11 0 -11 -10v-295q0 -14 -8.5 -22.5t-21.5 -8.5h-136q-13 0 -21.5 8.5t-8.5 22.5v295q0 10 -11 10h-163q-13 0 -22 9t-9 22zM569 791q0 -11 11 -11h342q115 0 182 64.5t67 175.5 q0 114 -67 180t-182 66h-342q-11 0 -11 -11v-464z" />
<glyph unicode="&#x2122;" horiz-adv-x="1355" d="M39 1364v39q0 13 8.5 22t22.5 9h471q13 0 21.5 -8.5t8.5 -22.5v-39q0 -14 -8.5 -22.5t-21.5 -8.5h-172q-11 0 -11 -10v-578q0 -13 -8 -21.5t-22 -8.5h-54q-14 0 -22 8.5t-8 21.5v578q0 10 -11 10h-163q-14 0 -22.5 8.5t-8.5 22.5zM702 745v658q0 13 9 22t22 9h58 q22 0 36 -21l152 -223q7 -10 14 0l152 223q14 21 39 21h55q13 0 22 -9t9 -22v-658q0 -13 -8.5 -21.5t-22.5 -8.5h-53q-14 0 -22.5 8.5t-8.5 21.5v486q0 6 -4.5 8t-7.5 -4l-117 -174q-12 -21 -37 -21h-4q-23 0 -37 21l-119 174q-5 6 -8.5 4t-3.5 -8v-486q0 -13 -8.5 -21.5 t-22.5 -8.5h-53q-14 0 -22.5 8.5t-8.5 21.5z" />
<glyph unicode="&#x25fc;" horiz-adv-x="1044" d="M0 0v1044h1044v-1044h-1044z" />
<glyph horiz-adv-x="466" d="M119 1311q0 46 30.5 75t77.5 29q46 0 74.5 -29t28.5 -75t-29 -76.5t-74 -30.5q-47 0 -77.5 30.5t-30.5 76.5zM133 31v981q0 13 8.5 21.5t22.5 8.5h135q14 0 22.5 -8.5t8.5 -21.5v-981q0 -13 -9 -22t-22 -9h-135q-14 0 -22.5 9t-8.5 22z" />
<glyph horiz-adv-x="1112" d="M63 35l375 1122q8 25 35 25h164q27 0 35 -25l377 -1122q5 -15 -1.5 -25t-23.5 -10h-133q-27 0 -35 25l-53 170q-4 8 -10 8h-474q-6 0 -10 -8l-53 -170q-8 -25 -35 -25h-133q-17 0 -23.5 10t-1.5 25zM365 371q-3 -13 8 -13h366q12 0 9 13l-187 592q-1 5 -3.5 7t-5 0 t-3.5 -7z" />
<glyph horiz-adv-x="1112" d="M63 35l375 1122q8 25 35 25h164q27 0 35 -25l377 -1122q5 -15 -1.5 -25t-23.5 -10h-133q-27 0 -35 25l-53 170q-4 8 -10 8h-474q-6 0 -10 -8l-53 -170q-8 -25 -35 -25h-133q-17 0 -23.5 10t-1.5 25zM365 371q-3 -13 8 -13h366q12 0 9 13l-187 592q-1 5 -3.5 7t-5 0 t-3.5 -7zM458.5 1330q-5.5 11 2.5 26l108 200q11 23 37 23h127q18 0 24 -11t-3 -26l-131 -203q-11 -20 -37 -20h-105q-17 0 -22.5 11z" />
<glyph horiz-adv-x="1112" d="M63 35l375 1122q8 25 35 25h164q27 0 35 -25l377 -1122q5 -15 -1.5 -25t-23.5 -10h-133q-27 0 -35 25l-53 170q-4 8 -10 8h-474q-6 0 -10 -8l-53 -170q-8 -25 -35 -25h-133q-17 0 -23.5 10t-1.5 25zM319 1446q-1 15 7.5 24t23.5 9h51q27 0 33 -29q9 -43 43 -71.5 t78 -28.5q43 0 77.5 28.5t43.5 71.5q10 29 33 29h49q33 0 30 -31q-12 -85 -77.5 -140t-155.5 -55q-91 0 -157.5 55t-78.5 138zM365 371q-3 -13 8 -13h366q12 0 9 13l-187 592q-1 5 -3.5 7t-5 0t-3.5 -7z" />
<glyph horiz-adv-x="1112" d="M63 35l375 1122q8 25 35 25h164q27 0 35 -25l377 -1122q5 -15 -1.5 -25t-23.5 -10h-133q-27 0 -35 25l-53 170q-4 8 -10 8h-474q-6 0 -10 -8l-53 -170q-8 -25 -35 -25h-133q-17 0 -23.5 10t-1.5 25zM289.5 1536q4.5 10 23.5 10h93q24 0 36 -18l105 -148q7 -10 14 0 l105 148q12 18 39 18h88q19 0 24 -11t-6 -26l-145 -204q-13 -19 -37 -19h-152q-26 0 -39 19l-143 204q-10 17 -5.5 27zM365 371q-3 -13 8 -13h366q12 0 9 13l-187 592q-1 5 -3.5 7t-5 0t-3.5 -7z" />
<glyph horiz-adv-x="1112" d="M63 35l375 1122q8 25 35 25h164q27 0 35 -25l377 -1122q5 -15 -1.5 -25t-23.5 -10h-133q-27 0 -35 25l-53 170q-4 8 -10 8h-474q-6 0 -10 -8l-53 -170q-8 -25 -35 -25h-133q-17 0 -23.5 10t-1.5 25zM287 1317.5q-5 10.5 6 25.5l151 205q14 19 37 19h142q22 0 36 -19 l154 -205q11 -15 6 -25.5t-24 -10.5h-93q-26 0 -38 18l-103 148q-7 11 -14 0l-105 -148q-12 -18 -36 -18h-95q-19 0 -24 10.5zM365 371q-3 -13 8 -13h366q12 0 9 13l-187 592q-1 5 -3.5 7t-5 0t-3.5 -7z" />
<glyph horiz-adv-x="1112" d="M63 35l375 1122q8 25 35 25h164q27 0 35 -25l377 -1122q5 -15 -1.5 -25t-23.5 -10h-133q-27 0 -35 25l-53 170q-4 8 -10 8h-474q-6 0 -10 -8l-53 -170q-8 -25 -35 -25h-133q-17 0 -23.5 10t-1.5 25zM260 1460q0 49 33 81t84 32q49 0 79.5 -31.5t30.5 -81.5 q0 -51 -30.5 -82.5t-79.5 -31.5q-51 0 -84 31.5t-33 82.5zM365 371q-3 -13 8 -13h366q12 0 9 13l-187 592q-1 5 -3.5 7t-5 0t-3.5 -7zM623 1460q0 50 31.5 81.5t82.5 31.5t82 -31.5t31 -81.5q0 -51 -31 -82.5t-82 -31.5t-82.5 31.5t-31.5 82.5z" />
<glyph horiz-adv-x="1112" d="M63 35l375 1122q8 25 35 25h164q27 0 35 -25l377 -1122q5 -15 -1.5 -25t-23.5 -10h-133q-27 0 -35 25l-53 170q-4 8 -10 8h-474q-6 0 -10 -8l-53 -170q-8 -25 -35 -25h-133q-17 0 -23.5 10t-1.5 25zM324.5 1568q5.5 11 23.5 11h127q25 0 37 -23l109 -200q8 -15 2 -26 t-23 -11h-104q-26 0 -37 20l-131 203q-9 15 -3.5 26zM365 371q-3 -13 8 -13h366q12 0 9 13l-187 592q-1 5 -3.5 7t-5 0t-3.5 -7z" />
<glyph horiz-adv-x="1112" d="M63 35l375 1122q8 25 35 25h164q27 0 35 -25l377 -1122q5 -15 -1.5 -25t-23.5 -10h-133q-27 0 -35 25l-53 170q-4 8 -10 8h-474q-6 0 -10 -8l-53 -170q-8 -25 -35 -25h-133q-17 0 -23.5 10t-1.5 25zM272 1374v76q0 14 9 22.5t22 8.5h508q13 0 22 -8.5t9 -22.5v-76 q0 -14 -9 -22.5t-22 -8.5h-508q-13 0 -22 8.5t-9 22.5zM365 371q-3 -13 8 -13h366q12 0 9 13l-187 592q-1 5 -3.5 7t-5 0t-3.5 -7z" />
<glyph horiz-adv-x="1146" d="M63 35l375 1122q8 25 35 25h164q27 0 35 -25l377 -1122l10 -35h-2q-70 -49 -107 -103t-26 -104q9 -39 42.5 -54t77.5 -5q31 6 37 -23l9 -47q3 -31 -23 -37q-38 -10 -77.5 -11.5t-81 7t-73.5 38.5t-44 79q-33 133 110 248q12 10 4 12h-14q-27 0 -35 25l-53 170q-4 8 -10 8 h-474q-6 0 -10 -8l-53 -170q-8 -25 -35 -25h-133q-17 0 -23.5 10t-1.5 25zM365 371q-3 -13 8 -13h366q12 0 9 13l-187 592q-1 5 -3.5 7t-5 0t-3.5 -7z" />
<glyph horiz-adv-x="1112" d="M63 35l375 1122q8 25 35 25h164q27 0 35 -25l377 -1122q5 -15 -1.5 -25t-23.5 -10h-133q-27 0 -35 25l-53 170q-4 8 -10 8h-474q-6 0 -10 -8l-53 -170q-8 -25 -35 -25h-133q-17 0 -23.5 10t-1.5 25zM336 1516q0 90 63.5 152.5t155.5 62.5t155.5 -62.5t63.5 -152.5 q0 -92 -63.5 -155t-155.5 -63t-155.5 63t-63.5 155zM365 371q-3 -13 8 -13h366q12 0 9 13l-187 592q-1 5 -3.5 7t-5 0t-3.5 -7zM436 1516q0 -51 34.5 -86t84.5 -35q51 0 86 35t35 86t-35 84.5t-86 33.5q-50 0 -84.5 -33.5t-34.5 -84.5z" />
<glyph horiz-adv-x="1112" d="M63 35l375 1122q8 25 35 25h164q27 0 35 -25l377 -1122q5 -15 -1.5 -25t-23.5 -10h-133q-27 0 -35 25l-53 170q-4 8 -10 8h-474q-6 0 -10 -8l-53 -170q-8 -25 -35 -25h-133q-17 0 -23.5 10t-1.5 25zM289 1446q59 113 172 113q24 0 48.5 -8t39 -15.5t41.5 -24.5 q61 -38 98 -38q51 0 86 45q20 27 43 10l41 -29q24 -17 12 -43q-35 -59 -84 -89t-96 -30q-25 0 -51.5 9.5t-40.5 18t-37 24.5q-50 36 -88 36q-53 0 -88 -43q-18 -24 -43 -8l-43 29q-22 16 -10 43zM365 371q-3 -13 8 -13h366q12 0 9 13l-187 592q-1 5 -3.5 7t-5 0t-3.5 -7z " />
<glyph horiz-adv-x="1658" d="M69.5 11q-5.5 11 2.5 26l600 1122q12 23 37 23h839q14 0 22.5 -9t8.5 -22v-111q0 -13 -8.5 -21.5t-22.5 -8.5h-561q-10 0 -10 -11v-309q0 -10 10 -10h365q13 0 21.5 -8.5t8.5 -22.5v-108q0 -14 -8.5 -22.5t-21.5 -8.5h-365q-10 0 -10 -10v-320q0 -10 10 -10h561 q14 0 22.5 -9t8.5 -22v-108q0 -13 -8.5 -22t-22.5 -9h-739q-13 0 -22 9t-9 22v162q0 10 -10 10h-383q-9 0 -12 -8l-90 -172q-11 -23 -37 -23h-154q-17 0 -22.5 11zM467 371q-7 -13 8 -13h293q10 0 10 11v565q0 7 -4.5 8.5t-7.5 -4.5z" />
<glyph horiz-adv-x="1095" d="M131 31v1120q0 13 8.5 22t22.5 9h422q188 0 290.5 -79.5t102.5 -240.5q0 -174 -160 -246q-12 -6 0 -12q176 -80 176 -276q0 -160 -109.5 -244t-287.5 -84h-434q-14 0 -22.5 9t-8.5 22zM328 182q0 -10 10 -10h272q84 0 135.5 48.5t51.5 127.5q0 77 -52.5 125.5 t-138.5 48.5h-268q-10 0 -10 -10v-330zM328 692q0 -10 10 -10h258q85 0 136.5 45t51.5 119t-51.5 119t-136.5 45h-258q-10 0 -10 -11v-307z" />
<glyph horiz-adv-x="1062" d="M100 412v360q0 193 120 308.5t319 115.5q197 0 315.5 -111.5t118.5 -298.5q0 -19 -31 -22l-135 -8q-31 -3 -31 10v12q0 113 -64 178t-173 68q-109 4 -175.5 -64t-66.5 -182v-377q0 -112 66.5 -178.5t175.5 -66.5q108 0 172.5 66.5t64.5 178.5q0 21 31 21l135 -6 q13 0 22 -3.5t9 -6.5v-9q0 -187 -118.5 -300t-315.5 -113q-198 0 -318.5 116.5t-120.5 311.5z" />
<glyph horiz-adv-x="1062" d="M100 412v360q0 193 120 308.5t319 115.5q197 0 315.5 -111.5t118.5 -298.5q0 -19 -31 -22l-135 -8q-31 -3 -31 10v12q0 113 -64 178t-173 68q-109 4 -175.5 -64t-66.5 -182v-377q0 -112 66.5 -178.5t175.5 -66.5q108 0 172.5 66.5t64.5 178.5q0 21 31 21l135 -6 q13 0 22 -3.5t9 -6.5v-9q0 -187 -118.5 -300t-315.5 -113q-198 0 -318.5 116.5t-120.5 311.5zM442 1344q-6 11 2 26l109 201q11 22 37 22h127q18 0 23.5 -11t-3.5 -26l-131 -202q-12 -21 -37 -21h-104q-17 0 -23 11z" />
<glyph horiz-adv-x="1062" d="M100 412v360q0 193 120 308.5t319 115.5q197 0 315.5 -111.5t118.5 -298.5q0 -19 -31 -22l-135 -8q-31 -3 -31 10v12q0 113 -64 178t-173 68q-109 4 -175.5 -64t-66.5 -182v-377q0 -112 66.5 -178.5t175.5 -66.5q108 0 172.5 66.5t64.5 178.5q0 21 31 21l135 -6 q13 0 22 -3.5t9 -6.5v-9q0 -187 -118.5 -300t-315.5 -113q-198 0 -318.5 116.5t-120.5 311.5zM273.5 1551q4.5 10 23.5 10h92q24 0 37 -19l104 -147q8 -11 15 0l104 147q13 19 39 19h88q19 0 24.5 -11t-5.5 -26l-146 -205q-13 -19 -37 -19h-151q-26 0 -39 19l-143 205 q-10 17 -5.5 27z" />
<glyph horiz-adv-x="1062" d="M100 412v360q0 193 120 308.5t319 115.5q197 0 315.5 -111.5t118.5 -298.5v-10q0 -9 -31 -12l-135 -8q-31 -3 -31 10v12q0 113 -64 178t-173 68q-109 4 -175.5 -64t-66.5 -182v-377q0 -112 66.5 -178.5t175.5 -66.5q108 0 172.5 66.5t64.5 178.5q0 21 31 21l135 -6 q13 0 22 -3.5t9 -6.5v-9q0 -175 -105.5 -286.5t-283.5 -124.5q-15 -4 -4 -15q118 -104 88 -225q-12 -49 -44 -79t-73.5 -38.5t-81.5 -7t-78 11.5q-25 6 -22 37l8 47q6 29 37 23q44 -10 78 5t43 54q11 45 -21 96.5t-94 98.5l-12 6q-143 36 -225.5 144.5t-82.5 267.5z" />
<glyph horiz-adv-x="1062" d="M100 412v360q0 193 120 308.5t319 115.5q197 0 315.5 -111.5t118.5 -298.5q0 -19 -31 -22l-135 -8q-31 -3 -31 10v12q0 113 -64 178t-173 68q-109 4 -175.5 -64t-66.5 -182v-377q0 -112 66.5 -178.5t175.5 -66.5q108 0 172.5 66.5t64.5 178.5q0 21 31 21l135 -6 q13 0 22 -3.5t9 -6.5v-9q0 -187 -118.5 -300t-315.5 -113q-198 0 -318.5 116.5t-120.5 311.5zM430 1444q0 46 31 75t78 29q46 0 74 -29t28 -75t-28.5 -76.5t-73.5 -30.5q-47 0 -78 30.5t-31 76.5z" />
<glyph horiz-adv-x="1083" d="M131 31v1120q0 13 8.5 22t22.5 9h418q188 0 300.5 -95t112.5 -253v-486q0 -158 -112.5 -253t-300.5 -95h-418q-14 0 -22.5 9t-8.5 22zM328 180q0 -10 10 -10h250q94 0 150.5 56.5t58.5 150.5v428q0 94 -57 149.5t-152 55.5h-250q-10 0 -10 -11v-819z" />
<glyph horiz-adv-x="1183" d="M131 573v72q0 13 8.5 22t22.5 9h59q10 0 10 10v465q0 13 8.5 22t22.5 9h418q188 0 301 -95t113 -253v-486q0 -158 -113 -253t-301 -95h-418q-14 0 -22.5 9t-8.5 22v501q0 11 -10 11h-59q-14 0 -22.5 8.5t-8.5 21.5zM428 180q0 -10 10 -10h250q94 0 150.5 56.5t58.5 150.5 v428q0 94 -57 149.5t-152 55.5h-250q-10 0 -10 -11v-313q0 -10 10 -10h154q14 0 22.5 -9t8.5 -22v-72q0 -13 -8.5 -21.5t-22.5 -8.5h-154q-10 0 -10 -11v-352z" />
<glyph horiz-adv-x="1083" d="M131 31v1120q0 13 8.5 22t22.5 9h418q188 0 300.5 -95t112.5 -253v-486q0 -158 -112.5 -253t-300.5 -95h-418q-14 0 -22.5 9t-8.5 22zM269 1544.5q5 9.5 24 9.5h92q25 0 37 -18l104 -147q8 -11 15 0l104 147q12 18 39 18h88q19 0 24.5 -10.5t-5.5 -25.5l-146 -205 q-13 -19 -37 -19h-151q-26 0 -39 19l-144 205q-10 17 -5 26.5zM328 180q0 -10 10 -10h250q94 0 150.5 56.5t58.5 150.5v428q0 94 -57 149.5t-152 55.5h-250q-10 0 -10 -11v-819z" />
<glyph horiz-adv-x="1183" d="M131 573v72q0 13 8.5 22t22.5 9h59q10 0 10 10v465q0 13 8.5 22t22.5 9h418q188 0 301 -95t113 -253v-486q0 -158 -113 -253t-301 -95h-418q-14 0 -22.5 9t-8.5 22v501q0 11 -10 11h-59q-14 0 -22.5 8.5t-8.5 21.5zM428 180q0 -10 10 -10h250q94 0 150.5 56.5t58.5 150.5 v428q0 94 -57 149.5t-152 55.5h-250q-10 0 -10 -11v-313q0 -10 10 -10h154q14 0 22.5 -9t8.5 -22v-72q0 -13 -8.5 -21.5t-22.5 -8.5h-154q-10 0 -10 -11v-352z" />
<glyph horiz-adv-x="1040" d="M131 31v1118q0 13 8.5 22t22.5 9h766q13 0 21.5 -8.5t8.5 -22.5v-109q0 -14 -8 -22t-22 -8h-590q-10 0 -10 -11v-309q0 -10 10 -10h395q13 0 22 -9t9 -22v-108q0 -13 -9 -22t-22 -9h-395q-10 0 -10 -10v-320q0 -10 10 -10h590q13 0 21.5 -8.5t8.5 -22.5v-108 q0 -14 -8.5 -22.5t-21.5 -8.5h-766q-14 0 -22.5 9t-8.5 22z" />
<glyph horiz-adv-x="1040" d="M131 31v1118q0 13 8.5 22t22.5 9h766q13 0 21.5 -8.5t8.5 -22.5v-109q0 -14 -8 -22t-22 -8h-590q-10 0 -10 -11v-309q0 -10 10 -10h395q13 0 22 -9t9 -22v-108q0 -13 -9 -22t-22 -9h-395q-10 0 -10 -10v-320q0 -10 10 -10h590q13 0 21.5 -8.5t8.5 -22.5v-108 q0 -14 -8.5 -22.5t-21.5 -8.5h-766q-14 0 -22.5 9t-8.5 22zM432 1350q-6 11 2 26l109 201q11 22 37 22h127q18 0 23.5 -10.5t-3.5 -25.5l-131 -203q-12 -21 -37 -21h-104q-17 0 -23 11z" />
<glyph horiz-adv-x="1040" d="M131 31v1118q0 13 8.5 22t22.5 9h766q13 0 21.5 -8.5t8.5 -22.5v-109q0 -14 -8 -22t-22 -8h-590q-10 0 -10 -11v-309q0 -10 10 -10h395q13 0 22 -9t9 -22v-108q0 -13 -9 -22t-22 -9h-395q-10 0 -10 -10v-320q0 -10 10 -10h590q13 0 21.5 -8.5t8.5 -22.5v-108 q0 -14 -8.5 -22.5t-21.5 -8.5h-766q-14 0 -22.5 9t-8.5 22zM263 1557q5 10 24 10h92q24 0 37 -19l104 -147q8 -11 15 0l104 147q13 19 39 19h88q19 0 24 -11t-6 -26l-145 -205q-12 -18 -37 -18h-151q-27 0 -39 18l-144 205q-10 17 -5 27z" />
<glyph horiz-adv-x="1040" d="M131 31v1118q0 13 8.5 22t22.5 9h766q13 0 21.5 -8.5t8.5 -22.5v-109q0 -14 -8 -22t-22 -8h-590q-10 0 -10 -11v-309q0 -10 10 -10h395q13 0 22 -9t9 -22v-108q0 -13 -9 -22t-22 -9h-395q-10 0 -10 -10v-320q0 -10 10 -10h590q13 0 21.5 -8.5t8.5 -22.5v-108 q0 -14 -8.5 -22.5t-21.5 -8.5h-316q-6 0 -8 -4t4 -8q114 -108 84 -226q-12 -49 -44 -78.5t-73.5 -38.5t-81 -7t-77.5 12q-26 6 -23 37l8 47q6 28 37 22q44 -10 78 5.5t43 54.5q20 83 -96 180q-8 4 -12 4h-289q-14 0 -22.5 9t-8.5 22z" />
<glyph horiz-adv-x="1040" d="M131 31v1118q0 13 8.5 22t22.5 9h766q13 0 21.5 -8.5t8.5 -22.5v-109q0 -14 -8 -22t-22 -8h-590q-10 0 -10 -11v-309q0 -10 10 -10h395q13 0 22 -9t9 -22v-108q0 -13 -9 -22t-22 -9h-395q-10 0 -10 -10v-320q0 -10 10 -10h590q13 0 21.5 -8.5t8.5 -22.5v-108 q0 -14 -8.5 -22.5t-21.5 -8.5h-766q-14 0 -22.5 9t-8.5 22zM260.5 1338q-5.5 11 5.5 26l152 205q13 18 37 18h141q24 0 37 -18l153 -205q11 -15 6 -26t-24 -11h-92q-26 0 -39 19l-102 147q-7 11 -15 0l-104 -147q-13 -19 -37 -19h-94q-19 0 -24.5 11z" />
<glyph horiz-adv-x="1040" d="M131 31v1118q0 13 8.5 22t22.5 9h766q13 0 21.5 -8.5t8.5 -22.5v-109q0 -14 -8 -22t-22 -8h-590q-10 0 -10 -11v-309q0 -10 10 -10h395q13 0 22 -9t9 -22v-108q0 -13 -9 -22t-22 -9h-395q-10 0 -10 -10v-320q0 -10 10 -10h590q13 0 21.5 -8.5t8.5 -22.5v-108 q0 -14 -8.5 -22.5t-21.5 -8.5h-766q-14 0 -22.5 9t-8.5 22zM233 1481q0 49 33 80.5t84 31.5q49 0 80 -31t31 -81q0 -51 -31 -83t-80 -32q-51 0 -84 32t-33 83zM596 1481q0 50 32 81t83 31t81.5 -31t30.5 -81q0 -51 -30.5 -83t-81.5 -32t-83 32t-32 83z" />
<glyph horiz-adv-x="1040" d="M131 31v1118q0 13 8.5 22t22.5 9h766q13 0 21.5 -8.5t8.5 -22.5v-109q0 -14 -8 -22t-22 -8h-590q-10 0 -10 -11v-309q0 -10 10 -10h395q13 0 22 -9t9 -22v-108q0 -13 -9 -22t-22 -9h-395q-10 0 -10 -10v-320q0 -10 10 -10h590q13 0 21.5 -8.5t8.5 -22.5v-108 q0 -14 -8.5 -22.5t-21.5 -8.5h-766q-14 0 -22.5 9t-8.5 22zM420 1450q0 46 30.5 75t77.5 29q46 0 74.5 -29t28.5 -75t-29 -76.5t-74 -30.5q-47 0 -77.5 30.5t-30.5 76.5z" />
<glyph horiz-adv-x="1040" d="M131 31v1118q0 13 8.5 22t22.5 9h766q13 0 21.5 -8.5t8.5 -22.5v-109q0 -14 -8 -22t-22 -8h-590q-10 0 -10 -11v-309q0 -10 10 -10h395q13 0 22 -9t9 -22v-108q0 -13 -9 -22t-22 -9h-395q-10 0 -10 -10v-320q0 -10 10 -10h590q13 0 21.5 -8.5t8.5 -22.5v-108 q0 -14 -8.5 -22.5t-21.5 -8.5h-766q-14 0 -22.5 9t-8.5 22zM297.5 1588.5q5.5 10.5 24.5 10.5h127q25 0 36 -22l109 -201q8 -15 2 -26t-23 -11h-104q-25 0 -37 21l-131 203q-9 15 -3.5 25.5z" />
<glyph horiz-adv-x="1040" d="M131 31v1118q0 13 8.5 22t22.5 9h766q13 0 21.5 -8.5t8.5 -22.5v-109q0 -14 -8 -22t-22 -8h-590q-10 0 -10 -11v-309q0 -10 10 -10h395q13 0 22 -9t9 -22v-108q0 -13 -9 -22t-22 -9h-395q-10 0 -10 -10v-320q0 -10 10 -10h590q13 0 21.5 -8.5t8.5 -22.5v-108 q0 -14 -8.5 -22.5t-21.5 -8.5h-766q-14 0 -22.5 9t-8.5 22zM246 1395v75q0 14 8.5 22.5t21.5 8.5h508q14 0 22.5 -8.5t8.5 -22.5v-75q0 -13 -8.5 -22t-22.5 -9h-508q-13 0 -21.5 8.5t-8.5 22.5z" />
<glyph horiz-adv-x="1040" d="M131 31v1118q0 13 8.5 22t22.5 9h766q13 0 21.5 -8.5t8.5 -22.5v-109q0 -14 -8 -22t-22 -8h-590q-10 0 -10 -11v-309q0 -10 10 -10h395q13 0 22 -9t9 -22v-108q0 -13 -9 -22t-22 -9h-395q-10 0 -10 -10v-320q0 -10 10 -10h590q13 0 21.5 -8.5t8.5 -22.5v-108 q0 -14 -8.5 -22.5t-21.5 -8.5h-342q-5 0 -13 -4q-118 -99 -98 -182q9 -39 43 -54.5t78 -5.5q31 6 37 -22l8 -47q3 -31 -23 -37q-38 -10 -77.5 -12t-81 7t-73.5 38.5t-44 78.5q-29 119 86 228q6 4 4 8t-8 4h-262q-14 0 -22.5 9t-8.5 22z" />
<glyph horiz-adv-x="985" d="M131 31v1120q0 13 8.5 22t22.5 9h764q13 0 21.5 -8.5t8.5 -22.5v-111q0 -14 -8 -22t-22 -8h-588q-10 0 -10 -11v-309q0 -10 10 -10h393q13 0 22 -9t9 -22v-108q0 -13 -9 -22t-22 -9h-393q-10 0 -10 -10v-469q0 -13 -9 -22t-22 -9h-135q-14 0 -22.5 9t-8.5 22z" />
<glyph horiz-adv-x="1171" d="M119 422v338q0 204 129 320t348 116q212 0 340.5 -115t128.5 -311q0 -22 -31 -22h-133q-31 0 -31 10v10q0 124 -73.5 191t-200.5 67q-130 0 -206.5 -69.5t-76.5 -202.5v-336q0 -126 77 -194t206 -68q127 0 200.5 67.5t73.5 194.5v18q0 10 -10 10h-221q-13 0 -22 9t-9 22 v107q0 13 8.5 21.5t22.5 8.5h395q14 0 22.5 -8.5t8.5 -21.5v-162q0 -203 -128 -319.5t-341 -116.5q-219 0 -348 116t-129 320z" />
<glyph horiz-adv-x="1171" d="M119 422v338q0 204 129 320t348 116q212 0 340.5 -115t128.5 -311q0 -22 -31 -22h-133q-31 0 -31 10v10q0 124 -73.5 191t-200.5 67q-130 0 -206.5 -69.5t-76.5 -202.5v-336q0 -126 77 -194t206 -68q127 0 200.5 67.5t73.5 194.5v18q0 10 -10 10h-221q-13 0 -22 9t-9 22 v107q0 13 8.5 21.5t22.5 8.5h395q14 0 22.5 -8.5t8.5 -21.5v-162q0 -203 -128 -319.5t-341 -116.5q-219 0 -348 116t-129 320zM358 1460q-1 15 7.5 24t23.5 9h51q27 0 33 -29q9 -43 43 -71.5t78 -28.5q43 0 77.5 28.5t43.5 71.5q10 29 33 29h49q33 0 30 -31 q-12 -85 -77 -139.5t-156 -54.5t-157.5 54.5t-78.5 137.5z" />
<glyph horiz-adv-x="1171" d="M119 422v338q0 204 129 320t348 116q212 0 340.5 -115t128.5 -311q0 -22 -31 -22h-133q-31 0 -31 10v10q0 124 -73.5 191t-200.5 67q-130 0 -206.5 -69.5t-76.5 -202.5v-336q0 -126 77 -194t206 -68q127 0 200.5 67.5t73.5 194.5v18q0 10 -10 10h-221q-13 0 -22 9t-9 22 v107q0 13 8.5 21.5t22.5 8.5h395q14 0 22.5 -8.5t8.5 -21.5v-162q0 -203 -128 -319.5t-341 -116.5q-219 0 -348 116t-129 320zM485 1444q0 46 31 75t78 29q46 0 74 -29t28 -75t-28.5 -76.5t-73.5 -30.5q-47 0 -78 30.5t-31 76.5z" />
<glyph horiz-adv-x="1120" d="M131 31v1120q0 13 8.5 22t22.5 9h135q13 0 22 -9t9 -22v-461q0 -10 10 -10h455q10 0 10 10v461q0 13 8.5 22t22.5 9h135q13 0 21.5 -8.5t8.5 -22.5v-1120q0 -14 -8.5 -22.5t-21.5 -8.5h-135q-14 0 -22.5 9t-8.5 22v469q0 10 -10 10h-455q-10 0 -10 -10v-469q0 -13 -9 -22 t-22 -9h-135q-14 0 -22.5 9t-8.5 22z" />
<glyph horiz-adv-x="1120" d="M-53 889v78q0 13 8.5 21.5t21.5 8.5h144q10 0 10 11v143q0 13 8.5 22t22.5 9h135q13 0 22 -9t9 -22v-143q0 -11 10 -11h455q10 0 10 11v143q0 13 8.5 22t22.5 9h135q13 0 21.5 -8.5t8.5 -22.5v-143q0 -11 11 -11h143q14 0 22.5 -8.5t8.5 -21.5v-78q0 -13 -9 -22t-22 -9 h-143q-11 0 -11 -10v-817q0 -14 -8.5 -22.5t-21.5 -8.5h-135q-14 0 -22.5 9t-8.5 22v469q0 10 -10 10h-455q-10 0 -10 -10v-469q0 -13 -9 -22t-22 -9h-135q-14 0 -22.5 9t-8.5 22v817q0 10 -10 10h-144q-13 0 -21.5 8.5t-8.5 22.5zM328 690q0 -10 10 -10h455q10 0 10 10v158 q0 10 -10 10h-455q-10 0 -10 -10v-158z" />
<glyph horiz-adv-x="458" d="M131 31v1118q0 13 8.5 22t22.5 9h135q13 0 22 -9t9 -22v-1118q0 -13 -9 -22t-22 -9h-135q-14 0 -22.5 9t-8.5 22z" />
<glyph horiz-adv-x="458" d="M131 31v1118q0 13 8.5 22t22.5 9h135q13 0 22 -9t9 -22v-1118q0 -13 -9 -22t-22 -9h-135q-14 0 -22.5 9t-8.5 22zM133 1350q-6 11 2 26l109 201q11 22 37 22h127q18 0 23.5 -10.5t-3.5 -25.5l-131 -203q-12 -21 -37 -21h-104q-17 0 -23 11z" />
<glyph horiz-adv-x="458" d="M-38.5 1338q-5.5 11 5.5 26l152 205q13 18 37 18h141q24 0 37 -18l153 -205q11 -15 6 -26t-24 -11h-92q-26 0 -39 19l-102 147q-8 11 -15 0l-104 -147q-13 -19 -37 -19h-94q-19 0 -24.5 11zM131 31v1118q0 13 8.5 22t22.5 9h135q13 0 22 -9t9 -22v-1118q0 -13 -9 -22 t-22 -9h-135q-14 0 -22.5 9t-8.5 22z" />
<glyph horiz-adv-x="458" d="M-66 1481q0 49 33 80.5t84 31.5q49 0 80 -31t31 -81q0 -51 -31 -83t-80 -32q-51 0 -84 32t-33 83zM131 31v1118q0 13 8.5 22t22.5 9h135q13 0 22 -9t9 -22v-1118q0 -13 -9 -22t-22 -9h-135q-14 0 -22.5 9t-8.5 22zM297 1481q0 50 32 81t83 31t81.5 -31t30.5 -81 q0 -51 -30.5 -83t-81.5 -32t-83 32t-32 83z" />
<glyph horiz-adv-x="458" d="M121 1450q0 46 30.5 75t77.5 29q46 0 74.5 -29t28.5 -75t-29 -76.5t-74 -30.5q-47 0 -77.5 30.5t-30.5 76.5zM131 31v1118q0 13 8.5 22t22.5 9h135q13 0 22 -9t9 -22v-1118q0 -13 -9 -22t-22 -9h-135q-14 0 -22.5 9t-8.5 22z" />
<glyph horiz-adv-x="458" d="M-1.5 1588.5q5.5 10.5 24.5 10.5h127q25 0 36 -22l109 -201q8 -15 2 -26t-23 -11h-104q-25 0 -37 21l-131 203q-9 15 -3.5 25.5zM131 31v1118q0 13 8.5 22t22.5 9h135q13 0 22 -9t9 -22v-1118q0 -13 -9 -22t-22 -9h-135q-14 0 -22.5 9t-8.5 22z" />
<glyph horiz-adv-x="1486" d="M131 31v1118q0 13 8.5 22t22.5 9h135q13 0 22 -9t9 -22v-1118q0 -13 -9 -22t-22 -9h-135q-14 0 -22.5 9t-8.5 22zM498 406v43q0 13 8 21.5t22 8.5h136q14 0 22 -8.5t8 -21.5v-43q0 -114 63.5 -182t168.5 -68t169 68.5t64 181.5v745q0 13 8.5 22t22.5 9h133q13 0 22 -9 t9 -22v-745q0 -190 -117.5 -305t-310.5 -115q-194 0 -311 115t-117 305z" />
<glyph horiz-adv-x="458" d="M-53 1395v75q0 14 8.5 22.5t21.5 8.5h508q13 0 22 -8.5t9 -22.5v-75q0 -13 -9 -22t-22 -9h-508q-13 0 -21.5 8.5t-8.5 22.5zM131 31v1118q0 13 8.5 22t22.5 9h135q13 0 22 -9t9 -22v-1118q0 -13 -9 -22t-22 -9h-135q-14 0 -22.5 9t-8.5 22z" />
<glyph horiz-adv-x="489" d="M63 -260q-33 132 111 248q9 9 2 12h-14q-14 0 -22.5 9t-8.5 22v1118q0 13 8.5 22t22.5 9h135q13 0 22 -9t9 -22v-1149l-17 -14q-134 -102 -114 -193q9 -39 42.5 -54t77.5 -5q31 6 37 -23l8 -47q3 -31 -22 -37q-38 -10 -78 -11.5t-81.5 7t-73.5 38.5t-44 79z" />
<glyph horiz-adv-x="1028" d="M39 406v43q0 13 8.5 21.5t22.5 8.5h135q14 0 22.5 -8.5t8.5 -21.5v-43q0 -114 63 -182t168 -68t169 68.5t64 181.5v745q0 13 9 22t22 9h133q14 0 22.5 -9t8.5 -22v-745q0 -190 -117.5 -305t-310.5 -115q-194 0 -311 115t-117 305z" />
<glyph horiz-adv-x="1085" d="M131 31v1120q0 13 8.5 22t22.5 9h135q13 0 22 -9t9 -22v-502q0 -6 4 -8t8 4l461 520q14 17 37 17h145q20 0 24 -11t-8 -26l-385 -455q-5 -8 -2 -14l420 -639q10 -17 4.5 -27t-24.5 -10h-150q-24 0 -37 20l-346 517q-8 11 -14 2l-133 -150q-4 -8 -4 -14v-344q0 -13 -9 -22 t-22 -9h-135q-14 0 -22.5 9t-8.5 22z" />
<glyph horiz-adv-x="999" d="M131 31v1120q0 13 8.5 22t22.5 9h135q13 0 22 -9t9 -22v-971q0 -10 10 -10h577q13 0 22 -9t9 -22v-108q0 -13 -9 -22t-22 -9h-753q-14 0 -22.5 9t-8.5 22z" />
<glyph horiz-adv-x="999" d="M131 31v1120q0 13 8.5 22t22.5 9h135q13 0 22 -9t9 -22v-971q0 -10 10 -10h577q13 0 22 -9t9 -22v-108q0 -13 -9 -22t-22 -9h-753q-14 0 -22.5 9t-8.5 22zM133 1330q-6 11 2 26l109 200q12 23 37 23h127q18 0 23.5 -11t-3.5 -26l-131 -203q-11 -20 -37 -20h-104 q-17 0 -23 11z" />
<glyph horiz-adv-x="999" d="M-36 1536q5 10 24 10h92q25 0 37 -18l104 -148q7 -11 15 0l104 148q12 18 39 18h88q19 0 24 -11t-6 -26l-145 -204q-13 -19 -37 -19h-151q-26 0 -39 19l-144 204q-10 17 -5 27zM131 31v1120q0 13 8.5 22t22.5 9h135q13 0 22 -9t9 -22v-971q0 -10 10 -10h577q13 0 22 -9 t9 -22v-108q0 -13 -9 -22t-22 -9h-753q-14 0 -22.5 9t-8.5 22z" />
<glyph horiz-adv-x="999" d="M131 31v1120q0 13 8.5 22t22.5 9h135q13 0 22 -9t9 -22v-971q0 -10 10 -10h577q13 0 22 -9t9 -22v-108q0 -13 -9 -22t-22 -9h-753q-14 0 -22.5 9t-8.5 22zM329.5 -362q-5.5 11 2.5 26l108 201q11 22 37 22h127q18 0 24 -11t-3 -26l-131 -202q-12 -21 -37 -21h-105 q-17 0 -22.5 11z" />
<glyph horiz-adv-x="1083" d="M-53 334q-18 24 4 43l174 137q6 3 6 12v625q0 13 8.5 22t22.5 9h135q13 0 22 -9t9 -22v-461q0 -6 4 -8t8 2l444 348q24 21 43 -4l52 -61q18 -24 -5 -43l-540 -426q-6 -3 -6 -13v-305q0 -10 10 -10h577q13 0 22 -9t9 -22v-108q0 -13 -9 -22t-22 -9h-753q-14 0 -22.5 9 t-8.5 22v293q0 6 -3.5 8t-8.5 -2l-78 -62q-24 -21 -43 4z" />
<glyph horiz-adv-x="1253" d="M131 31v1120q0 13 8.5 22t22.5 9h137q25 0 37 -21l285 -446q6 -12 12 0l285 446q12 21 36 21h138q13 0 21.5 -8.5t8.5 -22.5v-1120q0 -14 -8.5 -22.5t-21.5 -8.5h-136q-13 0 -21.5 8.5t-8.5 22.5v854q0 5 -2.5 7t-5.5 0.5t-5 -5.5l-233 -369q-11 -20 -37 -20h-31 q-26 0 -37 20l-235 369q-2 4 -5 5.5t-5 -0.5t-2 -7v-854q0 -13 -9 -22t-22 -9h-135q-14 0 -22.5 9t-8.5 22z" />
<glyph horiz-adv-x="1175" d="M131 31v1118q0 13 8.5 22t22.5 9h141q25 0 37 -21l498 -823q2 -4 5 -5t5 1.5t2 7.5l-2 809q0 13 9 22t22 9h135q13 0 21.5 -8.5t8.5 -22.5v-1118q0 -14 -8.5 -22.5t-21.5 -8.5h-142q-25 0 -36 20l-498 830q-2 4 -5 5t-5 -1.5t-2 -7.5l2 -815q0 -13 -9 -22t-22 -9h-135 q-14 0 -22.5 9t-8.5 22z" />
<glyph horiz-adv-x="1175" d="M131 31v1118q0 13 8.5 22t22.5 9h141q25 0 37 -21l498 -823q2 -4 5 -5t5 1.5t2 7.5l-2 809q0 13 9 22t22 9h135q13 0 21.5 -8.5t8.5 -22.5v-1118q0 -14 -8.5 -22.5t-21.5 -8.5h-142q-25 0 -36 20l-498 830q-2 4 -5 5t-5 -1.5t-2 -7.5l2 -815q0 -13 -9 -22t-22 -9h-135 q-14 0 -22.5 9t-8.5 22zM481 1350q-6 11 2 26l109 201q11 22 37 22h127q18 0 23.5 -10.5t-3.5 -25.5l-131 -203q-12 -21 -37 -21h-104q-17 0 -23 11z" />
<glyph horiz-adv-x="1175" d="M131 31v1118q0 13 8.5 22t22.5 9h141q25 0 37 -21l498 -823q2 -4 5 -5t5 1.5t2 7.5l-2 809q0 13 9 22t22 9h135q13 0 21.5 -8.5t8.5 -22.5v-1118q0 -14 -8.5 -22.5t-21.5 -8.5h-142q-25 0 -36 20l-498 830q-2 4 -5 5t-5 -1.5t-2 -7.5l2 -815q0 -13 -9 -22t-22 -9h-135 q-14 0 -22.5 9t-8.5 22zM312 1557q5 10 24 10h92q24 0 37 -19l104 -147q7 -11 15 0l104 147q13 19 39 19h88q19 0 24.5 -11t-5.5 -26l-146 -205q-12 -18 -37 -18h-151q-27 0 -39 18l-144 205q-10 17 -5 27z" />
<glyph horiz-adv-x="1175" d="M131 31v1118q0 13 8.5 22t22.5 9h141q25 0 37 -21l494 -817q2 -4 5 -5t5 1.5t2 7.5v551v12q2 4 2 13v227q0 13 9 22t22 9h135q13 0 21.5 -8.5t8.5 -22.5v-1131v-18h-2q-3 -112 -36 -174.5t-109 -92.5t-211 -30q-31 0 -31 31v106q0 14 9 22.5t24 8.5q83 -1 118 29t40 98 q0 4 -4 12l-504 840q-2 4 -5 5t-5 -1.5t-2 -7.5l2 -815q0 -13 -9 -22t-22 -9h-135q-14 0 -22.5 9t-8.5 22z" />
<glyph horiz-adv-x="1175" d="M131 31v1118q0 13 8.5 22t22.5 9h141q25 0 37 -21l498 -823q2 -4 5 -5t5 1.5t2 7.5l-2 809q0 13 9 22t22 9h135q13 0 21.5 -8.5t8.5 -22.5v-1118q0 -14 -8.5 -22.5t-21.5 -8.5h-142q-25 0 -36 20l-498 830q-2 4 -5 5t-5 -1.5t-2 -7.5l2 -815q0 -13 -9 -22t-22 -9h-135 q-14 0 -22.5 9t-8.5 22zM311 1466q59 113 172 113q24 0 48 -7.5t39.5 -15.5t41.5 -24q63 -39 99 -39q51 0 86 45q20 27 43 10l41 -28q26 -18 2 -58q-33 -52 -79 -78t-91 -26q-56 0 -129 51q-52 37 -88 37q-53 0 -88 -43q-18 -24 -43 -8l-43 28q-23 16 -11 43z" />
<glyph horiz-adv-x="1107" d="M100 436v307q0 206 124 329.5t329 123.5t330 -123.5t125 -329.5v-307q0 -206 -125 -329t-330 -123t-329 123t-124 329zM297 432q0 -129 69.5 -203.5t186.5 -74.5q118 0 188 74.5t70 203.5v316q0 127 -70 201.5t-188 74.5q-116 0 -186 -74.5t-70 -201.5v-316z" />
<glyph horiz-adv-x="1107" d="M100 436v307q0 206 124 329.5t329 123.5t330 -123.5t125 -329.5v-307q0 -206 -125 -329t-330 -123t-329 123t-124 329zM297 432q0 -129 69.5 -203.5t186.5 -74.5q118 0 188 74.5t70 203.5v316q0 127 -70 201.5t-188 74.5q-116 0 -186 -74.5t-70 -201.5v-316zM456.5 1344 q-5.5 11 2.5 26l108 201q11 22 37 22h127q18 0 24 -11t-3 -26l-131 -202q-12 -21 -37 -21h-105q-17 0 -22.5 11z" />
<glyph horiz-adv-x="1107" d="M100 436v307q0 206 124 329.5t329 123.5t330 -123.5t125 -329.5v-307q0 -206 -125 -329t-330 -123t-329 123t-124 329zM285 1332q-5 11 6 26l151 205q13 18 37 18h142q23 0 36 -18l154 -205q11 -15 6 -26t-24 -11h-93q-26 0 -38 18l-103 148q-7 11 -14 0l-105 -148 q-12 -18 -37 -18h-94q-19 0 -24 11zM297 432q0 -129 69.5 -203.5t186.5 -74.5q118 0 188 74.5t70 203.5v316q0 127 -70 201.5t-188 74.5q-116 0 -186 -74.5t-70 -201.5v-316z" />
<glyph horiz-adv-x="1107" d="M100 436v307q0 206 124 329.5t329 123.5t330 -123.5t125 -329.5v-307q0 -206 -125 -329t-330 -123t-329 123t-124 329zM258 1475q0 49 33 80.5t84 31.5q49 0 79.5 -31t30.5 -81q0 -51 -30.5 -83t-79.5 -32q-51 0 -84 32t-33 83zM297 432q0 -129 69.5 -203.5t186.5 -74.5 q118 0 188 74.5t70 203.5v316q0 127 -70 201.5t-188 74.5q-116 0 -186 -74.5t-70 -201.5v-316zM621 1475q0 50 31.5 81t82.5 31t82 -31t31 -81q0 -51 -31 -83t-82 -32t-82.5 32t-31.5 83z" />
<glyph horiz-adv-x="1107" d="M100 436v307q0 206 124 329.5t329 123.5t330 -123.5t125 -329.5v-307q0 -206 -125 -329t-330 -123t-329 123t-124 329zM297 432q0 -129 69.5 -203.5t186.5 -74.5q118 0 188 74.5t70 203.5v316q0 127 -70 201.5t-188 74.5q-116 0 -186 -74.5t-70 -201.5v-316zM322.5 1582 q5.5 11 23.5 11h127q26 0 37 -22l108 -201q8 -15 2.5 -26t-22.5 -11h-104q-25 0 -37 21l-131 202q-9 15 -3.5 26z" />
<glyph horiz-adv-x="1107" d="M100 436v307q0 206 124 329.5t329 123.5t330 -123.5t125 -329.5v-307q0 -206 -125 -329t-330 -123t-329 123t-124 329zM297 432q0 -129 69.5 -203.5t186.5 -74.5q118 0 188 74.5t70 203.5v316q0 127 -70 201.5t-188 74.5q-116 0 -186 -74.5t-70 -201.5v-316zM306.5 1339 q-6.5 10 0.5 27l101 201q13 22 34 22h119q17 0 23 -11t-2 -26l-109 -200q-11 -23 -37 -23h-106q-17 0 -23.5 10zM651 1340q-6 11 2 26l107 201q11 22 37 22h110q18 0 24 -10t-3 -27l-111 -200q-11 -23 -37 -23h-106q-17 0 -23 11z" />
<glyph horiz-adv-x="1107" d="M100 436v307q0 206 124 329.5t329 123.5t330 -123.5t125 -329.5v-307q0 -206 -125 -329t-330 -123t-329 123t-124 329zM270 1389v75q0 14 9 22.5t22 8.5h508q13 0 22 -8.5t9 -22.5v-75q0 -13 -9 -22t-22 -9h-508q-13 0 -22 9t-9 22zM297 432q0 -129 69.5 -203.5 t186.5 -74.5q118 0 188 74.5t70 203.5v316q0 127 -70 201.5t-188 74.5q-116 0 -186 -74.5t-70 -201.5v-316z" />
<glyph horiz-adv-x="1107" d="M100 436v307q0 206 124 329.5t329 123.5q136 0 244 -57q8 -8 12 4l133 262q13 22 35 22h88q17 0 23 -9.5t-1 -26.5l-169 -342q-4 -7 0 -15q90 -120 90 -291v-307q0 -206 -125 -329t-330 -123q-72 0 -147 20q-10 3 -13 -6l-84 -168q-13 -23 -35 -23h-86q-17 0 -23 10t1 27 l104 211q3 10 -4 15q-79 60 -122.5 153t-43.5 213zM297 432q0 -112 55 -186q8 -12 15 2l352 710q3 10 -2 15q-66 51 -164 51q-116 0 -186 -74.5t-70 -201.5v-316zM483 174q-4 -12 4 -12q27 -8 66 -8q118 0 188 74.5t70 203.5v316q0 35 -2 51q-2 8 -6.5 8.5t-7.5 -6.5z" />
<glyph horiz-adv-x="1107" d="M100 436v307q0 206 124 329.5t329 123.5t330 -123.5t125 -329.5v-307q0 -206 -125 -329t-330 -123t-329 123t-124 329zM287 1460q59 113 172 113q24 0 48 -7.5t39.5 -15.5t41.5 -24q63 -39 98 -39q51 0 86 45q20 27 43 10l41 -29q25 -18 2 -57q-33 -52 -79 -78t-91 -26 q-56 0 -129 51q-52 37 -88 37q-53 0 -88 -43q-18 -24 -43 -8l-43 28q-22 16 -10 43zM297 432q0 -129 69.5 -203.5t186.5 -74.5q118 0 188 74.5t70 203.5v316q0 127 -70 201.5t-188 74.5q-116 0 -186 -74.5t-70 -201.5v-316z" />
<glyph horiz-adv-x="1624" d="M100 393v393q0 181 109 295.5t270 114.5q159 0 271 -92q4 -4 8 -2t4 8v41q0 13 9 22t22 9h718q13 0 22 -9t9 -22v-111q0 -13 -8.5 -21.5t-22.5 -8.5h-542q-11 0 -11 -11v-309q0 -10 11 -10h348q13 0 22 -9t9 -22v-108q0 -13 -9 -22t-22 -9h-348q-11 0 -11 -10v-320 q0 -10 11 -10h542q13 0 22 -9t9 -22v-108q0 -13 -9 -22t-22 -9h-718q-13 0 -22 9t-9 22v39q0 6 -4 8t-8 -2q-112 -92 -271 -92q-161 0 -270 114t-109 295zM297 387q0 -105 63.5 -169t165.5 -64q106 0 171 64t65 169v401q0 107 -65 171.5t-171 64.5q-102 0 -165.5 -64.5 t-63.5 -171.5v-401z" />
<glyph horiz-adv-x="1040" d="M121 31v1122q0 13 8.5 22t22.5 9h466q166 0 268.5 -98t102.5 -257q0 -155 -104.5 -250.5t-274.5 -95.5h-282q-11 0 -11 -10v-442q0 -14 -8.5 -22.5t-21.5 -8.5h-135q-14 0 -22.5 9t-8.5 22zM317 653q0 -10 11 -10h274q86 0 138.5 50t52.5 132q0 85 -52.5 137t-138.5 52 h-274q-11 0 -11 -10v-351z" />
<glyph horiz-adv-x="1005" d="M121 31v1120q0 13 8.5 22t22.5 9h135q13 0 21.5 -8.5t8.5 -22.5v-205q0 -10 11 -10h258q167 0 267.5 -95.5t100.5 -252.5q0 -155 -103.5 -248.5t-272.5 -93.5h-250q-11 0 -11 -10v-205q0 -14 -8.5 -22.5t-21.5 -8.5h-135q-14 0 -22.5 9t-8.5 22zM317 416q0 -10 11 -10 h250q81 0 130.5 49t49.5 129q0 83 -49 133.5t-131 50.5h-250q-11 0 -11 -10v-342z" />
<glyph horiz-adv-x="1030" d="M86 412v346q0 199 118 318.5t312 119.5q193 0 310.5 -119.5t117.5 -318.5v-346q0 -165 -86 -275t-235 -141q-9 -3 -9 -12v-127q0 -14 -8.5 -22.5t-21.5 -8.5h-135q-13 0 -22 9t-9 22v127q0 10 -10 12q-149 29 -235.5 140t-86.5 276zM283 414q0 -118 63.5 -188t169.5 -70 q105 0 168.5 70t63.5 188v354q0 118 -63.5 187t-168.5 69q-106 0 -169.5 -69t-63.5 -187v-354z" />
<glyph horiz-adv-x="1060" d="M131 31v1122q0 13 8.5 22t22.5 9h461q161 0 260.5 -95.5t99.5 -250.5q0 -119 -62 -204t-169 -118q-8 -3 -4 -14l237 -465q8 -15 1.5 -26t-23.5 -11h-144q-22 0 -35 23l-227 464q-5 9 -12 9h-207q-10 0 -10 -11v-454q0 -13 -9 -22t-22 -9h-135q-14 0 -22.5 9t-8.5 22z M328 659q0 -10 10 -10h262q83 0 135.5 50t52.5 130q0 83 -52 134t-136 51h-262q-10 0 -10 -10v-345z" />
<glyph horiz-adv-x="1060" d="M131 31v1122q0 13 8.5 22t22.5 9h461q161 0 260.5 -95.5t99.5 -250.5q0 -119 -62 -204t-169 -118q-8 -3 -4 -14l237 -465q8 -15 1.5 -26t-23.5 -11h-144q-22 0 -35 23l-227 464q-5 9 -12 9h-207q-10 0 -10 -11v-454q0 -13 -9 -22t-22 -9h-135q-14 0 -22.5 9t-8.5 22z M328 659q0 -10 10 -10h262q83 0 135.5 50t52.5 130q0 83 -52 134t-136 51h-262q-10 0 -10 -10v-345zM415.5 1330q-5.5 11 2.5 26l108 200q12 23 37 23h127q18 0 24 -11t-3 -26l-131 -203q-11 -20 -37 -20h-105q-17 0 -22.5 11z" />
<glyph horiz-adv-x="1060" d="M131 31v1122q0 13 8.5 22t22.5 9h461q161 0 260.5 -95.5t99.5 -250.5q0 -119 -62 -204t-169 -118q-8 -3 -4 -14l237 -465q8 -15 1.5 -26t-23.5 -11h-144q-22 0 -35 23l-227 464q-5 9 -12 9h-207q-10 0 -10 -11v-454q0 -13 -9 -22t-22 -9h-135q-14 0 -22.5 9t-8.5 22z M246.5 1536q4.5 10 23.5 10h92q25 0 37 -18l105 -148q7 -10 14 0l105 148q12 18 39 18h88q19 0 24 -11t-6 -26l-145 -204q-13 -19 -37 -19h-152q-26 0 -39 19l-143 204q-10 17 -5.5 27zM328 659q0 -10 10 -10h262q83 0 135.5 50t52.5 130q0 83 -52 134t-136 51h-262 q-10 0 -10 -10v-345z" />
<glyph horiz-adv-x="1036" d="M86 322v26q0 14 9 22.5t22 8.5h131q13 0 22 -6t9 -15v-20q0 -79 66 -130.5t187 -51.5q111 0 169.5 44t58.5 117q0 63 -60 105t-208 98q-167 55 -225 85q-134 69 -164 182q-9 36 -9 79q0 156 110 243t310 87q206 0 319 -92.5t113 -257.5v-8q0 -14 -9 -22.5t-22 -8.5h-133 q-30 0 -30 16v17q0 81 -62.5 132.5t-183.5 51.5q-104 0 -161.5 -40.5t-57.5 -113.5q0 -21 6.5 -38.5t14.5 -31t28 -27t34.5 -22.5t47.5 -22t53 -20.5t64 -22.5q180 -58 250 -96q145 -78 167 -210q4 -26 4 -54q0 -156 -114.5 -248t-323.5 -92q-202 0 -317 88.5t-115 247.5z " />
<glyph horiz-adv-x="1036" d="M86 322v26q0 14 9 22.5t22 8.5h131q13 0 22 -6t9 -15v-20q0 -79 66 -130.5t187 -51.5q111 0 169.5 44t58.5 117q0 63 -60 105t-208 98q-167 55 -225 85q-134 69 -164 182q-9 36 -9 79q0 156 110 243t310 87q206 0 319 -92.5t113 -257.5v-8q0 -14 -9 -22.5t-22 -8.5h-133 q-30 0 -30 16v17q0 81 -62.5 132.5t-183.5 51.5q-104 0 -161.5 -40.5t-57.5 -113.5q0 -21 6.5 -38.5t14.5 -31t28 -27t34.5 -22.5t47.5 -22t53 -20.5t64 -22.5q180 -58 250 -96q145 -78 167 -210q4 -26 4 -54q0 -156 -114.5 -248t-323.5 -92q-202 0 -317 88.5t-115 247.5z M413.5 1344q-5.5 11 2.5 26l108 201q11 22 37 22h127q18 0 24 -11t-3 -26l-131 -202q-12 -21 -37 -21h-105q-17 0 -22.5 11z" />
<glyph horiz-adv-x="1036" d="M86 322v26q0 14 9 22.5t22 8.5h131q13 0 22 -6t9 -15v-20q0 -79 66 -130.5t187 -51.5q111 0 169.5 44t58.5 117q0 63 -60 105t-208 98q-167 55 -225 85q-134 69 -164 182q-9 36 -9 79q0 156 110 243t310 87q206 0 319 -92.5t113 -257.5v-8q0 -14 -9 -22.5t-22 -8.5h-133 q-30 0 -30 16v17q0 81 -62.5 132.5t-183.5 51.5q-104 0 -161.5 -40.5t-57.5 -113.5q0 -21 6.5 -38.5t14.5 -31t28 -27t34.5 -22.5t47.5 -22t53 -20.5t64 -22.5q180 -58 250 -96q145 -78 167 -210q4 -26 4 -54q0 -156 -114.5 -248t-323.5 -92q-202 0 -317 88.5t-115 247.5z M244.5 1551q4.5 10 23.5 10h92q24 0 37 -19l105 -147q7 -11 14 0l105 147q13 19 38 19h89q19 0 24 -11t-6 -26l-145 -205q-13 -19 -37 -19h-152q-26 0 -39 19l-143 205q-10 17 -5.5 27z" />
<glyph horiz-adv-x="1036" d="M86 322v26q0 14 9 22.5t22 8.5h131q13 0 22 -6t9 -15v-20q0 -79 66 -130.5t187 -51.5q111 0 169.5 44t58.5 117q0 63 -60 105t-208 98q-167 55 -225 85q-134 69 -164 182q-9 36 -9 79q0 156 110 243t310 87q206 0 319 -92.5t113 -257.5v-8q0 -14 -9 -22.5t-22 -8.5h-133 q-30 0 -30 16v17q0 81 -62.5 132.5t-183.5 51.5q-104 0 -161.5 -40.5t-57.5 -113.5q0 -21 6.5 -38.5t14.5 -31t28 -27t34.5 -22.5t47.5 -22t53 -20.5t64 -22.5q180 -58 250 -96q145 -78 167 -210q4 -26 4 -54q0 -138 -91 -226.5t-259 -107.5q-13 -3 -4 -12q119 -113 90 -232 q-12 -49 -44 -79t-73.5 -38.5t-81 -7t-77.5 11.5q-26 6 -23 37l8 47q6 29 37 23q44 -10 78 5t43 54q20 85 -100 183q-8 4 -13 4q-170 15 -265 102.5t-95 231.5z" />
<glyph horiz-adv-x="1030" d="M59 1040v111q0 13 8.5 22t22.5 9h850q14 0 22.5 -9t8.5 -22v-111q0 -13 -8.5 -21.5t-22.5 -8.5h-322q-10 0 -10 -11v-968q0 -14 -8.5 -22.5t-21.5 -8.5h-136q-13 0 -21.5 8.5t-8.5 22.5v968q0 11 -11 11h-311q-14 0 -22.5 8.5t-8.5 21.5z" />
<glyph horiz-adv-x="1030" d="M59 1040v111q0 13 8.5 22t22.5 9h850q14 0 22.5 -9t8.5 -22v-111q0 -13 -8.5 -21.5t-22.5 -8.5h-322q-10 0 -10 -11v-249q0 -11 10 -11h205q14 0 22.5 -8.5t8.5 -21.5v-64q0 -13 -9 -22t-22 -9h-205q-10 0 -10 -10v-573q0 -14 -8.5 -22.5t-21.5 -8.5h-136 q-13 0 -21.5 8.5t-8.5 22.5v573q0 10 -11 10h-192q-13 0 -22 9t-9 22v64q0 13 8.5 21.5t22.5 8.5h192q11 0 11 11v249q0 11 -11 11h-311q-14 0 -22.5 8.5t-8.5 21.5z" />
<glyph horiz-adv-x="1030" d="M59 1040v111q0 13 8.5 22t22.5 9h850q14 0 22.5 -9t8.5 -22v-111q0 -13 -8.5 -21.5t-22.5 -8.5h-322q-10 0 -10 -11v-968q0 -14 -8.5 -22.5t-21.5 -8.5h-136q-13 0 -21.5 8.5t-8.5 22.5v968q0 11 -11 11h-311q-14 0 -22.5 8.5t-8.5 21.5zM248.5 1536q4.5 10 23.5 10h93 q24 0 36 -18l105 -148q7 -10 14 0l105 148q12 18 39 18h88q19 0 24 -11t-6 -26l-145 -204q-13 -19 -37 -19h-152q-26 0 -39 19l-143 204q-10 17 -5.5 27z" />
<glyph horiz-adv-x="1030" d="M59 1040v111q0 13 8.5 22t22.5 9h850q14 0 22.5 -9t8.5 -22v-111q0 -13 -8.5 -21.5t-22.5 -8.5h-322q-10 0 -10 -11v-968q0 -14 -8.5 -22.5t-21.5 -8.5h-136q-13 0 -21.5 8.5t-8.5 22.5v968q0 11 -11 11h-311q-14 0 -22.5 8.5t-8.5 21.5zM362.5 -362q-5.5 11 2.5 26 l108 201q11 22 37 22h127q18 0 23.5 -11t-3.5 -26l-131 -202q-12 -21 -37 -21h-104q-17 0 -22.5 11z" />
<glyph horiz-adv-x="1116" d="M119 412v737q0 13 8.5 22t22.5 9h135q13 0 21.5 -8.5t8.5 -22.5v-739q0 -117 66.5 -185.5t179.5 -68.5q107 0 173.5 69t66.5 185v739q0 14 8.5 22.5t21.5 8.5h136q13 0 21.5 -8.5t8.5 -22.5v-737q0 -194 -120 -310t-316 -116q-200 0 -321 116t-121 310z" />
<glyph horiz-adv-x="1116" d="M119 412v737q0 13 8.5 22t22.5 9h135q13 0 21.5 -8.5t8.5 -22.5v-739q0 -117 66.5 -185.5t179.5 -68.5q107 0 173.5 69t66.5 185v739q0 14 8.5 22.5t21.5 8.5h136q13 0 21.5 -8.5t8.5 -22.5v-737q0 -194 -120 -310t-316 -116q-200 0 -321 116t-121 310zM464.5 1350 q-5.5 11 2.5 26l108 201q11 22 37 22h127q19 0 24.5 -10.5t-3.5 -25.5l-131 -203q-12 -21 -37 -21h-105q-17 0 -22.5 11z" />
<glyph horiz-adv-x="1116" d="M119 412v737q0 13 8.5 22t22.5 9h135q13 0 21.5 -8.5t8.5 -22.5v-739q0 -117 66.5 -185.5t179.5 -68.5q107 0 173.5 69t66.5 185v739q0 14 8.5 22.5t21.5 8.5h136q13 0 21.5 -8.5t8.5 -22.5v-737q0 -194 -120 -310t-316 -116q-200 0 -321 116t-121 310zM293 1338 q-5 11 6 26l152 205q13 18 36 18h142q24 0 37 -18l153 -205q11 -15 6 -26t-24 -11h-92q-26 0 -39 19l-103 147q-7 11 -14 0l-104 -147q-13 -19 -37 -19h-95q-19 0 -24 11z" />
<glyph horiz-adv-x="1116" d="M119 412v737q0 13 8.5 22t22.5 9h135q13 0 21.5 -8.5t8.5 -22.5v-739q0 -117 66.5 -185.5t179.5 -68.5q107 0 173.5 69t66.5 185v739q0 14 8.5 22.5t21.5 8.5h136q13 0 21.5 -8.5t8.5 -22.5v-737q0 -194 -120 -310t-316 -116q-200 0 -321 116t-121 310zM266 1481 q0 49 33 80.5t84 31.5q49 0 80 -31t31 -81q0 -51 -31 -83t-80 -32q-51 0 -84 32t-33 83zM629 1481q0 50 31.5 81t82.5 31t82 -31t31 -81q0 -51 -31 -83t-82 -32t-82.5 32t-31.5 83z" />
<glyph horiz-adv-x="1116" d="M119 412v737q0 13 8.5 22t22.5 9h135q13 0 21.5 -8.5t8.5 -22.5v-739q0 -117 66.5 -185.5t179.5 -68.5q107 0 173.5 69t66.5 185v739q0 14 8.5 22.5t21.5 8.5h136q13 0 21.5 -8.5t8.5 -22.5v-737q0 -194 -120 -310t-316 -116q-200 0 -321 116t-121 310zM330.5 1588.5 q5.5 10.5 23.5 10.5h127q26 0 37 -22l109 -201q8 -15 2 -26t-23 -11h-104q-25 0 -37 21l-131 203q-9 15 -3.5 25.5z" />
<glyph horiz-adv-x="1116" d="M119 412v737q0 13 8.5 22t22.5 9h135q13 0 21.5 -8.5t8.5 -22.5v-739q0 -117 66.5 -185.5t179.5 -68.5q107 0 173.5 69t66.5 185v739q0 14 8.5 22.5t21.5 8.5h136q13 0 21.5 -8.5t8.5 -22.5v-737q0 -194 -120 -310t-316 -116q-200 0 -321 116t-121 310zM314.5 1345 q-6.5 10 0.5 27l101 201q13 22 35 22h118q17 0 23 -10.5t-2 -25.5l-109 -201q-11 -23 -37 -23h-106q-17 0 -23.5 10zM659.5 1346q-5.5 11 2.5 26l106 201q11 22 37 22h110q18 0 24 -9.5t-3 -26.5l-111 -201q-11 -23 -37 -23h-106q-17 0 -22.5 11z" />
<glyph horiz-adv-x="1116" d="M119 412v737q0 13 8.5 22t22.5 9h135q13 0 21.5 -8.5t8.5 -22.5v-739q0 -117 66.5 -185.5t179.5 -68.5q107 0 173.5 69t66.5 185v739q0 14 8.5 22.5t21.5 8.5h136q13 0 21.5 -8.5t8.5 -22.5v-737q0 -194 -120 -310t-316 -116q-200 0 -321 116t-121 310zM279 1395v75 q0 14 8.5 22.5t21.5 8.5h508q13 0 22 -8.5t9 -22.5v-75q0 -13 -9 -22t-22 -9h-508q-13 0 -21.5 8.5t-8.5 22.5z" />
<glyph horiz-adv-x="1116" d="M119 412v737q0 13 8.5 22t22.5 9h135q13 0 21.5 -8.5t8.5 -22.5v-739q0 -117 66.5 -185.5t179.5 -68.5q107 0 173.5 69t66.5 185v739q0 14 8.5 22.5t21.5 8.5h136q13 0 21.5 -8.5t8.5 -22.5v-737q0 -180 -104 -293.5t-279 -130.5q-4 0 -12 -4q-103 -96 -84 -170 q9 -39 43 -54.5t78 -5.5q31 6 37 -22l8 -47q3 -31 -22 -37q-38 -10 -78 -12t-81.5 7t-73.5 38.5t-44 78.5q-29 113 80 222q9 9 -2 12q-159 28 -251.5 139t-92.5 279z" />
<glyph horiz-adv-x="1116" d="M119 412v737q0 13 8.5 22t22.5 9h135q13 0 21.5 -8.5t8.5 -22.5v-739q0 -117 66.5 -185.5t179.5 -68.5q107 0 173.5 69t66.5 185v739q0 14 8.5 22.5t21.5 8.5h136q13 0 21.5 -8.5t8.5 -22.5v-737q0 -194 -120 -310t-316 -116q-200 0 -321 116t-121 310zM342 1536 q0 90 63.5 152.5t155.5 62.5t155.5 -62.5t63.5 -152.5q0 -92 -63.5 -154.5t-155.5 -62.5t-155.5 62.5t-63.5 154.5zM442 1536q0 -51 34.5 -86t84.5 -35q51 0 86 35t35 86t-35 85t-86 34q-50 0 -84.5 -34t-34.5 -85z" />
<glyph horiz-adv-x="1069" d="M61 1147q-9 35 27 35h148q27 0 34 -27l260 -879q1 -5 3.5 -7t5.5 0t4 7l260 879q7 27 35 27h141q36 0 27 -35l-363 -1122q-8 -25 -35 -25h-151q-27 0 -35 25z" />
<glyph horiz-adv-x="1566" d="M61 1147q-9 35 25 35h147q26 0 33 -27l205 -805q1 -6 6 -6t6 6l193 805q7 27 33 27h147q26 0 33 -27l198 -805q1 -6 6 -6t7 6l207 805q7 27 32 27h140q33 0 24 -35l-303 -1120q-7 -27 -33 -27h-137q-26 0 -33 27l-211 790q-2 6 -6 6t-6 -6l-199 -790q-7 -27 -32 -27h-131 q-29 0 -35 27z" />
<glyph horiz-adv-x="1566" d="M61 1147q-9 35 25 35h147q26 0 33 -27l205 -805q1 -6 6 -6t6 6l193 805q7 27 33 27h147q26 0 33 -27l198 -805q1 -6 6 -6t7 6l207 805q7 27 32 27h140q33 0 24 -35l-303 -1120q-7 -27 -33 -27h-137q-26 0 -33 27l-211 790q-2 6 -6 6t-6 -6l-199 -790q-7 -27 -32 -27h-131 q-29 0 -35 27zM684 1330q-6 11 2 26l109 200q11 23 36 23h127q18 0 24 -11t-3 -26l-131 -203q-11 -20 -37 -20h-104q-17 0 -23 11z" />
<glyph horiz-adv-x="1566" d="M61 1147q-9 35 25 35h147q26 0 33 -27l205 -805q1 -6 6 -6t6 6l193 805q7 27 33 27h147q26 0 33 -27l198 -805q1 -6 6 -6t7 6l207 805q7 27 32 27h140q33 0 24 -35l-303 -1120q-7 -27 -33 -27h-137q-26 0 -33 27l-211 790q-2 6 -6 6t-6 -6l-199 -790q-7 -27 -32 -27h-131 q-29 0 -35 27zM512.5 1317.5q-5.5 10.5 5.5 25.5l152 205q14 19 37 19h141q23 0 37 -19l153 -205q11 -15 6 -25.5t-24 -10.5h-92q-27 0 -39 18l-103 148q-7 11 -14 0l-104 -148q-12 -18 -37 -18h-94q-19 0 -24.5 10.5z" />
<glyph horiz-adv-x="1566" d="M61 1147q-9 35 25 35h147q26 0 33 -27l205 -805q1 -6 6 -6t6 6l193 805q7 27 33 27h147q26 0 33 -27l198 -805q1 -6 6 -6t7 6l207 805q7 27 32 27h140q33 0 24 -35l-303 -1120q-7 -27 -33 -27h-137q-26 0 -33 27l-211 790q-2 6 -6 6t-6 -6l-199 -790q-7 -27 -32 -27h-131 q-29 0 -35 27zM485 1460q0 49 33 81t84 32q49 0 80 -31.5t31 -81.5q0 -51 -30.5 -82.5t-80.5 -31.5q-51 0 -84 31.5t-33 82.5zM848 1460q0 50 32 81.5t83 31.5t81.5 -31.5t30.5 -81.5q0 -51 -30.5 -82.5t-81.5 -31.5t-83 31.5t-32 82.5z" />
<glyph horiz-adv-x="1566" d="M61 1147q-9 35 25 35h147q26 0 33 -27l205 -805q1 -6 6 -6t6 6l193 805q7 27 33 27h147q26 0 33 -27l198 -805q1 -6 6 -6t7 6l207 805q7 27 32 27h140q33 0 24 -35l-303 -1120q-7 -27 -33 -27h-137q-26 0 -33 27l-211 790q-2 6 -6 6t-6 -6l-199 -790q-7 -27 -32 -27h-131 q-29 0 -35 27zM549.5 1568q5.5 11 23.5 11h127q26 0 37 -23l109 -200q8 -15 2 -26t-23 -11h-104q-26 0 -37 20l-131 203q-9 15 -3.5 26z" />
<glyph horiz-adv-x="1083" d="M72.5 11q-5.5 11 3.5 26l356 547q3 6 0 12l-356 549q-9 15 -3.5 26t23.5 11h148q25 0 37 -21l256 -411q6 -12 12 0l256 411q12 21 37 21h145q18 0 24 -11t-3 -26l-355 -549q-3 -6 0 -12l355 -547q9 -15 3 -26t-24 -11h-145q-26 0 -37 20l-256 410q-6 12 -12 0l-258 -410 q-11 -20 -37 -20h-146q-18 0 -23.5 11z" />
<glyph horiz-adv-x="1056" d="M68.5 1171q6.5 11 23.5 11h148q21 0 34 -23l246 -487q6 -9 12 0l248 487q13 23 35 23h148q17 0 22.5 -11t-2.5 -26l-354 -666q-4 -8 -4 -12v-434q0 -13 -8.5 -22t-22.5 -9h-135q-13 0 -22 9t-9 22v434q0 4 -4 12l-354 666q-8 15 -1.5 26z" />
<glyph horiz-adv-x="1056" d="M68.5 1171q6.5 11 23.5 11h148q21 0 34 -23l246 -487q6 -9 12 0l248 487q13 23 35 23h148q17 0 22.5 -11t-2.5 -26l-354 -666q-4 -8 -4 -12v-434q0 -13 -8.5 -22t-22.5 -9h-135q-13 0 -22 9t-9 22v434q0 4 -4 12l-354 666q-8 15 -1.5 26zM430 1328q-6 11 2 26l109 200 q11 23 37 23h127q18 0 23.5 -11t-3.5 -26l-131 -203q-11 -20 -37 -20h-104q-17 0 -23 11z" />
<glyph horiz-adv-x="1056" d="M68.5 1171q6.5 11 23.5 11h148q21 0 34 -23l246 -487q6 -9 12 0l248 487q13 23 35 23h148q17 0 22.5 -11t-2.5 -26l-354 -666q-4 -8 -4 -12v-434q0 -13 -8.5 -22t-22.5 -9h-135q-13 0 -22 9t-9 22v434q0 4 -4 12l-354 666q-8 15 -1.5 26zM258.5 1315.5 q-5.5 10.5 5.5 25.5l152 205q14 19 37 19h141q23 0 37 -19l153 -205q11 -15 6 -25.5t-24 -10.5h-92q-27 0 -39 18l-103 147q-7 10 -14 0l-104 -147q-12 -18 -37 -18h-94q-19 0 -24.5 10.5z" />
<glyph horiz-adv-x="1056" d="M68.5 1171q6.5 11 23.5 11h148q21 0 34 -23l246 -487q6 -9 12 0l248 487q13 23 35 23h148q17 0 22.5 -11t-2.5 -26l-354 -666q-4 -8 -4 -12v-434q0 -13 -8.5 -22t-22.5 -9h-135q-13 0 -22 9t-9 22v434q0 4 -4 12l-354 666q-8 15 -1.5 26zM231 1458q0 49 33 81t84 32 q49 0 80 -31.5t31 -81.5q0 -51 -31 -83t-80 -32q-51 0 -84 32t-33 83zM594 1458q0 50 32 81.5t83 31.5t81.5 -31.5t30.5 -81.5q0 -51 -30.5 -83t-81.5 -32t-83 32t-32 83z" />
<glyph horiz-adv-x="1056" d="M68.5 1171q6.5 11 23.5 11h148q21 0 34 -23l246 -487q6 -9 12 0l248 487q13 23 35 23h148q17 0 22.5 -11t-2.5 -26l-354 -666q-4 -8 -4 -12v-434q0 -13 -8.5 -22t-22.5 -9h-135q-13 0 -22 9t-9 22v434q0 4 -4 12l-354 666q-8 15 -1.5 26zM295.5 1566q5.5 11 23.5 11h127 q26 0 37 -23l109 -200q8 -15 2 -26t-23 -11h-104q-26 0 -37 20l-131 203q-9 15 -3.5 26z" />
<glyph horiz-adv-x="968" d="M66 31v127q0 19 12 37l588 802q3 4 0 8.5t-9 4.5h-561q-14 0 -22 8t-8 22v111q0 14 8.5 22.5t21.5 8.5h768q14 0 22.5 -9t8.5 -22v-129q0 -19 -12 -37l-592 -803q-3 -4 -1.5 -8t7.5 -4h567q14 0 22.5 -9t8.5 -22v-108q0 -13 -8.5 -22t-22.5 -9h-768q-13 0 -21.5 8.5 t-8.5 22.5z" />
<glyph horiz-adv-x="968" d="M66 31v127q0 19 12 37l588 802q3 4 0 8.5t-9 4.5h-561q-14 0 -22 8t-8 22v111q0 14 8.5 22.5t21.5 8.5h768q14 0 22.5 -9t8.5 -22v-129q0 -19 -12 -37l-592 -803q-3 -4 -1.5 -8t7.5 -4h567q14 0 22.5 -9t8.5 -22v-108q0 -13 -8.5 -22t-22.5 -9h-768q-13 0 -21.5 8.5 t-8.5 22.5zM380.5 1352q-5.5 11 2.5 26l109 201q12 23 36 23h127q18 0 24 -11t-3 -26l-131 -203q-12 -21 -37 -21h-105q-17 0 -22.5 11z" />
<glyph horiz-adv-x="968" d="M66 31v127q0 19 12 37l588 802q3 4 0 8.5t-9 4.5h-561q-14 0 -22 8t-8 22v111q0 14 8.5 22.5t21.5 8.5h768q14 0 22.5 -9t8.5 -22v-129q0 -19 -12 -37l-592 -803q-3 -4 -1.5 -8t7.5 -4h567q14 0 22.5 -9t8.5 -22v-108q0 -13 -8.5 -22t-22.5 -9h-768q-13 0 -21.5 8.5 t-8.5 22.5zM212 1559q5 10 24 10h92q24 0 37 -19l104 -147q7 -11 14 0l105 147q13 19 39 19h88q19 0 24 -11t-6 -26l-145 -205q-12 -18 -37 -18h-152q-27 0 -39 18l-143 205q-10 17 -5 27z" />
<glyph horiz-adv-x="968" d="M66 31v127q0 19 12 37l588 802q3 4 0 8.5t-9 4.5h-561q-14 0 -22 8t-8 22v111q0 14 8.5 22.5t21.5 8.5h768q14 0 22.5 -9t8.5 -22v-129q0 -19 -12 -37l-592 -803q-3 -4 -1.5 -8t7.5 -4h567q14 0 22.5 -9t8.5 -22v-108q0 -13 -8.5 -22t-22.5 -9h-768q-13 0 -21.5 8.5 t-8.5 22.5zM369 1452q0 46 30.5 75t77.5 29q46 0 74.5 -29t28.5 -75t-29 -76t-74 -30q-47 0 -77.5 30t-30.5 76z" />
</font>
</defs>
</svg>
